<svg xmlns="http://www.w3.org/2000/svg" width="197.746" height="28.729" viewBox="0 0 197.746 28.729">
  <g id="Group_1213" data-name="Group 1213" transform="translate(0)">
    <path id="Path_910" data-name="Path 910" d="M586.672,32.285a10.521,10.521,0,0,0-7.619-2.778H568.578V57.759h10.476a10.523,10.523,0,0,0,7.619-2.778c3.292-3.294,2.935-6.9,2.935-11.348S589.964,35.578,586.672,32.285Zm-4.765,17.7a3.6,3.6,0,0,1-3.33,1.587h-3.055V35.7h3.055a3.6,3.6,0,0,1,3.33,1.588c.559.795.756,1.587.756,6.349C582.663,48.435,582.466,49.189,581.907,49.982Z" transform="translate(-538.674 -29.268)"/>
    <path id="Path_911" data-name="Path 911" d="M637.915,57.759V44.228l-4.009,6.984h-4.443l-4.009-6.984V57.759H618.51V29.507h6.824l6.35,12.459,6.347-12.459h6.828V57.759Z" transform="translate(-562.761 -29.268)"/>
    <path id="Path_912" data-name="Path 912" d="M697.368,54.6a11.406,11.406,0,0,1-15.792,0c-2.974-2.976-2.857-6.944-2.857-11.189s-.117-8.214,2.857-11.189a11.4,11.4,0,0,1,15.792,0c2.977,2.976,2.857,6.944,2.857,11.189S700.346,51.625,697.368,54.6ZM692.25,36.467a3.754,3.754,0,0,0-5.556,0c-.632.834-1.032,1.785-1.032,6.944s.4,6.071,1.032,6.905a3.674,3.674,0,0,0,5.556,0c.636-.834,1.031-1.747,1.031-6.905S692.886,37.3,692.25,36.467Z" transform="translate(-591.806 -29.046)"/>
    <path id="Path_913" data-name="Path 913" d="M745.57,57.759l-9.045-14.206V57.759h-6.944V29.507h6.068L744.7,43.712V29.507h6.944V57.759Z" transform="translate(-616.342 -29.268)"/>
    <path id="Path_914" data-name="Path 914" d="M838.178,57.775c-4.323,0-7.855-.795-10.712-3.729l4.443-4.445c1.469,1.469,4.048,1.985,6.308,1.985,2.741,0,4.048-.913,4.048-2.54a2.365,2.365,0,0,0-.554-1.667,3.152,3.152,0,0,0-1.865-.754l-3.412-.477a9.565,9.565,0,0,1-5.676-2.5,7.83,7.83,0,0,1-1.943-5.674c0-5.158,3.889-8.929,10.317-8.929,4.047,0,7.1.954,9.522,3.373l-4.366,4.365c-1.783-1.785-4.125-1.667-5.354-1.667-2.423,0-3.412,1.39-3.412,2.619a1.858,1.858,0,0,0,.554,1.311,3.171,3.171,0,0,0,1.943.832l3.412.477a9.506,9.506,0,0,1,5.556,2.342c1.508,1.468,2.1,3.571,2.1,6.19C849.092,54.641,844.13,57.775,838.178,57.775Z" transform="translate(-663.562 -29.046)"/>
    <g id="Group_1211" data-name="Group 1211" transform="translate(0 0.238)">
      <path id="Path_915" data-name="Path 915" d="M515.045,61.559,510.8,73.221h6.818l4.225-11.662Z" transform="translate(-510.802 -44.969)"/>
      <path id="Path_916" data-name="Path 916" d="M536,29.507H528.29l10.542,28.253h7.438Z" transform="translate(-519.238 -29.507)"/>
    </g>
    <path id="Path_917" data-name="Path 917" d="M795.128,40.935l9.642-11.428h-8.495L781.512,45.849v11.91H788.1V48.91l2.38-2.737,6.51,11.587h8.092Z" transform="translate(-641.394 -29.268)"/>
    <g id="Group_1212" data-name="Group 1212" transform="translate(188.002 18.867)">
      <path id="Path_918" data-name="Path 918" d="M878.9,75.242a4.872,4.872,0,1,1,4.872-4.872A4.871,4.871,0,0,1,878.9,75.242Zm0-8.438a3.567,3.567,0,1,0,3.486,3.566A3.408,3.408,0,0,0,878.9,66.8Zm.7,6.11-.768-1.9h-.417v1.9h-1.387V67.826H879.3a1.63,1.63,0,0,1,1.737,1.642,1.445,1.445,0,0,1-.821,1.319l.956,2.127Zm-.484-3.957h-.7V69.98h.7a.512.512,0,1,0,0-1.023Z" transform="translate(-874.025 -65.498)"/>
    </g>
  </g>
</svg>
