<svg xmlns="http://www.w3.org/2000/svg" width="183.545" height="70.236" viewBox="0 0 183.545 70.236">
  <g id="Group_1217" data-name="Group 1217" transform="translate(0)">
    <g id="Group_1215" data-name="Group 1215" transform="translate(89.372 16.76)">
      <path id="Path_919" data-name="Path 919" d="M412.44,307.19v1.945a4.294,4.294,0,0,0,1.091,3.181,4.452,4.452,0,0,0,3.244,1.084h11.037a.635.635,0,0,1,.4.087c.032.031.105.141.105.488v.724c0,.605-.169.713-.642.713H412.434l0,4.412h16.642c2.855,0,4.245-1.35,4.246-4.127v-2.1a4.289,4.289,0,0,0-1.091-3.176,4.483,4.483,0,0,0-3.266-1.089H417.949c-.315,0-.406-.066-.426-.086s-.1-.125-.1-.489v-.611c0-.555.108-.668.642-.668h14.874l0-4.412H416.665C413.864,303.063,412.442,304.452,412.44,307.19Z" transform="translate(-412.432 -283.109)"/>
      <path id="Path_920" data-name="Path 920" d="M490.042,303.063l.027,4.48h7.1l-.038,12.281h4.986l-.094-12.281h7.39l.105-4.48Z" transform="translate(-467.109 -283.109)"/>
      <path id="Path_921" data-name="Path 921" d="M578.247,303.063h-10.7c-3.516,0-5.376,1.951-5.379,5.643l0,5.36a5.914,5.914,0,0,0,1.483,4.376,5.484,5.484,0,0,0,4.005,1.382h10.7c3.552,0,5.354-1.9,5.356-5.643l0-5.36a5.878,5.878,0,0,0-1.462-4.4A5.487,5.487,0,0,0,578.247,303.063Zm.456,6,0,4.636c0,1.015-.335,1.392-1.231,1.392h-9.16a1.184,1.184,0,0,1-.836-.233,1.481,1.481,0,0,1-.274-1.043l0-4.636c0-1.044.323-1.414,1.23-1.414h9.159a1.179,1.179,0,0,1,.839.229A1.537,1.537,0,0,1,578.7,309.067Z" transform="translate(-517.922 -283.109)"/>
      <path id="Path_922" data-name="Path 922" d="M658.593,303.063H641.888l0,4.412h15.533c.323,0,.4.062.415.075s.086.1.086.478l0,2.872c0,.781-.22.781-.619.781H641.881l-.005,8.144h5.009l0-3.8H658.7c2.959,0,4.223-1.322,4.225-4.421l0-4.3a4.234,4.234,0,0,0-1.072-3.172A4.427,4.427,0,0,0,658.593,303.063Z" transform="translate(-574.079 -283.109)"/>
      <g id="Group_1214" data-name="Group 1214" transform="translate(0.204)">
        <path id="Path_923" data-name="Path 923" d="M498.114,252.293h10.7c3.552,0,5.354-1.9,5.356-5.643l0-5.36a5.879,5.879,0,0,0-1.463-4.4,5.487,5.487,0,0,0-4-1.36h-10.7c-3.516,0-5.376,1.951-5.379,5.643l0,5.36a5.913,5.913,0,0,0,1.483,4.376A5.484,5.484,0,0,0,498.114,252.293Zm-.456-6,0-4.636c0-1.044.323-1.414,1.23-1.414h9.16a1.177,1.177,0,0,1,.838.228,1.539,1.539,0,0,1,.273,1.07l0,4.636c0,1.015-.334,1.392-1.23,1.392h-9.16a1.184,1.184,0,0,1-.836-.233A1.485,1.485,0,0,1,497.658,246.289Z" transform="translate(-469.134 -235.533)"/>
        <path id="Path_924" data-name="Path 924" d="M651.593,252.294H656.6l0-5.349,10.845-11.412h-6.47l-6.862,7.246-6.873-7.246h-6.506L651.6,246.818Z" transform="translate(-573.482 -235.533)"/>
        <path id="Path_925" data-name="Path 925" d="M434.78,248.166v-1.425a3.593,3.593,0,0,0-1.234-3.011,3.917,3.917,0,0,0,1.012-2.983v-.972a4.261,4.261,0,0,0-1.086-3.159,4.459,4.459,0,0,0-3.25-1.084h-17.09l0,4.412h15.918c.34,0,.425.066.437.079s.087.1.087.473v.61c0,.4-.039.645-.8.645H413.129l0,4.1h15.941c.433,0,.587.1.633.15a.5.5,0,0,1,.094.357v.814c0,.615-.152.713-.641.713H413.125l0,4.412h17.455C433.4,252.293,434.779,250.944,434.78,248.166Z" transform="translate(-413.123 -235.533)"/>
        <path id="Path_926" data-name="Path 926" d="M592.233,237.069a5.8,5.8,0,0,0-4.243-1.536H572.346l0,4.706H587.4a1.4,1.4,0,0,1,1.024.316,2.512,2.512,0,0,1,.449,1.752l0,3.618c0,.985-.365,1.641-2.136,1.641h-9.39l0-4.757h-5.009l-.006,9.485H588.1c3.675,0,5.784-2.172,5.785-5.959l0-4.636A6.32,6.32,0,0,0,592.233,237.069Z" transform="translate(-525.29 -235.533)"/>
      </g>
    </g>
    <g id="Group_1216" data-name="Group 1216" transform="translate(0)">
      <path id="Path_927" data-name="Path 927" d="M172.829,202.647l-6.081-3.511-8.266,4.827,33.129,19.127-27.059,15.967-17.862-10.328,18.447,20.318,43.1-25.958-17.662-10.2,17.662-10.2-41.368-23.884-17.431,19.516,17.309-9.986,9.3,5.367,15.567,8.988-9.349,5.4-4.342,2.553-5.014-2.848Z" transform="translate(-135.841 -178.812)"/>
      <path id="Path_928" data-name="Path 928" d="M109.972,255.552l36.786,21.854-8.266,4.827-6.081-3.583-.325-5.63Z" transform="translate(-109.972 -232.876)"/>
    </g>
  </g>
</svg>
