<svg id="Group_1177" data-name="Group 1177" xmlns="http://www.w3.org/2000/svg" width="183.545" height="81.771" viewBox="0 0 183.545 81.771">
  <path id="Path_640" data-name="Path 640" d="M492.556,1219.246c-.107.518-1.378,1.4-2.089,1.7s-.153.722.067.837a1.321,1.321,0,0,0,1.555-.637.732.732,0,0,1,1.367.444c-.044.682-1.228.7-2.011.923s1.154.441,2.628.5,1.753-.9,1.639-1.621.515-.354.956-.45.374-.035.371-.826.871-1.324,1.462-1.731.436-.611-.349-.794-1.995-.66-2.823-.931-1.323-.189-2.893.525-3.812,1.709-3.812,1.709c-.734.327-.527.536-.527.536,1.182,1.047,2.729.01,3.436-.189S492.663,1218.728,492.556,1219.246Z" transform="translate(-460.644 -1179.464)"/>
  <path id="Path_641" data-name="Path 641" d="M448.832,1226.158a1.345,1.345,0,0,1,.759-.937c.027-.012.054-.025.079-.039a.2.2,0,0,0,.063-.044c.395-.295.346-.9.295-1.54a5.821,5.821,0,0,1-.025-1.012,3.639,3.639,0,0,0-.753-2.707,1.207,1.207,0,0,0-1.014-.358,2.464,2.464,0,0,0-1.815,1.523.2.2,0,0,0,.3.232,2.912,2.912,0,0,1,1.267-.546.66.66,0,0,1,.444.264,2.272,2.272,0,0,1,.545,1.625l-.014.1a5.054,5.054,0,0,0-.1,1.391.385.385,0,0,1-.071.312.6.6,0,0,1-.5.076.92.92,0,0,0-.907.326,1.176,1.176,0,0,0-.1,1.177l.055.134a3.014,3.014,0,0,0,2.541,2.1c.011,0,.021,0,.031,0a.2.2,0,0,0,.187-.12.2.2,0,0,0-.063-.239C449.208,1227.248,448.791,1226.654,448.832,1226.158Z" transform="translate(-431.523 -1181.556)"/>
  <path id="Path_642" data-name="Path 642" d="M445.2,1150.594l6.913-1.448a15.982,15.982,0,0,0-3.287-3.39l-4.731.86,3.8-1.507a39.818,39.818,0,0,0-3.63-2.167q-.673-.373-1.339-.708c-.447-2.141-2.1-4.811-2.533-6.876-.29-1.4,1.076-3.023,1.076-3.023a3.3,3.3,0,0,0,.374-2.463,13.852,13.852,0,0,1-.258-2.569s7.512-.73,8.94-4.937-9.9-2-9.9-2-1.508-13.329-.841-21.019a2.508,2.508,0,0,0-1.01-2.941c-1.7-1.124-16.909-6.786-30.838,1.228,0,0-2.05.95-1.527,2.858s2.568,8.9,1.555,16.336c0,0-14.933,3.266-8.084,9.959a16.6,16.6,0,0,0,4.855,2.182,24.221,24.221,0,0,0,1.167,7.248c-.3.049-.638.113-1.035.208a13.422,13.422,0,0,0-4.246,1.668l8.2,4.488s-6.8-3.072-8.938-3.948a5.385,5.385,0,0,0-1.168,1.336,6.767,6.767,0,0,0-.457.976l10.562,4.128-10.929-3.016c-1.284,4.554-1.405,13.109.593,18.279a21.362,21.362,0,0,1,5.268,5.754,8.878,8.878,0,0,1,6.971,4.033s5.318-.1,7.9,3.53c0,0,7.459-1.922,12.644,1.537a20.636,20.636,0,0,1,11.19-2.252s4.456-5.274,7.849-5.475a1.59,1.59,0,0,0,.122-.246,14.787,14.787,0,0,0,.673-1.749c1.263-3.565,3.1-10.975,1.883-14.752Zm-23.8-30.451a21.353,21.353,0,0,0-2.982-3.3c-.064-.044-.1-.054-.168-.095-3.951-1.118-7.589-6.348-8.21-8.677-.375-1.412.324-1.875.983-1.1.613.726,4.956,4.731,8.4,8.872,1.66,1.68,3.4,3.375,4.924,4.822q1.219.254,2.565.6c-2.375-3.545-4.587-6.678-5.185-7.022a3.088,3.088,0,0,0-2.531-.466.2.2,0,0,1-.26-.082c-.672-1.019-5.19-8-5.19-8l.023-.034.038-.012,4.924,5.911a.126.126,0,0,0,.171.023.122.122,0,0,0,.025-.169l-4.26-6.406.025-.037.041-.013,4.942,5.893s.078.095.164.029.015-.166.015-.166l-4.27-6.394.023-.039.042-.01,4.955,5.884a.122.122,0,1,0,.194-.146l-4.293-6.384.022-.033.039-.013s5.438,6.294,6.226,7.225a.206.206,0,0,1,.007.273,3.077,3.077,0,0,0-.262,2.56c.182.751,3.158,4.431,6.289,8.14.314.088.628.177.951.271,12.933,3.808,16.947.36,17.237.09-3.429,3.379-8.806,4.071-21.773.51-12.475-3.428-15.673-.422-15.908-.178C410.959,1120.675,414.144,1119.1,421.4,1120.143Zm-21.377,27.4c-1.364,2.6-.921,10.2-.921,10.2a29.962,29.962,0,0,1-.16-11.356c3.325.557,13.365,2.993,13.365,2.993Zm3.275,15.446c-.72-3.673-.112-10.329-.112-10.329l11.63-.615-10.469,1.637C403.539,1154.8,403.3,1162.984,403.3,1162.984Zm6.92,4.9c-1.008-3.35-.545-11.1-.545-11.1l8.741-2.58-7.181,3.356C410.175,1160.647,410.22,1167.887,410.22,1167.887Zm10.221-7.408c-1.791,4.587-1.711,11.238-1.711,11.238-1.79-7.189-.571-11.555-.571-11.555l4.637-3.488Zm11.005,12.476a100.3,100.3,0,0,0,.571-11.732l-.164-2.953,2.57,2.6C434.012,1165.768,431.447,1172.955,431.447,1172.955Zm-5.372-26.8a4.765,4.765,0,0,0,3.059,2.461c2.322.863,5.318-1.634,7.012-2.64s1.472,1.7.947,2.09a10.385,10.385,0,0,1-3.519.748c-1.184.111-.792,1.163-.242,1.4s1.623.037,3.2-.144,2.487,4.128-1.784,5.1-6.454-3.928-6.454-3.928a4.264,4.264,0,0,0-1.309,2.131c-2.436-.935-6.637-4.334-6.637-4.334a4.181,4.181,0,0,0,.526,2.026,9.887,9.887,0,0,1-5.385-8.363c-3.858-.2-5.712-6.2-5.895-8.255s.795-6.588,4.165-4.716,2.684,6.886,2.513,8.836,1.268,1.835,1.268,1.835a18.27,18.27,0,0,0,.611,2.893.593.593,0,0,0,1.153-.1,44.166,44.166,0,0,1,1.808-7.292c1.659-5.243.208-8.652.208-8.652-.568-3.005,2.356-.823,2.356-.823a17.89,17.89,0,0,0,15.553,1.254c.5,1.711.741,2.732-.815,4.226s.705,6.452,1.724,8.762-2.182,2.8-4.179.918-4.841.625-6.062,2.618a2.759,2.759,0,0,1-3.079,1.035A.665.665,0,0,0,426.075,1146.159Zm15.564,25.158c.505-5.009.471-11.318.471-11.318l-2.458-2.719,4.421,1.564C444.364,1163.127,441.639,1171.317,441.639,1171.317Zm7.886-5.625c-.022.058-.038.1-.038.1.013-.034.025-.066.038-.1.243-.641.945-4.337.762-10.113l-7.267-1.469,8.557.3A27.28,27.28,0,0,1,449.524,1165.692Z" transform="translate(-396.955 -1093.414)"/>
  <path id="Path_643" data-name="Path 643" d="M626.826,1312.083a.164.164,0,0,0-.076.018.32.32,0,0,0-.068.046,2.136,2.136,0,0,1-.292.226,1.6,1.6,0,0,1-.314.154,1.9,1.9,0,0,1-.364.091,3.059,3.059,0,0,1-.446.029,1.942,1.942,0,0,1-.759-.148,1.739,1.739,0,0,1-.612-.432,2.038,2.038,0,0,1-.408-.691,2.72,2.72,0,0,1-.148-.932,2.823,2.823,0,0,1,.142-.926,1.962,1.962,0,0,1,.4-.692,1.733,1.733,0,0,1,.614-.432,2,2,0,0,1,.784-.15,2.067,2.067,0,0,1,.608.076,2.137,2.137,0,0,1,.41.17,2.575,2.575,0,0,1,.268.17.32.32,0,0,0,.178.076.2.2,0,0,0,.11-.028.234.234,0,0,0,.07-.072l.28-.4a2.739,2.739,0,0,0-.828-.532,2.778,2.778,0,0,0-1.088-.2,2.957,2.957,0,0,0-1.146.216,2.6,2.6,0,0,0-.89.6,2.73,2.73,0,0,0-.578.928,3.308,3.308,0,0,0-.206,1.188,3.46,3.46,0,0,0,.2,1.188,2.717,2.717,0,0,0,.554.928,2.5,2.5,0,0,0,.864.6,2.856,2.856,0,0,0,1.13.216,2.95,2.95,0,0,0,1.218-.228,2.4,2.4,0,0,0,.858-.644l-.336-.368A.166.166,0,0,0,626.826,1312.083Z" transform="translate(-554.587 -1243.065)"/>
  <path id="Path_644" data-name="Path 644" d="M653.244,1311.194a1.962,1.962,0,0,1-.1.642,1.452,1.452,0,0,1-.288.5,1.282,1.282,0,0,1-.46.326,1.692,1.692,0,0,1-1.232,0,1.286,1.286,0,0,1-.46-.326,1.431,1.431,0,0,1-.286-.5,2,2,0,0,1-.1-.644v-3.472h-.852v3.476a2.638,2.638,0,0,0,.16.932,2.131,2.131,0,0,0,.46.74,2.1,2.1,0,0,0,.728.488,2.727,2.727,0,0,0,1.928,0,2.1,2.1,0,0,0,.728-.488,2.13,2.13,0,0,0,.46-.74,2.634,2.634,0,0,0,.16-.932v-3.476h-.848Z" transform="translate(-573.461 -1243.212)"/>
  <rect id="Rectangle_409" data-name="Rectangle 409" width="0.856" height="5.744" transform="translate(84.498 64.506)"/>
  <path id="Path_645" data-name="Path 645" d="M695.39,1310.535a1.775,1.775,0,0,0-.436-.282,5.109,5.109,0,0,0-.5-.2l-.5-.166a2.41,2.41,0,0,1-.436-.188,1.011,1.011,0,0,1-.31-.26.607.607,0,0,1-.118-.384.842.842,0,0,1,.066-.334.759.759,0,0,1,.194-.268.938.938,0,0,1,.318-.18,1.346,1.346,0,0,1,.442-.066,1.423,1.423,0,0,1,.46.066,1.8,1.8,0,0,1,.33.148q.138.082.23.148a.3.3,0,0,0,.164.066.185.185,0,0,0,.112-.032.326.326,0,0,0,.084-.1l.208-.4a2.061,2.061,0,0,0-.706-.441,2.485,2.485,0,0,0-.89-.155,2.06,2.06,0,0,0-.768.134,1.72,1.72,0,0,0-.566.356,1.5,1.5,0,0,0-.35.51,1.529,1.529,0,0,0-.12.6,1.6,1.6,0,0,0,.116.646,1.266,1.266,0,0,0,.308.436,1.623,1.623,0,0,0,.436.282,4.945,4.945,0,0,0,.5.19l.5.158a2.286,2.286,0,0,1,.436.184.952.952,0,0,1,.308.268.688.688,0,0,1,.116.412,1.05,1.05,0,0,1-.076.408.865.865,0,0,1-.218.314.97.97,0,0,1-.35.2,1.472,1.472,0,0,1-.472.07,1.521,1.521,0,0,1-.55-.088,2.069,2.069,0,0,1-.388-.194q-.162-.106-.272-.194a.333.333,0,0,0-.194-.088.208.208,0,0,0-.114.032.334.334,0,0,0-.086.08l-.244.408a2.159,2.159,0,0,0,.362.31,2.489,2.489,0,0,0,.434.236,2.672,2.672,0,0,0,.492.152,2.64,2.64,0,0,0,.536.054,2.235,2.235,0,0,0,.822-.142,1.765,1.765,0,0,0,.61-.39,1.675,1.675,0,0,0,.378-.58,1.933,1.933,0,0,0,.13-.712,1.388,1.388,0,0,0-.117-.6A1.3,1.3,0,0,0,695.39,1310.535Z" transform="translate(-603.229 -1243.063)"/>
  <rect id="Rectangle_410" data-name="Rectangle 410" width="0.856" height="5.744" transform="translate(96.161 64.506)"/>
  <path id="Path_646" data-name="Path 646" d="M736.3,1311.631c0,.063,0,.132.006.206s.01.148.018.226l-3.252-4.2a.367.367,0,0,0-.124-.118.4.4,0,0,0-.168-.026h-.44v5.744h.748v-3.94c0-.061,0-.127-.006-.2s-.009-.14-.014-.212l3.244,4.2a.49.49,0,0,0,.134.116.344.344,0,0,0,.166.036h.432v-5.744H736.3Z" transform="translate(-631.39 -1243.213)"/>
  <path id="Path_647" data-name="Path 647" d="M761.914,1310.9h2.176v-.668h-2.176v-1.82h2.7v-.692h-3.56v5.744h3.56l0-.692h-2.708Z" transform="translate(-651.462 -1243.213)"/>
  <path id="Path_648" data-name="Path 648" d="M801.047,1311.28h-.636v1.692h-1.6v.592h1.6v1.7h.636v-1.7h1.612v-.592h-1.612Z" transform="translate(-677.849 -1245.702)"/>
  <path id="Path_649" data-name="Path 649" d="M841.915,1312.083a.164.164,0,0,0-.076.018.312.312,0,0,0-.068.046,2.164,2.164,0,0,1-.292.226,1.6,1.6,0,0,1-.314.154,1.907,1.907,0,0,1-.364.091,3.057,3.057,0,0,1-.445.029,1.943,1.943,0,0,1-.76-.148,1.73,1.73,0,0,1-.612-.432,2.031,2.031,0,0,1-.408-.691,2.722,2.722,0,0,1-.148-.932,2.821,2.821,0,0,1,.141-.926,1.961,1.961,0,0,1,.4-.692,1.732,1.732,0,0,1,.614-.432,2,2,0,0,1,.784-.15,2.066,2.066,0,0,1,.608.076,2.133,2.133,0,0,1,.41.17,2.575,2.575,0,0,1,.268.17.319.319,0,0,0,.178.076.2.2,0,0,0,.11-.028.229.229,0,0,0,.07-.072l.28-.4a2.74,2.74,0,0,0-.828-.532,2.778,2.778,0,0,0-1.088-.2,2.958,2.958,0,0,0-1.146.216,2.6,2.6,0,0,0-.889.6,2.731,2.731,0,0,0-.578.928,3.308,3.308,0,0,0-.206,1.188,3.46,3.46,0,0,0,.2,1.188,2.725,2.725,0,0,0,.554.928,2.5,2.5,0,0,0,.864.6,2.855,2.855,0,0,0,1.13.216,2.951,2.951,0,0,0,1.218-.228,2.4,2.4,0,0,0,.858-.644l-.336-.368A.166.166,0,0,0,841.915,1312.083Z" transform="translate(-704.933 -1243.065)"/>
  <path id="Path_650" data-name="Path 650" d="M868.332,1311.194a1.954,1.954,0,0,1-.1.642,1.442,1.442,0,0,1-.288.5,1.286,1.286,0,0,1-.46.326,1.692,1.692,0,0,1-1.232,0,1.283,1.283,0,0,1-.46-.326,1.427,1.427,0,0,1-.286-.5,2.015,2.015,0,0,1-.1-.644v-3.472h-.852v3.476a2.628,2.628,0,0,0,.16.932,2.074,2.074,0,0,0,1.188,1.228,2.728,2.728,0,0,0,1.928,0,2.107,2.107,0,0,0,.728-.488,2.13,2.13,0,0,0,.459-.74,2.63,2.63,0,0,0,.161-.932v-3.476h-.848Z" transform="translate(-723.807 -1243.212)"/>
  <path id="Path_651" data-name="Path 651" d="M893.618,1307.719h-.852v5.744h3.288v-.716h-2.436Z" transform="translate(-743.526 -1243.213)"/>
  <path id="Path_652" data-name="Path 652" d="M910.4,1308.431h1.831v5.032h.848v-5.032H914.9v-.712h-4.5Z" transform="translate(-755.852 -1243.213)"/>
  <path id="Path_653" data-name="Path 653" d="M940.02,1311.194a1.953,1.953,0,0,1-.1.642,1.448,1.448,0,0,1-.288.5,1.287,1.287,0,0,1-.46.326,1.692,1.692,0,0,1-1.232,0,1.274,1.274,0,0,1-.459-.326,1.417,1.417,0,0,1-.286-.5,2.017,2.017,0,0,1-.1-.644v-3.472h-.852v3.476a2.637,2.637,0,0,0,.16.932,2.128,2.128,0,0,0,.46.74,2.1,2.1,0,0,0,.728.488,2.728,2.728,0,0,0,1.928,0,2.071,2.071,0,0,0,1.187-1.228,2.634,2.634,0,0,0,.161-.932v-3.476h-.848Z" transform="translate(-773.917 -1243.212)"/>
  <path id="Path_654" data-name="Path 654" d="M967.991,1311.194a1.962,1.962,0,0,1-.1.642,1.456,1.456,0,0,1-.288.5,1.279,1.279,0,0,1-.46.326,1.692,1.692,0,0,1-1.232,0,1.284,1.284,0,0,1-.459-.326,1.42,1.42,0,0,1-.286-.5,2.018,2.018,0,0,1-.1-.644v-3.472h-.852v3.476a2.635,2.635,0,0,0,.16.932,2.132,2.132,0,0,0,.46.74,2.1,2.1,0,0,0,.728.488,2.728,2.728,0,0,0,1.928,0,2.107,2.107,0,0,0,.728-.488,2.133,2.133,0,0,0,.46-.74,2.634,2.634,0,0,0,.16-.932v-3.476h-.848Z" transform="translate(-793.469 -1243.212)"/>
  <path id="Path_655" data-name="Path 655" d="M994.84,1310.958a2.152,2.152,0,0,0,.58-.232,1.711,1.711,0,0,0,.434-.362,1.479,1.479,0,0,0,.27-.474,1.795,1.795,0,0,0-.034-1.228,1.285,1.285,0,0,0-.388-.506,1.845,1.845,0,0,0-.664-.324,3.541,3.541,0,0,0-.958-.114h-1.656v5.744h.852v-2.356h.556a.534.534,0,0,1,.24.042.427.427,0,0,1,.148.142l1.419,1.992a.355.355,0,0,0,.332.18h.76l-1.616-2.235A.877.877,0,0,0,994.84,1310.958Zm-.788-.472h-.776v-2.1h.8a1.583,1.583,0,0,1,.978.252.887.887,0,0,1,.326.748,1.154,1.154,0,0,1-.084.446.934.934,0,0,1-.252.348,1.174,1.174,0,0,1-.418.226A1.89,1.89,0,0,1,994.052,1310.486Z" transform="translate(-813.187 -1243.212)"/>
  <path id="Path_656" data-name="Path 656" d="M630.528,1165.531a4.993,4.993,0,0,0,1.708-.923,3.951,3.951,0,0,0,1.055-1.4,4.224,4.224,0,0,0,.362-1.744,3.008,3.008,0,0,0-.723-2.091,4.229,4.229,0,0,0-2.234-1.163,4.9,4.9,0,0,0,1.163-.571,3.4,3.4,0,0,0,.8-.75,2.9,2.9,0,0,0,.459-.883,3.251,3.251,0,0,0,.148-.979,4.221,4.221,0,0,0-.306-1.641,3.02,3.02,0,0,0-.974-1.249,4.817,4.817,0,0,0-1.724-.8,10.057,10.057,0,0,0-2.544-.28h-5.252v14.8H628.2A7.536,7.536,0,0,0,630.528,1165.531Zm-5-12.141h2.192a5,5,0,0,1,1.111.107,1.98,1.98,0,0,1,.776.341,1.4,1.4,0,0,1,.454.622,2.659,2.659,0,0,1,.148.939,2.183,2.183,0,0,1-.178.923,1.536,1.536,0,0,1-.516.617,2.306,2.306,0,0,1-.836.342,5.525,5.525,0,0,1-1.141.106h-2.01Zm0,10.127v-4.049h2.6a4.413,4.413,0,0,1,1.166.133,2.031,2.031,0,0,1,.77.382,1.444,1.444,0,0,1,.43.607,2.332,2.332,0,0,1,.133.807,2.852,2.852,0,0,1-.112.79,1.636,1.636,0,0,1-.4.677,2.022,2.022,0,0,1-.759.475,3.5,3.5,0,0,1-1.209.179Z" transform="translate(-554.587 -1133.711)"/>
  <path id="Path_657" data-name="Path 657" d="M691.175,1152.69a7.1,7.1,0,0,0-2.391-1.591,8.63,8.63,0,0,0-6.2,0,7.193,7.193,0,0,0-2.4,1.586,7.019,7.019,0,0,0-1.544,2.391,8.539,8.539,0,0,0,0,6.012,7.01,7.01,0,0,0,1.544,2.4,7.207,7.207,0,0,0,2.4,1.586,8.625,8.625,0,0,0,6.2,0,7.134,7.134,0,0,0,2.391-1.586,7.046,7.046,0,0,0,1.54-2.4,8.528,8.528,0,0,0,0-6A7.117,7.117,0,0,0,691.175,1152.69Zm-1.351,7.485a4.347,4.347,0,0,1-.882,1.565,3.82,3.82,0,0,1-1.4.984,5.254,5.254,0,0,1-3.728,0,3.814,3.814,0,0,1-1.4-.984,4.373,4.373,0,0,1-.882-1.565,7.325,7.325,0,0,1,0-4.182,4.429,4.429,0,0,1,.882-1.569,3.79,3.79,0,0,1,1.4-.991,5.268,5.268,0,0,1,3.728,0,3.8,3.8,0,0,1,1.4.991,4.4,4.4,0,0,1,.882,1.569,7.3,7.3,0,0,1,0,4.182Z" transform="translate(-593.471 -1133.333)"/>
  <path id="Path_658" data-name="Path 658" d="M754.742,1158.13a4.353,4.353,0,0,0-1.075-.743,10.874,10.874,0,0,0-1.235-.516c-.421-.145-.832-.281-1.234-.4a6.985,6.985,0,0,1-1.075-.418,2.516,2.516,0,0,1-.765-.556,1.159,1.159,0,0,1-.291-.81,1.583,1.583,0,0,1,.53-1.24,2.325,2.325,0,0,1,1.591-.473,3.166,3.166,0,0,1,1.051.158,5.982,5.982,0,0,1,.795.341c.232.122.434.236.607.342a.938.938,0,0,0,.484.158.645.645,0,0,0,.383-.106,1.191,1.191,0,0,0,.291-.342l.753-1.438a5.554,5.554,0,0,0-1.922-1.147,7.193,7.193,0,0,0-2.474-.413,5.7,5.7,0,0,0-2.116.367,4.781,4.781,0,0,0-1.555.969,4.086,4.086,0,0,0-1.285,2.979,4.492,4.492,0,0,0,.29,1.723,3.574,3.574,0,0,0,.761,1.163,3.746,3.746,0,0,0,1.071.755,10.062,10.062,0,0,0,1.234.49c.421.135.832.26,1.234.372a5.977,5.977,0,0,1,1.071.4,2.353,2.353,0,0,1,.759.582,1.365,1.365,0,0,1,.291.908,1.789,1.789,0,0,1-.587,1.458,2.518,2.518,0,0,1-1.658.49,3.47,3.47,0,0,1-1.259-.2,5.669,5.669,0,0,1-.923-.448c-.265-.163-.5-.312-.7-.449a1.061,1.061,0,0,0-.581-.2.76.76,0,0,0-.387.107.918.918,0,0,0-.3.27l-.9,1.448a5.388,5.388,0,0,0,1,.8,7.381,7.381,0,0,0,1.219.611,7.954,7.954,0,0,0,1.345.4,7.056,7.056,0,0,0,1.4.143,6.066,6.066,0,0,0,2.208-.378,4.707,4.707,0,0,0,1.636-1.034,4.483,4.483,0,0,0,1.015-1.541,5.04,5.04,0,0,0,.353-1.891,3.823,3.823,0,0,0-.291-1.576A3.405,3.405,0,0,0,754.742,1158.13Z" transform="translate(-640.671 -1133.333)"/>
  <path id="Path_659" data-name="Path 659" d="M801.556,1163.179a3.471,3.471,0,0,1-1.259-.2,5.671,5.671,0,0,1-.923-.448c-.265-.163-.5-.312-.7-.449a1.055,1.055,0,0,0-.581-.2.761.761,0,0,0-.387.107.916.916,0,0,0-.3.27l-.9,1.448a5.386,5.386,0,0,0,1,.8,7.4,7.4,0,0,0,1.22.611,7.984,7.984,0,0,0,1.345.4,7.054,7.054,0,0,0,1.4.143,6.064,6.064,0,0,0,2.208-.378,4.707,4.707,0,0,0,1.636-1.034,4.48,4.48,0,0,0,1.015-1.541,5.04,5.04,0,0,0,.352-1.891,3.824,3.824,0,0,0-.291-1.576,3.408,3.408,0,0,0-.765-1.1,4.362,4.362,0,0,0-1.075-.743,10.845,10.845,0,0,0-1.235-.516c-.421-.145-.832-.281-1.234-.4a7.015,7.015,0,0,1-1.075-.418,2.517,2.517,0,0,1-.765-.556,1.158,1.158,0,0,1-.291-.81,1.583,1.583,0,0,1,.53-1.24,2.325,2.325,0,0,1,1.591-.473,3.166,3.166,0,0,1,1.051.158,5.987,5.987,0,0,1,.795.341c.232.122.434.236.608.342a.935.935,0,0,0,.483.158.648.648,0,0,0,.384-.106,1.2,1.2,0,0,0,.291-.342l.753-1.438a5.547,5.547,0,0,0-1.922-1.147,7.191,7.191,0,0,0-2.474-.413,5.7,5.7,0,0,0-2.116.367,4.776,4.776,0,0,0-1.555.969,4.085,4.085,0,0,0-1.285,2.979,4.481,4.481,0,0,0,.291,1.723,3.583,3.583,0,0,0,.76,1.163,3.771,3.771,0,0,0,1.071.755,10.059,10.059,0,0,0,1.234.49c.42.135.832.26,1.233.372a5.975,5.975,0,0,1,1.071.4,2.351,2.351,0,0,1,.759.582,1.361,1.361,0,0,1,.291.908,1.789,1.789,0,0,1-.587,1.458A2.517,2.517,0,0,1,801.556,1163.179Z" transform="translate(-676.242 -1133.333)"/>
  <path id="Path_660" data-name="Path 660" d="M859.369,1161.844a.579.579,0,0,0-.265.062,1.171,1.171,0,0,0-.236.153,4.2,4.2,0,0,1-.646.489,3.481,3.481,0,0,1-.685.316,3.879,3.879,0,0,1-.784.174,8.129,8.129,0,0,1-.944.05,4.142,4.142,0,0,1-1.647-.33,3.823,3.823,0,0,1-1.345-.974,4.65,4.65,0,0,1-.908-1.576,6.355,6.355,0,0,1-.332-2.126,6.719,6.719,0,0,1,.306-2.112,4.492,4.492,0,0,1,.862-1.564,3.713,3.713,0,0,1,1.331-.975,4.235,4.235,0,0,1,1.7-.336,4.668,4.668,0,0,1,1.381.173,4.471,4.471,0,0,1,.908.389c.242.141.445.271.611.387a.867.867,0,0,0,.5.173.653.653,0,0,0,.387-.1.971.971,0,0,0,.235-.235l1.03-1.407a6.533,6.533,0,0,0-.965-.79,6.212,6.212,0,0,0-1.168-.617,7.5,7.5,0,0,0-1.361-.4,8.012,8.012,0,0,0-1.544-.143,8.125,8.125,0,0,0-2.056.25,7.044,7.044,0,0,0-1.78.724,6.687,6.687,0,0,0-1.462,1.147,7.086,7.086,0,0,0-1.106,1.509,7.387,7.387,0,0,0-.7,1.83,8.958,8.958,0,0,0-.24,2.1,8.864,8.864,0,0,0,.5,3.028,7.02,7.02,0,0,0,1.428,2.4,6.466,6.466,0,0,0,2.253,1.574,7.526,7.526,0,0,0,2.988.567,7.74,7.74,0,0,0,3.167-.592,5.758,5.758,0,0,0,2.228-1.732l-1.213-1.3A.567.567,0,0,0,859.369,1161.844Z" transform="translate(-712.546 -1133.334)"/>
  <path id="Path_661" data-name="Path 661" d="M912.544,1159.488h6.516v6.374h3.08v-14.8h-3.08v6.282h-6.516v-6.282h-3.081v14.8h3.081Z" transform="translate(-755.198 -1133.711)"/>
  <path id="Path_662" data-name="Path 662" d="M984.855,1153.461v-2.4h-9.422v14.8h9.422v-2.4h-6.343v-3.887h4.937v-2.314h-4.937v-3.8Z" transform="translate(-801.309 -1133.71)"/>
  <path id="Path_663" data-name="Path 663" d="M631.246,1232.52h-5.72v-12.31h-3.06v14.8h8.781Z" transform="translate(-554.586 -1182.044)"/>
  <path id="Path_664" data-name="Path 664" d="M860.789,1220.21h-3.06v14.8h8.781v-2.489h-5.72Z" transform="translate(-719.035 -1182.044)"/>
  <path id="Path_665" data-name="Path 665" d="M912.677,1228.375a3.409,3.409,0,0,0-.765-1.1,4.377,4.377,0,0,0-1.075-.744,10.8,10.8,0,0,0-1.235-.515q-.631-.219-1.234-.4a7.012,7.012,0,0,1-1.075-.418,2.52,2.52,0,0,1-.765-.556,1.157,1.157,0,0,1-.291-.81,1.583,1.583,0,0,1,.53-1.24,2.326,2.326,0,0,1,1.591-.473,3.163,3.163,0,0,1,1.051.158,6.012,6.012,0,0,1,.795.341c.232.122.434.237.608.342a.934.934,0,0,0,.484.158.642.642,0,0,0,.383-.106,1.181,1.181,0,0,0,.291-.342l.753-1.438a5.553,5.553,0,0,0-1.922-1.147,7.191,7.191,0,0,0-2.474-.413,5.7,5.7,0,0,0-2.116.366,4.8,4.8,0,0,0-1.555.969,4.09,4.09,0,0,0-1.285,2.979,4.492,4.492,0,0,0,.29,1.723,3.568,3.568,0,0,0,.761,1.163,3.738,3.738,0,0,0,1.071.755,10.075,10.075,0,0,0,1.234.49q.631.2,1.234.372a5.941,5.941,0,0,1,1.071.4,2.351,2.351,0,0,1,.759.581,1.365,1.365,0,0,1,.291.908,1.787,1.787,0,0,1-.587,1.457,2.514,2.514,0,0,1-1.658.491,3.475,3.475,0,0,1-1.259-.2,5.753,5.753,0,0,1-.923-.448c-.265-.163-.5-.312-.7-.449a1.06,1.06,0,0,0-.581-.2.761.761,0,0,0-.387.106.93.93,0,0,0-.3.27l-.9,1.448a5.319,5.319,0,0,0,1,.8,7.369,7.369,0,0,0,1.22.611,7.947,7.947,0,0,0,1.345.4,7.1,7.1,0,0,0,1.4.143,6.069,6.069,0,0,0,2.208-.378,4.709,4.709,0,0,0,1.636-1.034,4.49,4.49,0,0,0,1.015-1.541,5.039,5.039,0,0,0,.352-1.891A3.827,3.827,0,0,0,912.677,1228.375Z" transform="translate(-750.532 -1181.667)"/>
  <path id="Path_666" data-name="Path 666" d="M681.638,1224.235a6.98,6.98,0,0,0-3.931-3.988,8.629,8.629,0,0,0-6.2,0,7.186,7.186,0,0,0-2.4,1.586,7.023,7.023,0,0,0-1.544,2.391,8.539,8.539,0,0,0,0,6.012,7.009,7.009,0,0,0,1.544,2.4,7.209,7.209,0,0,0,2.4,1.586,8.626,8.626,0,0,0,6.2,0,7.142,7.142,0,0,0,2.391-1.586,7.057,7.057,0,0,0,1.54-2.4,8.521,8.521,0,0,0,0-6Zm-2.891,5.088a4.349,4.349,0,0,1-.883,1.565,3.821,3.821,0,0,1-1.4.984,5.246,5.246,0,0,1-3.728,0,3.816,3.816,0,0,1-1.4-.984,4.377,4.377,0,0,1-.883-1.565,7.323,7.323,0,0,1,0-4.182,4.436,4.436,0,0,1,.883-1.569,3.772,3.772,0,0,1,1.4-.989,5.246,5.246,0,0,1,3.728,0,3.777,3.777,0,0,1,1.4.989,4.407,4.407,0,0,1,.883,1.569,7.3,7.3,0,0,1,0,4.182Z" transform="translate(-585.729 -1181.667)"/>
  <path id="Path_667" data-name="Path 667" d="M746.512,1230.991a.574.574,0,0,0-.265.062,1.176,1.176,0,0,0-.236.154,4.166,4.166,0,0,1-.647.488,3.452,3.452,0,0,1-.684.317,3.988,3.988,0,0,1-.785.174,8.144,8.144,0,0,1-.944.05,4.143,4.143,0,0,1-1.647-.331,3.82,3.82,0,0,1-1.345-.974,4.659,4.659,0,0,1-.908-1.575,6.368,6.368,0,0,1-.331-2.127,6.723,6.723,0,0,1,.306-2.112,4.489,4.489,0,0,1,.861-1.564,3.718,3.718,0,0,1,1.331-.975,4.238,4.238,0,0,1,1.7-.336,4.693,4.693,0,0,1,1.382.172,4.446,4.446,0,0,1,.908.389c.242.141.445.271.611.387a.869.869,0,0,0,.5.173.648.648,0,0,0,.387-.1.964.964,0,0,0,.235-.235l1.03-1.407a6.608,6.608,0,0,0-.964-.791,6.23,6.23,0,0,0-1.168-.616,7.509,7.509,0,0,0-1.361-.4,7.993,7.993,0,0,0-1.545-.143,8.155,8.155,0,0,0-2.055.249,7.07,7.07,0,0,0-1.78.724,6.7,6.7,0,0,0-1.462,1.148,7.062,7.062,0,0,0-1.107,1.509,7.407,7.407,0,0,0-.7,1.83,9.358,9.358,0,0,0,.26,5.125,7.024,7.024,0,0,0,1.428,2.4,6.467,6.467,0,0,0,2.253,1.574,7.532,7.532,0,0,0,2.988.566,7.746,7.746,0,0,0,3.167-.592,5.768,5.768,0,0,0,2.228-1.732l-1.213-1.3A.567.567,0,0,0,746.512,1230.991Z" transform="translate(-633.659 -1181.668)"/>
  <path id="Path_668" data-name="Path 668" d="M799.762,1220.213h-3.131l-5.783,14.8h2.4a.979.979,0,0,0,.642-.209,1.175,1.175,0,0,0,.358-.464l1-2.826h5.895l1,2.826a1.146,1.146,0,0,0,.373.484,1.041,1.041,0,0,0,.647.189h2.375ZM796,1229.392l1.591-4.508q.143-.357.3-.841t.3-1.056q.143.561.3,1.041c.105.321.206.6.3.836l1.6,4.529Z" transform="translate(-672.285 -1182.046)"/>
</svg>
