<svg xmlns="http://www.w3.org/2000/svg" width="150.844" height="43.917" viewBox="0 0 150.844 43.917">
  <g id="Group_1178" data-name="Group 1178" transform="translate(0)">
    <path id="Path_511" data-name="Path 511" d="M254.458,284.448h21.958l-10.979-10.979H254.458Z" transform="translate(-254.458 -262.49)"/>
    <path id="Path_512" data-name="Path 512" d="M325.7,309.093V298.114H303.746l10.979,10.979Z" transform="translate(-281.788 -276.156)"/>
    <path id="Path_513" data-name="Path 513" d="M279.1,259.805h32.938V248.826H290.081Z" transform="translate(-268.123 -248.826)"/>
    <path id="Path_514" data-name="Path 514" d="M254.458,333.738h43.917L287.4,322.759H254.458Z" transform="translate(-254.458 -289.821)"/>
    <path id="Path_515" data-name="Path 515" d="M385.722,265.712a6.577,6.577,0,0,1,3.989-1.034,8.846,8.846,0,0,1,2.132.264,9.521,9.521,0,0,1,1.953.713,6.6,6.6,0,0,1,1.5.994l2.176-2.682a8.876,8.876,0,0,0-3.46-2.03,14.075,14.075,0,0,0-4.709-.792,11.421,11.421,0,0,0-4.873.965,7.4,7.4,0,0,0-3.168,2.648,6.8,6.8,0,0,0-1.1,3.8,6.362,6.362,0,0,0,1.131,3.668,7.589,7.589,0,0,0,3.341,2.618,13.138,13.138,0,0,0,5.291.965,11.635,11.635,0,0,0,4.364-.771,9.785,9.785,0,0,0,3.181-1.969l-2.114-2.884a12.579,12.579,0,0,1-1.831,1.146,8.652,8.652,0,0,1-1.942.7,9.726,9.726,0,0,1-2.264.246,7.38,7.38,0,0,1-2.584-.416,3.8,3.8,0,0,1-1.758-1.251,3.279,3.279,0,0,1-.637-2.052,3.366,3.366,0,0,1,1.381-2.843" transform="translate(-324.16 -255.655)"/>
    <path id="Path_516" data-name="Path 516" d="M438.876,271.486a1.349,1.349,0,0,1-.548,1.23,3.287,3.287,0,0,1-1.737.356h-5.15V269.9h5.153a3.589,3.589,0,0,1,1.7.324,1.123,1.123,0,0,1,.579,1.057Zm-2.48-7.148a2.718,2.718,0,0,1,1.458.346,1.148,1.148,0,0,1,.548,1.036v.2a1.471,1.471,0,0,1-.453,1.24,2.626,2.626,0,0,1-1.553.346H431.44v-3.169Zm6.683,7.841a3.731,3.731,0,0,0-.649-2.264,3.6,3.6,0,0,0-1.982-1.27A3.194,3.194,0,0,0,442.1,267.4a3.763,3.763,0,0,0,.421-1.879,3.251,3.251,0,0,0-.579-1.757A4.448,4.448,0,0,0,440,262.229a8.443,8.443,0,0,0-3.534-.63h-9.226v14.216h10.238a8.8,8.8,0,0,0,3.321-.521,3.635,3.635,0,0,0,1.767-1.341,3.245,3.245,0,0,0,.519-1.775" transform="translate(-350.263 -255.905)"/>
    <path id="Path_517" data-name="Path 517" d="M482.334,270.71a3.274,3.274,0,0,1-1.348,1.189,4.011,4.011,0,0,1-1.724.384h-4.031v-7.147h4.029a3.59,3.59,0,0,1,1.81.468,3.738,3.738,0,0,1,1.264,5.107m.809-8.143a8.07,8.07,0,0,0-3.881-.965h-8.234v14.214h8.232a8.342,8.342,0,0,0,3.814-.9,7.467,7.467,0,0,0,2.878-2.519,6.624,6.624,0,0,0,.035-7.229,7.651,7.651,0,0,0-2.845-2.6" transform="translate(-374.545 -255.911)"/>
    <path id="Path_518" data-name="Path 518" d="M519.79,276.681l3.405.02v-3.878H528v-3.148H523.2V265.8h-3.428l.008,3.878h-4.811v3.148h4.819Z" transform="translate(-398.907 -258.236)"/>
    <g id="Group_471" data-name="Group 471" transform="translate(55.569 23.724)">
      <path id="Path_519" data-name="Path 519" d="M390.272,308.944q-1.426-.589-3.558-1.24a20.663,20.663,0,0,1-2.379-.822c-.5-.223-.745-.471-.745-.74s.233-.494.7-.668a5.73,5.73,0,0,1,1.952-.265,6.994,6.994,0,0,1,2.641.527,11.957,11.957,0,0,1,2.489,1.381l2.178-2.68a7.441,7.441,0,0,0-1.747-1.128,12.374,12.374,0,0,0-2.542-.884,13.282,13.282,0,0,0-3.061-.343,10.58,10.58,0,0,0-3.729.579,5.137,5.137,0,0,0-2.3,1.554,3.347,3.347,0,0,0-.766,2.111,2.706,2.706,0,0,0,.918,2.04,7.458,7.458,0,0,0,2.187,1.413q1.272.548,3.252,1.218,1.271.426,1.973.7a5.289,5.289,0,0,1,1.166.607.926.926,0,0,1,.462.721c0,.271-.178.485-.529.641a3.949,3.949,0,0,1-1.54.232,8.038,8.038,0,0,1-3.256-.73A10.308,10.308,0,0,1,381,311.1l-1.812,2.945a7.819,7.819,0,0,0,1.96,1.37,12.2,12.2,0,0,0,2.791.994,14.517,14.517,0,0,0,3.353.376,12.541,12.541,0,0,0,3.341-.405,5.2,5.2,0,0,0,2.317-1.247,2.84,2.84,0,0,0,.851-2.1,3.3,3.3,0,0,0-1.056-2.477,7.929,7.929,0,0,0-2.478-1.6" transform="translate(-379.191 -302.078)"/>
      <path id="Path_520" data-name="Path 520" d="M430.815,307.275a1.658,1.658,0,0,1-.582,1.289,2.241,2.241,0,0,1-1.552.516h-4.742v-3.715h4.743a2.567,2.567,0,0,1,1.562.427,1.475,1.475,0,0,1,.571,1.259Zm2.123-3.99a5.483,5.483,0,0,0-2.834-.659H419.736V316.84h4.2v-5.017H430.1a5.479,5.479,0,0,0,2.834-.659,3.885,3.885,0,0,0,1.593-1.686,4.9,4.9,0,0,0,.486-2.121v-.243a4.944,4.944,0,0,0-.486-2.143,3.878,3.878,0,0,0-1.593-1.684" transform="translate(-401.673 -302.379)"/>
      <path id="Path_521" data-name="Path 521" d="M476.138,309.4a3.551,3.551,0,0,1-1.455,3.027,6.793,6.793,0,0,1-4.1,1.075,6.926,6.926,0,0,1-4.151-1.056,3.407,3.407,0,0,1-1.434-2.9v-.181a3.276,3.276,0,0,1,1.445-2.854,9,9,0,0,1,8.244-.01,3.114,3.114,0,0,1,1.455,2.7Zm-.29-6.286a15.215,15.215,0,0,0-10.519-.011,7.753,7.753,0,0,0-3.364,2.529,5.947,5.947,0,0,0-1.153,3.564v.2a6.506,6.506,0,0,0,1.165,3.767,7.835,7.835,0,0,0,3.373,2.681,12.763,12.763,0,0,0,5.229.985,12.928,12.928,0,0,0,5.3-.985,7.618,7.618,0,0,0,3.331-2.681,6.7,6.7,0,0,0,1.133-3.807v-.184a5.906,5.906,0,0,0-1.145-3.524,7.751,7.751,0,0,0-3.351-2.539" transform="translate(-424.449 -302.13)"/>
      <path id="Path_522" data-name="Path 522" d="M517.079,309.081v-3.716h5.15a1.951,1.951,0,0,1,1.227.386,1.5,1.5,0,0,1,.5,1.259v.2a1.591,1.591,0,0,1-1.724,1.867Zm9,2.083a3.89,3.89,0,0,0,1.595-1.686,4.962,4.962,0,0,0,.485-2.143v-.2A4.623,4.623,0,0,0,527.63,305a4.218,4.218,0,0,0-1.639-1.705,5.216,5.216,0,0,0-2.748-.668H512.877v14.215h4.2v-5.016h4.957l2.263,5.016h4.162l-2.922-5.465a4.346,4.346,0,0,0,.538-.211" transform="translate(-453.319 -302.381)"/>
    </g>
    <path id="Path_523" data-name="Path 523" d="M571.345,302.628H553.908v3.148h6.618v11.066h4.2V305.776h6.618Z" transform="translate(-420.502 -278.659)"/>
  </g>
</svg>
