<svg id="Group_1179" data-name="Group 1179" xmlns="http://www.w3.org/2000/svg" width="172.742" height="60.997" viewBox="0 0 172.742 60.997">
  <path id="Path_710" data-name="Path 710" d="M198.6,221.638l-14.238-3.808v51.114l14.312,3.831,27.472-7.724V214.1Zm-6.608,6.132,6.63,1.774,19.892-5.445v8.16L198.623,237.7l-6.63-1.774Zm16.577,34.3-9.947,2.8-6.629-1.776v-8.16l6.629,1.775,9.947-2.793Zm9.947-16.2-19.893,5.442-6.63-1.774v-8.16l6.63,1.774,19.893-5.442Z" transform="translate(-184.362 -214.098)"/>
  <g id="Group_452" data-name="Group 452" transform="translate(49.415 18.161)">
    <path id="Path_546" data-name="Path 546" d="M323.823,357.437l-2.911-7.9h-1.2l3.448,9.062h1.351l3.435-9.062h-1.2Z" transform="translate(-319.716 -318.256)"/>
    <path id="Path_547" data-name="Path 547" d="M345.987,355.7a6.745,6.745,0,0,0-2.377.376v.959a6.7,6.7,0,0,1,2.217-.368,3.677,3.677,0,0,1,1.182.146.9.9,0,0,1,.563.452,1.949,1.949,0,0,1,.16.883v.41H345.41a2.876,2.876,0,0,0-1.946.556,1.931,1.931,0,0,0-.633,1.522,1.787,1.787,0,0,0,.667,1.495,2.667,2.667,0,0,0,1.686.522,4.71,4.71,0,0,0,1.529-.222,2.533,2.533,0,0,0,1.057-.682l.091.765h.973v-4.366a2.275,2.275,0,0,0-.709-1.863A3.246,3.246,0,0,0,345.987,355.7Zm1.745,5.04a2.821,2.821,0,0,1-2.258.966,2.108,2.108,0,0,1-1.119-.243.9.9,0,0,1-.382-.827,1.137,1.137,0,0,1,.341-.9,1.74,1.74,0,0,1,1.119-.292h2.3Z" transform="translate(-334.391 -322.156)"/>
    <path id="Path_548" data-name="Path 548" d="M368.593,359.183a6.981,6.981,0,0,0-1.293-.508c-.5-.16-.853-.278-1.057-.361a1.1,1.1,0,0,1-.459-.3.732.732,0,0,1-.167-.507.652.652,0,0,1,.375-.646,3.053,3.053,0,0,1,1.272-.188,5.278,5.278,0,0,1,1.7.3v-1.017a6.153,6.153,0,0,0-1.891-.264,3.355,3.355,0,0,0-1.981.466,1.566,1.566,0,0,0-.633,1.362,1.684,1.684,0,0,0,.237.938,1.738,1.738,0,0,0,.64.563,10.235,10.235,0,0,0,1.1.438l.382.132a7.2,7.2,0,0,1,.911.327,1.215,1.215,0,0,1,.438.32.807.807,0,0,1,.16.521.731.731,0,0,1-.368.709,3.074,3.074,0,0,1-1.279.188,6.133,6.133,0,0,1-2.051-.334v1.008a4.749,4.749,0,0,0,.98.23,8.8,8.8,0,0,0,1.224.083q2.648,0,2.648-1.9a1.883,1.883,0,0,0-.215-.946A1.805,1.805,0,0,0,368.593,359.183Z" transform="translate(-348.124 -322.154)"/>
    <path id="Path_549" data-name="Path 549" d="M384.531,358.254a1.141,1.141,0,0,1-.285-.876v-3.845h1.78l.069-.911h-1.849v-2l-1.154.347v1.648h-1.008v.911h1.008v3.907a2.023,2.023,0,0,0,.514,1.473,1.97,1.97,0,0,0,1.48.521,3.3,3.3,0,0,0,1.188-.2v-.869a2.5,2.5,0,0,1-.8.139A1.4,1.4,0,0,1,384.531,358.254Z" transform="translate(-359.315 -318.945)"/>
    <path id="Path_550" data-name="Path 550" d="M399.4,355.695a3.53,3.53,0,0,0-2.232.577,2.2,2.2,0,0,0-.709,1.814,1.991,1.991,0,0,0,1.091,1.967,1.5,1.5,0,0,0-.771.514,1.284,1.284,0,0,0-.264.8,1.04,1.04,0,0,0,.459.918,2.438,2.438,0,0,0,1.384.319h1.772a1.94,1.94,0,0,1,.925.151.571.571,0,0,1,.257.521.6.6,0,0,1-.208.5,1.375,1.375,0,0,1-.632.216,9.155,9.155,0,0,1-1.2.056,10.3,10.3,0,0,1-1.369-.1,7.18,7.18,0,0,1-1.245-.278v.954a8.218,8.218,0,0,0,2.676.354,5.313,5.313,0,0,0,2.358-.4,1.385,1.385,0,0,0,.778-1.342,1.365,1.365,0,0,0-.535-1.168,2.494,2.494,0,0,0-1.536-.41h-1.835a1.627,1.627,0,0,1-.7-.1.37.37,0,0,1-.194-.361.68.68,0,0,1,.361-.584,1.736,1.736,0,0,1,.835-.257,7.311,7.311,0,0,0,.813.069,2.85,2.85,0,0,0,1.981-.6,2.257,2.257,0,0,0,.652-1.731,1.862,1.862,0,0,0-.6-1.467h1.207l.042-.785h-2.4A5.211,5.211,0,0,0,399.4,355.695Zm1.756,2.391a1.426,1.426,0,0,1-.389,1.141,2.186,2.186,0,0,1-1.369.319,2.227,2.227,0,0,1-1.384-.334,1.389,1.389,0,0,1-.4-1.126,1.462,1.462,0,0,1,.417-1.188,2.072,2.072,0,0,1,1.369-.361,2,2,0,0,1,1.355.368,1.543,1.543,0,0,1,.407,1.181Z" transform="translate(-368.439 -322.155)"/>
    <path id="Path_551" data-name="Path 551" d="M419.147,355.714c-2.224,0-3.336,1.154-3.336,3.476a3.676,3.676,0,0,0,.813,2.6,4.074,4.074,0,0,0,5.046,0,3.677,3.677,0,0,0,.806-2.6C422.475,356.868,421.37,355.714,419.147,355.714Zm1.682,5.374a2.691,2.691,0,0,1-3.362,0,3.839,3.839,0,0,1,.007-3.8,2.671,2.671,0,0,1,3.351,0,2.894,2.894,0,0,1,.5,1.907,2.928,2.928,0,0,1-.5,1.9Z" transform="translate(-380.722 -322.174)"/>
    <path id="Path_552" data-name="Path 552" d="M441.907,355.7a3.021,3.021,0,0,0-2.4.9,3.735,3.735,0,0,0-.786,2.551,3.551,3.551,0,0,0,.883,2.648,3.678,3.678,0,0,0,2.669.853,5.145,5.145,0,0,0,2.113-.382v-.9a5.023,5.023,0,0,1-1.883.348,4.672,4.672,0,0,1-1.474-.188,1.6,1.6,0,0,1-.834-.619,2.508,2.508,0,0,1-.319-1.2h4.935v-1.251a2.777,2.777,0,0,0-.737-2A2.885,2.885,0,0,0,441.907,355.7Zm1.87,3.177h-3.906a2.62,2.62,0,0,1,.452-1.71,2.014,2.014,0,0,1,1.606-.543,1.961,1.961,0,0,1,1.411.438,1.706,1.706,0,0,1,.438,1.265Z" transform="translate(-395.267 -322.157)"/>
    <path id="Path_553" data-name="Path 553" d="M465.287,351.692a3.684,3.684,0,0,0-1-.48,4.056,4.056,0,0,0-1.168-.15,2.879,2.879,0,0,0-2.266.9,3.882,3.882,0,0,0-.813,2.669,3.607,3.607,0,0,0,.771,2.565,2.942,2.942,0,0,0,2.232.813,3.681,3.681,0,0,0,1.3-.209,2.9,2.9,0,0,0,1.015-.632l.09.7h.988v-9.491h-1.154Zm0,4.588a2.538,2.538,0,0,1-1.947.8,2.1,2.1,0,0,1-1.661-.57,2.869,2.869,0,0,1-.486-1.877,3.176,3.176,0,0,1,.521-2.007,2.035,2.035,0,0,1,1.656-.639,2.776,2.776,0,0,1,1.918.667Z" transform="translate(-408.803 -317.52)"/>
    <path id="Path_554" data-name="Path 554" d="M325.508,279.887h12.053v-4.463H325.508v-7.076h13.641v-4.5H319.716v27.625h5.792Z" transform="translate(-319.716 -263.844)"/>
    <path id="Path_555" data-name="Path 555" d="M390.645,302.214l.215,1.932h5.366V283.813h-5.79v14.41a7.466,7.466,0,0,1-2.211,1.523,6.418,6.418,0,0,1-2.725.584,4.118,4.118,0,0,1-2.982-.946,3.974,3.974,0,0,1-.966-2.961v-12.61h-5.79v12.742a8.193,8.193,0,0,0,2.016,5.964,7.649,7.649,0,0,0,5.714,2.058A11.1,11.1,0,0,0,390.645,302.214Z" transform="translate(-355.301 -276.523)"/>
    <path id="Path_556" data-name="Path 556" d="M504.408,298.224a7.376,7.376,0,0,1-2.211,1.523,6.4,6.4,0,0,1-2.717.583,4.094,4.094,0,0,1-2.983-.946,4,4,0,0,1-.966-2.961V283.813h-5.79v12.742a8.171,8.171,0,0,0,2.015,5.964,7.606,7.606,0,0,0,5.707,2.058,11.113,11.113,0,0,0,7.16-2.363l.216,1.933H510.2V283.813h-5.793Z" transform="translate(-427.669 -276.523)"/>
    <path id="Path_557" data-name="Path 557" d="M567.275,285.174l-.257-2.108h-5.36V303.4h5.79V289.2a15.9,15.9,0,0,1,3.3-1.314,28.008,28.008,0,0,1,3.948-.875v-4.38a20.593,20.593,0,0,0-3.99.946A15.816,15.816,0,0,0,567.275,285.174Z" transform="translate(-473.331 -275.775)"/>
    <path id="Path_558" data-name="Path 558" d="M622.61,291.56a8.525,8.525,0,0,0-2.56-6.5q-2.544-2.429-7.188-2.426c-3.362,0-5.936.931-7.7,2.788s-2.635,4.449-2.635,7.764q0,5.277,3.024,7.959t8.425,2.683a18.059,18.059,0,0,0,7.425-1.293v-4.115a14.942,14.942,0,0,1-2.9.771,18.9,18.9,0,0,1-3.323.3,11.09,11.09,0,0,1-5.13-.939,4.414,4.414,0,0,1-2.162-3.3h14.716Zm-5.06.125h-9.656a5.149,5.149,0,0,1,1.154-3.754c.771-.753,2.108-1.133,3.99-1.133,3,0,4.512,1.258,4.512,3.775Z" transform="translate(-499.283 -275.775)"/>
    <path id="Path_559" data-name="Path 559" d="M452.377,290.826a2.908,2.908,0,0,1-.744-2.273V279.5h4.8l.341-4.463h-5.144v-5.046l-5.791,1.585v3.463h-2.871V279.5h2.871v9.435A7.053,7.053,0,0,0,447.55,294a6.869,6.869,0,0,0,5.192,1.807,12.179,12.179,0,0,0,4.546-.772v-3.99a7.853,7.853,0,0,1-2.481.424A3.73,3.73,0,0,1,452.377,290.826Z" transform="translate(-397.972 -267.748)"/>
  </g>
</svg>
