<svg xmlns="http://www.w3.org/2000/svg" width="116.82" height="62.457" viewBox="0 0 116.82 62.457">
  <g id="Group_1180" data-name="Group 1180" transform="translate(0)">
    <g id="Group_1182" data-name="Group 1182" transform="translate(54.45 46.671)">
      <path id="Path_711" data-name="Path 711" d="M406.464,365.783V350.231h9.784v3.036h-5.955v3.526h5.675v3.035h-5.675v5.954Z" transform="translate(-406.464 -350.231)"/>
      <path id="Path_712" data-name="Path 712" d="M461.468,369.648a6.788,6.788,0,0,1-.4,2.347,5.225,5.225,0,0,1-3.082,3.152,7.741,7.741,0,0,1-5.231,0A5.227,5.227,0,0,1,449.676,372a7.137,7.137,0,0,1,0-4.693,5.226,5.226,0,0,1,3.082-3.153,7.746,7.746,0,0,1,5.231,0,5.224,5.224,0,0,1,3.082,3.153A6.788,6.788,0,0,1,461.468,369.648Zm-3.736,0a5.893,5.893,0,0,0-.117-1.179,3.312,3.312,0,0,0-.385-1.027,2.026,2.026,0,0,0-.724-.725,2.524,2.524,0,0,0-2.265,0,2.026,2.026,0,0,0-.724.725,3.312,3.312,0,0,0-.385,1.027,6.019,6.019,0,0,0,0,2.358,3.306,3.306,0,0,0,.385,1.028,2.023,2.023,0,0,0,.724.724,2.521,2.521,0,0,0,2.265,0,2.023,2.023,0,0,0,.724-.724,3.306,3.306,0,0,0,.385-1.028A5.88,5.88,0,0,0,457.732,369.648Z" transform="translate(-436.95 -359.817)"/>
      <path id="Path_713" data-name="Path 713" d="M506.309,363.694a8.127,8.127,0,0,1,1.739.187,6.072,6.072,0,0,1,1.483.513l-.373,2.662a6.7,6.7,0,0,0-1.063-.31,5.935,5.935,0,0,0-1.25-.133,2.9,2.9,0,0,0-2.242.811,3.689,3.689,0,0,0,0,4.449,2.9,2.9,0,0,0,2.242.811,5.934,5.934,0,0,0,1.25-.133,6.722,6.722,0,0,0,1.063-.311l.373,2.662a6.012,6.012,0,0,1-1.483.514,8.071,8.071,0,0,1-1.739.187,7.391,7.391,0,0,1-2.6-.432,5.451,5.451,0,0,1-1.95-1.214,5.212,5.212,0,0,1-1.213-1.879,7.22,7.22,0,0,1,0-4.857,5.22,5.22,0,0,1,1.213-1.88,5.472,5.472,0,0,1,1.95-1.215A7.411,7.411,0,0,1,506.309,363.694Z" transform="translate(-473.151 -359.817)"/>
      <path id="Path_714" data-name="Path 714" d="M554.058,364.5v11.442h-3.6v-1.494a3.643,3.643,0,0,1-1.471,1.354,4.106,4.106,0,0,1-1.728.373,3.633,3.633,0,0,1-1.926-.478,3.711,3.711,0,0,1-1.261-1.273,5.722,5.722,0,0,1-.689-1.833,10.983,10.983,0,0,1-.21-2.184V364.5h3.736v5.978a4.213,4.213,0,0,0,.4,2.09,1.4,1.4,0,0,0,1.308.665,1.949,1.949,0,0,0,1.016-.257,2.166,2.166,0,0,0,.689-.631V364.5Z" transform="translate(-503.808 -360.393)"/>
      <path id="Path_715" data-name="Path 715" d="M601.285,371.633a3.86,3.86,0,0,1-.362,1.705,3.391,3.391,0,0,1-1.027,1.249,4.693,4.693,0,0,1-1.576.759,7.369,7.369,0,0,1-2.008.257,11.709,11.709,0,0,1-1.961-.175,8.55,8.55,0,0,1-1.868-.526L593,372.31a7.333,7.333,0,0,0,1.6.455,9.1,9.1,0,0,0,1.53.152,3.2,3.2,0,0,0,1.179-.2.686.686,0,0,0,.5-.666.61.61,0,0,0-.443-.6q-.443-.175-1.331-.5a11.944,11.944,0,0,1-1.354-.573,4.431,4.431,0,0,1-1.086-.747,3.167,3.167,0,0,1-.712-.993,3.1,3.1,0,0,1-.257-1.307,3.136,3.136,0,0,1,1.261-2.755,5.6,5.6,0,0,1,3.292-.888,9.021,9.021,0,0,1,1.961.2,6.114,6.114,0,0,1,1.705.665l-.514,2.452a8.13,8.13,0,0,0-1.33-.455,6.069,6.069,0,0,0-1.471-.175,3.244,3.244,0,0,0-1.04.128.506.506,0,0,0-.361.525.6.6,0,0,0,.431.572q.432.175,1.11.433.513.186,1.144.455a5.48,5.48,0,0,1,1.18.689,3.859,3.859,0,0,1,.922,1.016A2.655,2.655,0,0,1,601.285,371.633Z" transform="translate(-538.915 -359.817)"/>
    </g>
    <path id="Path_716" data-name="Path 716" d="M406.464,284.656V269.179H416.2V272.2h-5.927v3.509h5.648v3.021h-5.648v5.926Z" transform="translate(-352.014 -245.848)"/>
    <path id="Path_717" data-name="Path 717" d="M503.753,290.477a3.841,3.841,0,0,1-.361,1.7,3.374,3.374,0,0,1-1.022,1.243,4.675,4.675,0,0,1-1.569.755,7.338,7.338,0,0,1-2,.256,11.663,11.663,0,0,1-1.952-.174,8.509,8.509,0,0,1-1.859-.523l.511-2.58a7.286,7.286,0,0,0,1.592.453,9.032,9.032,0,0,0,1.522.151,3.181,3.181,0,0,0,1.173-.2.682.682,0,0,0,.5-.662.608.608,0,0,0-.441-.593q-.441-.174-1.325-.5a11.907,11.907,0,0,1-1.347-.57,4.413,4.413,0,0,1-1.081-.744,3.152,3.152,0,0,1-.709-.987,3.568,3.568,0,0,1,1-4.043,5.568,5.568,0,0,1,3.276-.884,8.988,8.988,0,0,1,1.952.2,6.084,6.084,0,0,1,1.7.662l-.512,2.44a8.074,8.074,0,0,0-1.324-.453,6.04,6.04,0,0,0-1.464-.174,3.225,3.225,0,0,0-1.035.128.5.5,0,0,0-.36.523.592.592,0,0,0,.43.569q.43.174,1.1.43.511.185,1.138.453a5.451,5.451,0,0,1,1.174.685,3.836,3.836,0,0,1,.918,1.011A2.642,2.642,0,0,1,503.753,290.477Z" transform="translate(-415.049 -255.387)"/>
    <path id="Path_718" data-name="Path 718" d="M535.581,271.146a2.067,2.067,0,0,1,.582-1.488,2.19,2.19,0,0,1,3.021,0,2.194,2.194,0,0,1,0,2.975,2.19,2.19,0,0,1-3.021,0A2.062,2.062,0,0,1,535.581,271.146Z" transform="translate(-443.95 -245.759)"/>
    <rect id="Rectangle_412" data-name="Rectangle 412" width="3.718" height="8.319" transform="translate(91.864 30.489)"/>
    <path id="Path_719" data-name="Path 719" d="M572.408,288.5a6.753,6.753,0,0,1-.4,2.336,5.2,5.2,0,0,1-3.067,3.137,7.707,7.707,0,0,1-5.206,0,5.2,5.2,0,0,1-3.067-3.137,7.1,7.1,0,0,1,0-4.671,5.2,5.2,0,0,1,3.067-3.138,7.7,7.7,0,0,1,5.206,0,5.2,5.2,0,0,1,3.067,3.138A6.752,6.752,0,0,1,572.408,288.5Zm-3.718,0a5.873,5.873,0,0,0-.116-1.173,3.3,3.3,0,0,0-.383-1.022,2.014,2.014,0,0,0-.721-.721,2.511,2.511,0,0,0-2.254,0,2.013,2.013,0,0,0-.72.721,3.3,3.3,0,0,0-.383,1.022,6.007,6.007,0,0,0,0,2.347,3.3,3.3,0,0,0,.383,1.023,2.01,2.01,0,0,0,.72.72,2.508,2.508,0,0,0,2.254,0,2.011,2.011,0,0,0,.721-.72,3.292,3.292,0,0,0,.383-1.023A5.861,5.861,0,0,0,568.69,288.5Z" transform="translate(-461.535 -255.387)"/>
    <path id="Path_720" data-name="Path 720" d="M455.559,283.382l-2.069,8.111-2.091-8.111h-3.858l4.106,11.644a.068.068,0,0,1,0,.044l-.05.151a1.526,1.526,0,0,1-1.448,1.047h-2.167v3.287h3.3a3.65,3.65,0,0,0,3.462-2.5l4.559-13.679Z" transform="translate(-381.262 -255.961)"/>
    <g id="Group_1183" data-name="Group 1183" transform="translate(54.45 46.671)">
      <path id="Path_721" data-name="Path 721" d="M406.464,365.783V350.231h9.784v3.036h-5.955v3.526h5.675v3.035h-5.675v5.954Z" transform="translate(-406.464 -350.231)"/>
      <path id="Path_722" data-name="Path 722" d="M461.468,369.648a6.788,6.788,0,0,1-.4,2.347,5.225,5.225,0,0,1-3.082,3.152,7.741,7.741,0,0,1-5.231,0A5.227,5.227,0,0,1,449.676,372a7.137,7.137,0,0,1,0-4.693,5.226,5.226,0,0,1,3.082-3.153,7.746,7.746,0,0,1,5.231,0,5.224,5.224,0,0,1,3.082,3.153A6.788,6.788,0,0,1,461.468,369.648Zm-3.736,0a5.893,5.893,0,0,0-.117-1.179,3.312,3.312,0,0,0-.385-1.027,2.026,2.026,0,0,0-.724-.725,2.524,2.524,0,0,0-2.265,0,2.026,2.026,0,0,0-.724.725,3.312,3.312,0,0,0-.385,1.027,6.019,6.019,0,0,0,0,2.358,3.306,3.306,0,0,0,.385,1.028,2.023,2.023,0,0,0,.724.724,2.521,2.521,0,0,0,2.265,0,2.023,2.023,0,0,0,.724-.724,3.306,3.306,0,0,0,.385-1.028A5.88,5.88,0,0,0,457.732,369.648Z" transform="translate(-436.95 -359.817)"/>
      <path id="Path_723" data-name="Path 723" d="M506.309,363.694a8.127,8.127,0,0,1,1.739.187,6.072,6.072,0,0,1,1.483.513l-.373,2.662a6.7,6.7,0,0,0-1.063-.31,5.935,5.935,0,0,0-1.25-.133,2.9,2.9,0,0,0-2.242.811,3.689,3.689,0,0,0,0,4.449,2.9,2.9,0,0,0,2.242.811,5.934,5.934,0,0,0,1.25-.133,6.722,6.722,0,0,0,1.063-.311l.373,2.662a6.012,6.012,0,0,1-1.483.514,8.071,8.071,0,0,1-1.739.187,7.391,7.391,0,0,1-2.6-.432,5.451,5.451,0,0,1-1.95-1.214,5.212,5.212,0,0,1-1.213-1.879,7.22,7.22,0,0,1,0-4.857,5.22,5.22,0,0,1,1.213-1.88,5.472,5.472,0,0,1,1.95-1.215A7.411,7.411,0,0,1,506.309,363.694Z" transform="translate(-473.151 -359.817)"/>
      <path id="Path_724" data-name="Path 724" d="M554.058,364.5v11.442h-3.6v-1.494a3.643,3.643,0,0,1-1.471,1.354,4.106,4.106,0,0,1-1.728.373,3.633,3.633,0,0,1-1.926-.478,3.711,3.711,0,0,1-1.261-1.273,5.722,5.722,0,0,1-.689-1.833,10.983,10.983,0,0,1-.21-2.184V364.5h3.736v5.978a4.213,4.213,0,0,0,.4,2.09,1.4,1.4,0,0,0,1.308.665,1.949,1.949,0,0,0,1.016-.257,2.166,2.166,0,0,0,.689-.631V364.5Z" transform="translate(-503.808 -360.393)"/>
      <path id="Path_725" data-name="Path 725" d="M601.285,371.633a3.86,3.86,0,0,1-.362,1.705,3.391,3.391,0,0,1-1.027,1.249,4.693,4.693,0,0,1-1.576.759,7.369,7.369,0,0,1-2.008.257,11.709,11.709,0,0,1-1.961-.175,8.55,8.55,0,0,1-1.868-.526L593,372.31a7.333,7.333,0,0,0,1.6.455,9.1,9.1,0,0,0,1.53.152,3.2,3.2,0,0,0,1.179-.2.686.686,0,0,0,.5-.666.61.61,0,0,0-.443-.6q-.443-.175-1.331-.5a11.944,11.944,0,0,1-1.354-.573,4.431,4.431,0,0,1-1.086-.747,3.167,3.167,0,0,1-.712-.993,3.1,3.1,0,0,1-.257-1.307,3.136,3.136,0,0,1,1.261-2.755,5.6,5.6,0,0,1,3.292-.888,9.021,9.021,0,0,1,1.961.2,6.114,6.114,0,0,1,1.705.665l-.514,2.452a8.13,8.13,0,0,0-1.33-.455,6.069,6.069,0,0,0-1.471-.175,3.244,3.244,0,0,0-1.04.128.506.506,0,0,0-.361.525.6.6,0,0,0,.431.572q.432.175,1.11.433.513.186,1.144.455a5.48,5.48,0,0,1,1.18.689,3.859,3.859,0,0,1,.922,1.016A2.655,2.655,0,0,1,601.285,371.633Z" transform="translate(-538.915 -359.817)"/>
    </g>
    <path id="Path_726" data-name="Path 726" d="M256.272,203.715H217.379a15.557,15.557,0,0,1,15.557-15.557h38.893A15.557,15.557,0,0,1,256.272,203.715Z" transform="translate(-217.379 -188.158)"/>
    <path id="Path_727" data-name="Path 727" d="M240.715,284.752H217.379A15.557,15.557,0,0,1,232.936,269.2h23.336A15.557,15.557,0,0,1,240.715,284.752Z" transform="translate(-217.379 -245.859)"/>
    <ellipse id="Ellipse_24" data-name="Ellipse 24" cx="7.779" cy="7.779" rx="7.779" ry="7.779" transform="translate(0 46.671)"/>
    <path id="Path_728" data-name="Path 728" d="M406.464,284.656V269.179H416.2V272.2h-5.927v3.509h5.648v3.021h-5.648v5.926Z" transform="translate(-352.014 -245.848)"/>
    <path id="Path_729" data-name="Path 729" d="M503.753,290.477a3.841,3.841,0,0,1-.361,1.7,3.374,3.374,0,0,1-1.022,1.243,4.675,4.675,0,0,1-1.569.755,7.338,7.338,0,0,1-2,.256,11.663,11.663,0,0,1-1.952-.174,8.509,8.509,0,0,1-1.859-.523l.511-2.58a7.286,7.286,0,0,0,1.592.453,9.032,9.032,0,0,0,1.522.151,3.181,3.181,0,0,0,1.173-.2.682.682,0,0,0,.5-.662.608.608,0,0,0-.441-.593q-.441-.174-1.325-.5a11.907,11.907,0,0,1-1.347-.57,4.413,4.413,0,0,1-1.081-.744,3.152,3.152,0,0,1-.709-.987,3.568,3.568,0,0,1,1-4.043,5.568,5.568,0,0,1,3.276-.884,8.988,8.988,0,0,1,1.952.2,6.084,6.084,0,0,1,1.7.662l-.512,2.44a8.074,8.074,0,0,0-1.324-.453,6.04,6.04,0,0,0-1.464-.174,3.225,3.225,0,0,0-1.035.128.5.5,0,0,0-.36.523.592.592,0,0,0,.43.569q.43.174,1.1.43.511.185,1.138.453a5.451,5.451,0,0,1,1.174.685,3.836,3.836,0,0,1,.918,1.011A2.642,2.642,0,0,1,503.753,290.477Z" transform="translate(-415.049 -255.387)"/>
    <path id="Path_730" data-name="Path 730" d="M535.581,271.146a2.067,2.067,0,0,1,.582-1.488,2.19,2.19,0,0,1,3.021,0,2.194,2.194,0,0,1,0,2.975,2.19,2.19,0,0,1-3.021,0A2.062,2.062,0,0,1,535.581,271.146Z" transform="translate(-443.95 -245.759)"/>
    <rect id="Rectangle_413" data-name="Rectangle 413" width="3.718" height="8.319" transform="translate(91.864 30.489)"/>
    <path id="Path_731" data-name="Path 731" d="M572.408,288.5a6.753,6.753,0,0,1-.4,2.336,5.2,5.2,0,0,1-3.067,3.137,7.707,7.707,0,0,1-5.206,0,5.2,5.2,0,0,1-3.067-3.137,7.1,7.1,0,0,1,0-4.671,5.2,5.2,0,0,1,3.067-3.138,7.7,7.7,0,0,1,5.206,0,5.2,5.2,0,0,1,3.067,3.138A6.752,6.752,0,0,1,572.408,288.5Zm-3.718,0a5.873,5.873,0,0,0-.116-1.173,3.3,3.3,0,0,0-.383-1.022,2.014,2.014,0,0,0-.721-.721,2.511,2.511,0,0,0-2.254,0,2.013,2.013,0,0,0-.72.721,3.3,3.3,0,0,0-.383,1.022,6.007,6.007,0,0,0,0,2.347,3.3,3.3,0,0,0,.383,1.023,2.01,2.01,0,0,0,.72.72,2.508,2.508,0,0,0,2.254,0,2.011,2.011,0,0,0,.721-.72,3.292,3.292,0,0,0,.383-1.023A5.861,5.861,0,0,0,568.69,288.5Z" transform="translate(-461.535 -255.387)"/>
    <path id="Path_732" data-name="Path 732" d="M455.559,283.382l-2.069,8.111-2.091-8.111h-3.858l4.106,11.644a.068.068,0,0,1,0,.044l-.05.151a1.526,1.526,0,0,1-1.448,1.047h-2.167v3.287h3.3a3.65,3.65,0,0,0,3.462-2.5l4.559-13.679Z" transform="translate(-381.262 -255.961)"/>
  </g>
</svg>
