<svg xmlns="http://www.w3.org/2000/svg" width="129.503" height="67.501" viewBox="0 0 129.503 67.501">
  <g id="Group_1227" data-name="Group 1227" transform="translate(0)">
    <g id="Group_1223" data-name="Group 1223" transform="translate(0 31.111)">
      <path id="Path_954" data-name="Path 954" d="M275.216,1430.1a8.453,8.453,0,0,0-2.687-1.8,8.291,8.291,0,0,0-3.286-.657h-5.63a2.785,2.785,0,0,1-1.991-.814,2.751,2.751,0,0,1-.6-.9,2.858,2.858,0,0,1-.216-1.108,2.781,2.781,0,0,1,2.805-2.805H276.52v-5.63H263.612a8.112,8.112,0,0,0-3.276.667,8.571,8.571,0,0,0-4.492,4.492,8.4,8.4,0,0,0,0,6.562,8.545,8.545,0,0,0,4.492,4.5,8.1,8.1,0,0,0,3.276.667h5.63a2.805,2.805,0,1,1,0,5.611h-12.5v5.63h12.5a8.178,8.178,0,0,0,3.286-.667,8.584,8.584,0,0,0,2.688-1.815,8.485,8.485,0,0,0,1.8-2.678,8.518,8.518,0,0,0,0-6.562A8.452,8.452,0,0,0,275.216,1430.1Z" transform="translate(-255.177 -1415.984)"/>
      <path id="Path_955" data-name="Path 955" d="M761.123,1413.1a11.374,11.374,0,0,0-3.58-2.413,11.332,11.332,0,0,0-8.769,0,11.249,11.249,0,0,0-3.57,2.413,11.452,11.452,0,0,0-2.4,3.58,10.968,10.968,0,0,0-.883,4.384v5.63h-4.307v-8.847a8.284,8.284,0,0,0-.657-3.286,8.4,8.4,0,0,0-4.492-4.492,8.33,8.33,0,0,0-8.9,1.521,8.2,8.2,0,0,0-2.609-1.619,8.493,8.493,0,0,0-6.307.1,8.4,8.4,0,0,0-4.492,4.492,8.28,8.28,0,0,0-.657,3.286v20.088h5.63v-20.088a2.805,2.805,0,1,1,5.611,0v20.088h5.63v-20.088a2.813,2.813,0,0,1,4.8-1.991,2.923,2.923,0,0,1,.608.893,2.69,2.69,0,0,1,.226,1.1v20.088h5.61v-5.63h4.307v5.63h5.61v-5.63h11.26v5.63h5.63v-16.87a10.968,10.968,0,0,0-.883-4.384A11.369,11.369,0,0,0,761.123,1413.1Zm-2.334,13.595h-11.26v-5.63a5.492,5.492,0,0,1,.441-2.187,5.621,5.621,0,0,1,3-3,5.643,5.643,0,0,1,4.375,0,5.62,5.62,0,0,1,3,3,5.5,5.5,0,0,1,.441,2.187Z" transform="translate(-683.909 -1409.41)"/>
      <path id="Path_956" data-name="Path 956" d="M1785.03,1421.967a11.292,11.292,0,0,0-1.766-2.285,11.412,11.412,0,0,0-2.276-1.766,11.2,11.2,0,0,0-2.677-1.138,10.987,10.987,0,0,0-2.982-.4h-11.26v28.131h5.63v-5.63l6.3-.039,2.452,5.669h5.983l-3.119-7.356a11.214,11.214,0,0,0,2.2-1.8,11.014,11.014,0,0,0,1.658-2.276,11.57,11.57,0,0,0,1.04-2.609,11.216,11.216,0,0,0-.039-5.807A11.39,11.39,0,0,0,1785.03,1421.967Zm-4.531,7.857a5.647,5.647,0,0,1-2.992,3,5.426,5.426,0,0,1-2.177.441h-5.63v-11.26h5.63a5.424,5.424,0,0,1,2.177.441,5.646,5.646,0,0,1,2.992,3,5.643,5.643,0,0,1,0,4.375Z" transform="translate(-1679.077 -1415.984)"/>
      <path id="Path_957" data-name="Path 957" d="M2151.718,1422.006h8.455v22.5h5.611v-22.5h8.436v-5.63h-22.5Z" transform="translate(-2044.891 -1415.984)"/>
    </g>
    <g id="Group_1226" data-name="Group 1226" transform="translate(1.769 7.62)">
      <g id="Group_1224" data-name="Group 1224">
        <path id="Path_958" data-name="Path 958" d="M323.368,999.579a9.826,9.826,0,0,0-6.87-6.87,9.869,9.869,0,0,0-5.224,0,10.043,10.043,0,0,0-2.35.989,9.747,9.747,0,0,0-2,1.54,10.019,10.019,0,0,0-1.547,1.991,9.724,9.724,0,0,0-1,2.35q-.088.316-.154.637h-2.422V992.6H298v7.62h-7.606V992.6h-3.81v19.036h3.81v-7.607H298v7.607h3.81v-7.607H304.2c.05.262.109.521.181.777a9.915,9.915,0,0,0,6.89,6.89,9.789,9.789,0,0,0,7.573-1,10.021,10.021,0,0,0,1.991-1.547,9.748,9.748,0,0,0,1.54-2,10.048,10.048,0,0,0,.989-2.35,9.873,9.873,0,0,0,0-5.224Zm-3.909,4.958a6.235,6.235,0,0,1-1.294,1.918,6.056,6.056,0,0,1-1.925,1.3,6.062,6.062,0,0,1-4.719,0,6.136,6.136,0,0,1-3.226-3.219,5.794,5.794,0,0,1-.478-2.343,5.889,5.889,0,0,1,.478-2.356,6.056,6.056,0,0,1,1.3-1.925,6.211,6.211,0,0,1,1.925-1.294,6.062,6.062,0,0,1,4.719,0,6.034,6.034,0,0,1,3.219,3.219,5.887,5.887,0,0,1,.478,2.356A5.792,5.792,0,0,1,319.458,1004.538Z" transform="translate(-286.583 -992.358)"/>
        <path id="Path_959" data-name="Path 959" d="M978.524,1008.03a3.669,3.669,0,0,1-.3,1.474,3.821,3.821,0,0,1-2.031,2.024,3.817,3.817,0,0,1-2.96,0,3.822,3.822,0,0,1-2.031-2.024,3.671,3.671,0,0,1-.3-1.474V996.6h-3.8v11.43a7.418,7.418,0,0,0,.6,2.967,7.594,7.594,0,0,0,4.042,4.042,7.666,7.666,0,0,0,5.934,0,7.749,7.749,0,0,0,2.423-1.626,7.61,7.61,0,0,0,1.633-2.416,7.418,7.418,0,0,0,.6-2.967V996.6h-3.81Z" transform="translate(-928.776 -996.361)"/>
        <path id="Path_960" data-name="Path 960" d="M1275.39,1005.886a5.717,5.717,0,0,0-1.819-1.221,5.606,5.606,0,0,0-2.223-.445h-3.81a1.87,1.87,0,0,1-1.752-1.161,1.94,1.94,0,0,1-.146-.75,1.882,1.882,0,0,1,1.9-1.9h8.735V996.6h-8.735a5.491,5.491,0,0,0-2.217.451,5.8,5.8,0,0,0-3.04,3.04,5.683,5.683,0,0,0,0,4.44,5.781,5.781,0,0,0,3.04,3.046,5.485,5.485,0,0,0,2.217.451h3.81a1.9,1.9,0,1,1,0,3.8h-8.456v3.81h8.456a5.536,5.536,0,0,0,2.223-.451,5.806,5.806,0,0,0,1.819-1.228,5.74,5.74,0,0,0,1.221-1.812,5.763,5.763,0,0,0,0-4.44A5.719,5.719,0,0,0,1275.39,1005.886Z" transform="translate(-1206.897 -996.361)"/>
        <path id="Path_961" data-name="Path 961" d="M1561.97,1015.636h13.049v-3.81h-9.239v-3.8h6.252v-3.81h-6.252v-3.81h9.239V996.6H1561.97Z" transform="translate(-1490.131 -996.361)"/>
      </g>
      <g id="Group_1225" data-name="Group 1225" transform="translate(92.496)">
        <path id="Path_962" data-name="Path 962" d="M1963.941,996.407V992.6h-13.328v7.62h-2.422q-.066-.322-.154-.637a9.826,9.826,0,0,0-6.87-6.87,9.868,9.868,0,0,0-5.223,0,10.037,10.037,0,0,0-2.35.989,9.747,9.747,0,0,0-2,1.54,10.027,10.027,0,0,0-1.546,1.991,9.829,9.829,0,0,0-1,7.573,9.915,9.915,0,0,0,6.89,6.89,9.789,9.789,0,0,0,7.573-1,10.016,10.016,0,0,0,1.991-1.547,9.736,9.736,0,0,0,1.54-2,10.058,10.058,0,0,0,.989-2.35c.072-.256.131-.515.181-.777h2.395v7.607h3.81v-7.607h5.708v-3.81h-5.708v-3.81Zm-19.813,8.131a6.229,6.229,0,0,1-1.294,1.918,6.056,6.056,0,0,1-1.925,1.3,6.062,6.062,0,0,1-4.719,0,6.136,6.136,0,0,1-3.226-3.219,5.794,5.794,0,0,1-.478-2.343,5.889,5.889,0,0,1,.478-2.356,6.062,6.062,0,0,1,1.3-1.925,6.212,6.212,0,0,1,1.925-1.294,6.063,6.063,0,0,1,4.719,0,6.034,6.034,0,0,1,3.219,3.219,5.885,5.885,0,0,1,.478,2.356A5.79,5.79,0,0,1,1944.128,1004.538Z" transform="translate(-1928.703 -992.358)"/>
      </g>
    </g>
    <rect id="Rectangle_416" data-name="Rectangle 416" width="127.734" height="3.81" transform="translate(1.769)"/>
    <rect id="Rectangle_417" data-name="Rectangle 417" width="127.734" height="3.81" transform="translate(1.769 63.691)"/>
  </g>
</svg>
