<svg id="Group_1230" data-name="Group 1230" xmlns="http://www.w3.org/2000/svg" width="197.747" height="44.038" viewBox="0 0 197.747 44.038">
  <g id="Group_1228" data-name="Group 1228">
    <path id="Path_963" data-name="Path 963" d="M272.731,279.421h-5.893a2.59,2.59,0,0,1-2.589-2.582v-16.5a1.631,1.631,0,0,0-1.862-1.615l-14.864,2.123a1.631,1.631,0,0,0-1.4,1.615v38.652a1.631,1.631,0,0,0,1.862,1.615l5.761-.823a12.234,12.234,0,0,0,10.5-12.111V283.3a1.295,1.295,0,0,1,2.589,0h0v17.807a1.631,1.631,0,0,0,1.861,1.615l14.864-2.124a1.631,1.631,0,0,0,1.4-1.615v-7.333A12.233,12.233,0,0,0,272.731,279.421Z" transform="translate(-246.123 -258.705)"/>
    <circle id="Ellipse_25" data-name="Ellipse 25" cx="9.063" cy="9.063" r="9.063" transform="translate(20.715)"/>
  </g>
  <g id="Group_1229" data-name="Group 1229" transform="translate(58.187 8.539)">
    <path id="Path_964" data-name="Path 964" d="M349.158,300.306a.564.564,0,0,1-.152-.419V274.374a.527.527,0,0,1,.571-.571h2.513a.526.526,0,0,1,.571.571v11.881a.154.154,0,0,0,.076.152c.051.025.1,0,.153-.076l10.776-12.224a.868.868,0,0,1,.685-.3h2.856q.457,0,.458.3a.614.614,0,0,1-.153.381l-8.8,10.472a.219.219,0,0,0-.038.266l9.558,14.546a.553.553,0,0,1,.115.342c0,.229-.166.343-.5.343H365a.747.747,0,0,1-.685-.38l-8.149-12.262q-.153-.228-.266-.038l-3.161,3.5a.62.62,0,0,0-.076.266v8.339a.526.526,0,0,1-.571.571h-2.513A.564.564,0,0,1,349.158,300.306Z" transform="translate(-349.006 -273.803)"/>
    <path id="Path_965" data-name="Path 965" d="M390.781,304.688a7.511,7.511,0,0,1-2.913-3.979,14.635,14.635,0,0,1-.685-4.646,14.025,14.025,0,0,1,.647-4.57,7.488,7.488,0,0,1,2.931-3.941,8.643,8.643,0,0,1,4.989-1.428,8.116,8.116,0,0,1,4.78,1.428,7.82,7.82,0,0,1,2.913,3.9,13.755,13.755,0,0,1,.685,4.57,14.58,14.58,0,0,1-.685,4.684,7.556,7.556,0,0,1-2.894,3.979,8.264,8.264,0,0,1-4.836,1.429A8.48,8.48,0,0,1,390.781,304.688Zm7.6-2.589a4.7,4.7,0,0,0,1.638-2.418,13.079,13.079,0,0,0,.419-3.58,13.868,13.868,0,0,0-.381-3.541,4.7,4.7,0,0,0-1.637-2.418,4.505,4.505,0,0,0-2.78-.856,4.38,4.38,0,0,0-2.7.856,4.681,4.681,0,0,0-1.637,2.418,12.134,12.134,0,0,0-.419,3.541,12.541,12.541,0,0,0,.419,3.58,4.438,4.438,0,0,0,1.618,2.418,4.584,4.584,0,0,0,2.8.857A4.32,4.32,0,0,0,398.378,302.1Z" transform="translate(-365.591 -279.156)"/>
    <path id="Path_966" data-name="Path 966" d="M429.753,277.725a4.058,4.058,0,0,0-.685,2.741v.419a.168.168,0,0,0,.191.191h3.769a.527.527,0,0,1,.571.571v2.209a.527.527,0,0,1-.571.571h-3.769a.168.168,0,0,0-.191.191v15.269a.527.527,0,0,1-.571.571h-2.512a.527.527,0,0,1-.572-.571V284.618a.169.169,0,0,0-.191-.191H422.9a.527.527,0,0,1-.571-.571v-2.209a.527.527,0,0,1,.571-.571h2.323a.169.169,0,0,0,.191-.191v-.647a10.125,10.125,0,0,1,.59-3.884,3.609,3.609,0,0,1,2-1.961,10.576,10.576,0,0,1,3.96-.59h1.1a.528.528,0,0,1,.572.571v2.056a.528.528,0,0,1-.572.571h-.723A3.55,3.55,0,0,0,429.753,277.725Z" transform="translate(-380.86 -273.803)"/>
    <path id="Path_967" data-name="Path 967" d="M454.462,277.725a4.056,4.056,0,0,0-.685,2.741v.419a.168.168,0,0,0,.191.191h3.77a.527.527,0,0,1,.571.571v2.209a.527.527,0,0,1-.571.571h-3.77a.168.168,0,0,0-.191.191v15.269a.527.527,0,0,1-.571.571h-2.513a.527.527,0,0,1-.571-.571V284.618a.169.169,0,0,0-.191-.191h-2.323a.527.527,0,0,1-.571-.571v-2.209a.527.527,0,0,1,.571-.571h2.323a.169.169,0,0,0,.191-.191v-.647a10.126,10.126,0,0,1,.59-3.884,3.611,3.611,0,0,1,2-1.961,10.576,10.576,0,0,1,3.96-.59h1.1a.527.527,0,0,1,.571.571v2.056a.527.527,0,0,1-.571.571h-.724A3.548,3.548,0,0,0,454.462,277.725Z" transform="translate(-391.594 -273.803)"/>
    <path id="Path_968" data-name="Path 968" d="M483.77,300.594c.126-.228.266-.343.419-.343a.557.557,0,0,1,.343.115l1.562.952a.568.568,0,0,1,.3.494l-.076.3a7.429,7.429,0,0,1-2.913,2.932,8.783,8.783,0,0,1-4.4,1.067,8.273,8.273,0,0,1-4.569-1.2,7.388,7.388,0,0,1-2.819-3.446,14.3,14.3,0,0,1-.952-5.445,16.169,16.169,0,0,1,.419-4.227,7.279,7.279,0,0,1,2.742-4.15,8.147,8.147,0,0,1,4.989-1.524,7.522,7.522,0,0,1,5.52,1.885,9.584,9.584,0,0,1,2.475,5.464q.191,1.41.266,3.427a.5.5,0,0,1-.57.571H474.479a.169.169,0,0,0-.191.191,9.359,9.359,0,0,0,.266,2.056,4.179,4.179,0,0,0,1.676,2.4,5.323,5.323,0,0,0,3.122.876A4.743,4.743,0,0,0,483.77,300.594Zm-7.674-10.51a4,4,0,0,0-1.428,2.209,8.86,8.86,0,0,0-.342,2.132.168.168,0,0,0,.189.191h8.645a.169.169,0,0,0,.191-.191,11.314,11.314,0,0,0-.229-1.866,4.207,4.207,0,0,0-4.3-3.275A4.365,4.365,0,0,0,476.1,290.084Z" transform="translate(-401.861 -279.156)"/>
    <path id="Path_969" data-name="Path 969" d="M518.384,286.745a.592.592,0,0,1,.3.723l-.533,2.475c-.026.254-.152.381-.381.381a.967.967,0,0,1-.3-.038,4.094,4.094,0,0,0-1.3-.19,3.125,3.125,0,0,0-.57.038,4.266,4.266,0,0,0-2.951,1.237,4.092,4.092,0,0,0-1.162,3.027v10.928a.527.527,0,0,1-.571.571h-2.513a.526.526,0,0,1-.571-.571V287.088a.526.526,0,0,1,.571-.571h2.513a.527.527,0,0,1,.571.571v1.752c0,.1.019.159.057.171s.082-.019.133-.1a5.31,5.31,0,0,1,4.646-2.589A4.877,4.877,0,0,1,518.384,286.745Z" transform="translate(-418.008 -279.243)"/>
    <path id="Path_970" data-name="Path 970" d="M544.432,300.594c.127-.228.267-.343.419-.343a.555.555,0,0,1,.342.115l1.562.952a.568.568,0,0,1,.3.494l-.076.3a7.428,7.428,0,0,1-2.913,2.932,8.785,8.785,0,0,1-4.4,1.067,8.276,8.276,0,0,1-4.569-1.2,7.39,7.39,0,0,1-2.818-3.446,14.3,14.3,0,0,1-.952-5.445,16.172,16.172,0,0,1,.419-4.227,7.281,7.281,0,0,1,2.742-4.15,8.148,8.148,0,0,1,4.989-1.524A7.522,7.522,0,0,1,545,288.009a9.579,9.579,0,0,1,2.475,5.464q.192,1.41.267,3.427a.5.5,0,0,1-.571.571H535.141a.168.168,0,0,0-.191.191,9.322,9.322,0,0,0,.266,2.056,4.175,4.175,0,0,0,1.676,2.4,5.32,5.32,0,0,0,3.122.876A4.743,4.743,0,0,0,544.432,300.594Zm-7.674-10.51a4,4,0,0,0-1.428,2.209,8.87,8.87,0,0,0-.342,2.132.168.168,0,0,0,.19.191h8.644a.169.169,0,0,0,.191-.191,11.242,11.242,0,0,0-.23-1.866,4.206,4.206,0,0,0-4.3-3.275A4.366,4.366,0,0,0,536.758,290.084Z" transform="translate(-428.215 -279.156)"/>
    <path id="Path_971" data-name="Path 971" d="M582.092,288a6.571,6.571,0,0,1,1.828,4.893v12.376a.527.527,0,0,1-.572.571h-2.513a.527.527,0,0,1-.571-.571V293.617a4.338,4.338,0,0,0-1.1-3.085,3.829,3.829,0,0,0-2.932-1.18,4.07,4.07,0,0,0-2.761.971,3.9,3.9,0,0,0-1.314,2.608v12.337a.527.527,0,0,1-.571.571h-2.514a.525.525,0,0,1-.57-.571V287.029a.525.525,0,0,1,.57-.571h2.514a.527.527,0,0,1,.571.571V288.1a.153.153,0,0,0,.076.152.074.074,0,0,0,.114-.038,5.752,5.752,0,0,1,4.8-2.019A6.73,6.73,0,0,1,582.092,288Z" transform="translate(-444.361 -279.185)"/>
  </g>
</svg>
