<svg xmlns="http://www.w3.org/2000/svg" width="101.927" height="48.499" viewBox="0 0 101.927 48.499">
  <g id="Group_1232" data-name="Group 1232" transform="translate(0)">
    <path id="Path_977" data-name="Path 977" d="M274.011,350.74h9.859v10.085H263.926A10.085,10.085,0,0,1,274.011,350.74Z" transform="translate(-253.841 -312.666)"/>
    <rect id="Rectangle_418" data-name="Rectangle 418" width="10.085" height="48.159" transform="translate(0)"/>
    <path id="Path_978" data-name="Path 978" d="M359.029,292.894v-23.91A10.085,10.085,0,0,1,369.114,258.9h0v33.995Z" transform="translate(-324.185 -244.735)"/>
    <path id="Path_979" data-name="Path 979" d="M421.271,204.492H431.3v17.337c1.3-2.039,5.1-3.569,8.839-3.569,10.028,0,16.147,6.912,16.147,17.337,0,10.482-6.119,17.394-16.147,17.394-3.683,0-7.592-1.586-8.839-3.513v3.173H421.271Zm17.508,23.8a7.229,7.229,0,0,0-7.479,7.592c.057,4.136,3.116,7.026,7.479,7.026,4.589,0,7.479-2.833,7.479-7.309C446.257,231.178,443.368,228.288,438.779,228.288Z" transform="translate(-370.223 -204.492)"/>
    <path id="Path_980" data-name="Path 980" d="M576.223,292.894v-23.91A10.085,10.085,0,0,1,586.308,258.9h0v33.995Z" transform="translate(-484.835 -244.735)"/>
    <circle id="Ellipse_26" data-name="Ellipse 26" cx="5.552" cy="5.552" r="5.552" transform="translate(34.278)"/>
    <circle id="Ellipse_27" data-name="Ellipse 27" cx="5.552" cy="5.552" r="5.552" transform="translate(90.822)"/>
  </g>
</svg>
