<svg xmlns="http://www.w3.org/2000/svg" width="138.271" height="96.221" viewBox="0 0 138.271 96.221">
  <g id="Group_1183" data-name="Group 1183" transform="translate(0)">
    <g id="Group_1200" data-name="Group 1200" transform="translate(0 0)">
      <g id="Group_1196" data-name="Group 1196" transform="translate(55.664)">
        <path id="Path_853" data-name="Path 853" d="M1434.6-117.318a.626.626,0,0,0,.5.312.621.621,0,0,0,.36-.081,2.423,2.423,0,0,0,1.19-1.722,2.42,2.42,0,0,0-.432-1.81.626.626,0,0,0-.874-.14.626.626,0,0,0-.14.874,1.177,1.177,0,0,1,.209.878,1.174,1.174,0,0,1-.577.835A.627.627,0,0,0,1434.6-117.318Z" transform="translate(-1365.834 154.156)"/>
        <path id="Path_854" data-name="Path 854" d="M1372.024-142.536a11.265,11.265,0,0,1,4.046-7.761,1.67,1.67,0,0,0,.124-2.358,1.67,1.67,0,0,0-2.358-.124,17.2,17.2,0,0,0-2.591,2.923l.874,2.462-2.646.948a13.931,13.931,0,0,0-.779,3.666,1.67,1.67,0,0,0,1.535,1.786h.009A1.67,1.67,0,0,0,1372.024-142.536Z" transform="translate(-1316.479 178.394)"/>
        <path id="Path_855" data-name="Path 855" d="M1338.159-122.738a1.546,1.546,0,0,1,1.03.62.627.627,0,0,0,.875.133.627.627,0,0,0,.133-.876,2.789,2.789,0,0,0-1.858-1.117,2.757,2.757,0,0,0-2.077.529,2.777,2.777,0,0,0-1.1,1.842,2.779,2.779,0,0,0,.529,2.076,2.775,2.775,0,0,0,1.841,1.1c.06.009.121.016.182.021a2.758,2.758,0,0,0,1.1-.135.626.626,0,0,0,.392-.794.627.627,0,0,0-.794-.393,1.578,1.578,0,0,1-.7.061,1.542,1.542,0,0,1-1.018-.606,1.543,1.543,0,0,1-.292-1.148A1.582,1.582,0,0,1,1338.159-122.738Z" transform="translate(-1291.325 156.503)"/>
        <path id="Path_856" data-name="Path 856" d="M1296.123-104.915c-1.1,6.683,7.545,10.262,7.545,10.262,8.644,3.091,11.846-1.976,12.043-2.3a.045.045,0,0,0,.009-.018,2.5,2.5,0,0,0,.374-.954,2.337,2.337,0,0,0-2.029-2.838s-5.07-.068-7.9-1.3a21.845,21.845,0,0,1-6.206-4.394,2.545,2.545,0,0,0-1-.484A2.464,2.464,0,0,0,1296.123-104.915Zm7.5,4.68a6.793,6.793,0,0,0-1.365.687.418.418,0,0,0-.122.578.418.418,0,0,0,.317.188.418.418,0,0,0,.26-.066,4.482,4.482,0,0,1,4.781-.391c2.372,1.407,2.374,4.532,2.374,4.532-7.684.433-11.931-5.839-11.931-5.839A5.445,5.445,0,0,1,1303.619-100.234Z" transform="translate(-1262.002 143.734)"/>
        <path id="Path_857" data-name="Path 857" d="M1384.928-168.182a.835.835,0,0,0-.124-1.174c-1.322-1.07-4.787-2.338-8.438.517a.836.836,0,0,0-.144,1.172.835.835,0,0,0,.593.318.834.834,0,0,0,.58-.174c3.487-2.729,6.239-.628,6.361-.532A.836.836,0,0,0,1384.928-168.182Z" transform="translate(-1321.995 191.42)"/>
        <path id="Path_858" data-name="Path 858" d="M1313.757-182.593a.835.835,0,0,0-.143,1.172.833.833,0,0,0,.593.318.832.832,0,0,0,.58-.174c3.486-2.728,6.239-.63,6.361-.532a.836.836,0,0,0,1.171-.127.836.836,0,0,0-.124-1.174C1320.873-184.181,1317.408-185.449,1313.757-182.593Z" transform="translate(-1275.056 201.732)"/>
        <path id="Path_859" data-name="Path 859" d="M1316.069-166.361a1.671,1.671,0,0,0-2.36.1,17.322,17.322,0,0,0-2.165,2.9l1,2.527-2.532,1.014a13.947,13.947,0,0,0-.494,3.993,1.67,1.67,0,0,0,1.538,1.629c.055,0,.111.006.168.005a1.671,1.671,0,0,0,1.634-1.705,11.23,11.23,0,0,1,3.3-8.1A1.67,1.67,0,0,0,1316.069-166.361Z" transform="translate(-1272.119 188.587)"/>
        <path id="Path_860" data-name="Path 860" d="M1235.651-127.66a.694.694,0,0,0,.205-.957.692.692,0,0,0-.959-.207,5.627,5.627,0,0,0-2.276,3.372,6.037,6.037,0,0,0,1.224,4.664.691.691,0,0,0,.469.291.688.688,0,0,0,.5-.116.693.693,0,0,0,.175-.965,4.735,4.735,0,0,1-1.007-3.591A4.271,4.271,0,0,1,1235.651-127.66Z" transform="translate(-1214.398 160.197)"/>
        <path id="Path_861" data-name="Path 861" d="M1227.9-213.82a4.968,4.968,0,0,0,.963.176c.091.007.183.012.276.014a4.959,4.959,0,0,0,3.564-1.378,4.964,4.964,0,0,0,1.548-3.494,4.992,4.992,0,0,0-2.025-4.127c.827-2.048,4.66-12.612-1.285-19.248,0,0-3.218-3.9-4.065-1.573-1.65,4.535-6.462,4.56-7.778,4.98s-1.085,1.906,2.2,2.816c2.482.686,8.413,3.914,5.377,9.1a4.433,4.433,0,0,0,.172,4.246.627.627,0,0,0,.835.3,3.64,3.64,0,0,1,1.665-.351,3.753,3.753,0,0,1,3.649,3.83,3.718,3.718,0,0,1-1.16,2.617,3.714,3.714,0,0,1-2.67,1.032,3.71,3.71,0,0,1-2.644-1.189.625.625,0,0,0-.885-.028.627.627,0,0,0-.028.885,5.019,5.019,0,0,0,1.127.879,19.17,19.17,0,0,1-8.836,11.562,19.181,19.181,0,0,1-14.626,2.082l-.931-.241a19.179,19.179,0,0,1-11.788-8.906,19.5,19.5,0,0,1-2.157-5.308c.07-.229.13-.451.17-.651a13.093,13.093,0,0,0,.113-4.579,13.412,13.412,0,0,1-.1-2.462,6.92,6.92,0,0,1,1.877-3.195,11,11,0,0,0,1.307-1.774,2.99,2.99,0,0,0-.148-2.86,3.762,3.762,0,0,0-1.174-1.248l.811-3.321c.075-.29.178-.568.266-.852,1.83.84,4.286.84,5.233-.136.343-.354.311-.826-.573-1.179a1.4,1.4,0,0,1-.814-2.062,2.681,2.681,0,0,1,2.977-1.3s7.311,1.314,12.085,1.633c5.5.367,12.8-1.435,14.17-5s-4.123-6.576-5.776-7.292a28.415,28.415,0,0,0-13.647-2.364c-7.552.35-12.723,3.782-14.864,7.712-2.32,4.257-1.543,7.883.1,9.3-.132.407-.257.817-.365,1.235l-.823,3.09a3.945,3.945,0,0,0-.744-.134c-2.859-.162-4.586,2.884-4.852,4.992a3.376,3.376,0,0,1-.919,2.246l-4.368-12.616a3.5,3.5,0,0,0-1.8-2.018,3.513,3.513,0,0,0-2.7-.162,3.538,3.538,0,0,0-1.928,1.63,3.712,3.712,0,0,0-2.092-1.6,3.719,3.719,0,0,0-2.913.457,3.358,3.358,0,0,0-1.655,2.121,4.448,4.448,0,0,0,.022,2.07,3.709,3.709,0,0,0-.5-.077,3.5,3.5,0,0,0-2.576.826,3.566,3.566,0,0,0-1.058,3.813,3.511,3.511,0,0,0,.66,1.161l1.022,1.2a3.508,3.508,0,0,0-1.941,1.191,3.562,3.562,0,0,0-.624,3.367,3.5,3.5,0,0,0,1.1,1.6l6.953,5.743c2.563,5.83,6.273,8.247,9.3,8.692a6.807,6.807,0,0,0,1.907.021c1.983-.279,3.261-2.175,3.764-3.078a4.508,4.508,0,0,0,4.329-2.382,20.884,20.884,0,0,0,1.86,4.2,20.42,20.42,0,0,0,12.553,9.481l.932.241a20.6,20.6,0,0,0,3.548.595,20.46,20.46,0,0,0,12.028-2.81A20.417,20.417,0,0,0,1227.9-213.82Zm-61.294-23.387a2,2,0,0,1,1.007-1.258,2.366,2.366,0,0,1,1.84-.321,2.428,2.428,0,0,1,1.434,1.239l.672,1.213,4.17,8.883a16.065,16.065,0,0,0-2.388,1.368c-1.1-1.448-4.017-5.36-6.106-8.162A4.625,4.625,0,0,1,1166.611-237.206Zm-3.745,6.554a2.1,2.1,0,0,1-.4-.7,2.166,2.166,0,0,1,.641-2.318,2.125,2.125,0,0,1,1.564-.5,2.084,2.084,0,0,1,1.427.711l.005.007c3.177,4.266,5.227,7.006,6.131,8.2a16.757,16.757,0,0,0-2.141,2.118l-5.242-5.183Zm24.442,10.412a11.86,11.86,0,0,1-.086,4.136c-.035.174-.9,4.286-4.191,3.649a.675.675,0,0,0-.762.4c-.011.024-1.134,2.488-2.929,2.741-.611.085-6.093.573-9.812-8.042a.687.687,0,0,0-.2-.26l-7.082-5.85a2.1,2.1,0,0,1-.665-.963,2.16,2.16,0,0,1,.378-2.047,2.14,2.14,0,0,1,1.964-.75c.025,0,.05.011.074.015l5.238,5.179a11.762,11.762,0,0,0-.843,1.353.7.7,0,0,0,.31.931.7.7,0,0,0,.209.066.694.694,0,0,0,.721-.376,14.761,14.761,0,0,1,3.787-4.345.7.7,0,0,0,.3-.153.679.679,0,0,0,.13-.18,14.737,14.737,0,0,1,4.968-2.364.692.692,0,0,0,.494-.846.692.692,0,0,0-.846-.495c-.507.133-.987.291-1.451.46l-4.139-8.817a2.145,2.145,0,0,1,1.43-2.039,2.133,2.133,0,0,1,1.637.1,2.121,2.121,0,0,1,1.089,1.223l4.589,13.25a.681.681,0,0,0,.6.465c.093.008,2.3.129,2.781-3.624.174-1.376,1.349-3.9,3.4-3.782a2.449,2.449,0,0,1,2.013,1.225,1.621,1.621,0,0,1,.128,1.531,10.267,10.267,0,0,1-1.144,1.529c-.96,1.147-2.049,2.446-2.194,3.953A14.335,14.335,0,0,0,1187.308-220.24Z" transform="translate(-1160.09 253.836)"/>
      </g>
      <g id="Group_1198" data-name="Group 1198" transform="translate(0 32.666)">
        <path id="Path_862" data-name="Path 862" d="M961.25-36.344a64.721,64.721,0,0,1-1.06-6.54,41.957,41.957,0,0,1-.4-5.713H945.62a52.814,52.814,0,0,1-.4,5.738,64.764,64.764,0,0,1-1.135,6.515l-2.572,9.374c-.5,2.125-1.086,4.32-1.8,6.587s-1.393,4.155-2.028,5.643h10.175a43.286,43.286,0,0,1,.849-8.358l.355-1.228h7.246L956.6-23.1a40.043,40.043,0,0,1,.922,8.358h10.152a71.249,71.249,0,0,1-3.824-12.23Zm-11.262,7.58,1.442-4.841c.26-1.062.471-2.36.589-3.164.1-.685.306-2.525.425-3.21h.5c.4,3.045.731,5.17,1.014,6.373l1.442,4.841Z" transform="translate(-937.689 67.3)"/>
        <path id="Path_863" data-name="Path 863" d="M1101.857-2.1q0-10.165-7.6-10.177c-3.848,0-6.446,2.2-7.578,6.258h-.451c-.967-4.227-3.256-6.258-7.2-6.258q-5.491,0-7.154,6.258h-.424v-.45a11.367,11.367,0,0,1,1.11-5.218h-9.916A40.953,40.953,0,0,1,1063.7-1.539V2.9a38.766,38.766,0,0,1-1.061,9.586h9.869a22.349,22.349,0,0,1-.78-4.485c-.188-1.96-.283-3.754-.283-5.336V-.523a7.918,7.918,0,0,1,1.014-4.156,3.244,3.244,0,0,1,2.953-1.7c2.384,0,3.516,2.079,3.516,5.571V2.57a42.1,42.1,0,0,1-.873,9.915h9.679a41.191,41.191,0,0,1-1.061-10.1v-3a7.288,7.288,0,0,1,1.086-4.108,3.29,3.29,0,0,1,2.88-1.652c2.311,0,3.47,1.866,3.47,5.571V2.57a42.578,42.578,0,0,1-1.017,9.915h9.823a45.274,45.274,0,0,1-1.063-10.436Z" transform="translate(-1031.368 40.074)"/>
        <path id="Path_864" data-name="Path 864" d="M1244.486-46.182a4.257,4.257,0,0,0,3.14-1.157,3.926,3.926,0,0,0,1.159-2.9,3.985,3.985,0,0,0-1.159-2.928,4.276,4.276,0,0,0-3.14-1.18,4.2,4.2,0,0,0-3.091,1.18,4.006,4.006,0,0,0-1.181,2.928,3.947,3.947,0,0,0,1.181,2.9A4.142,4.142,0,0,0,1244.486-46.182Z" transform="translate(-1164.495 71.614)"/>
        <path id="Path_865" data-name="Path 865" d="M1246.548,3.324V-2.484a52.336,52.336,0,0,1,.307-7.437,9.375,9.375,0,0,1-4.109.779,10.241,10.241,0,0,1-4.227-.779,52.35,52.35,0,0,1,.306,7.437V3.324q0,2.832-.283,5.878a41.989,41.989,0,0,1-.777,5.053h9.869a32.731,32.731,0,0,1-.78-5.006A56.536,56.536,0,0,1,1246.548,3.324Z" transform="translate(-1162.659 38.304)"/>
        <path id="Path_866" data-name="Path 866" d="M1312.552-11.691h-9.728a12.417,12.417,0,0,1,.781,2.431,18.335,18.335,0,0,1,.188,2.786v.5h-.471c-1.159-4.037-3.756-6.3-7.414-6.3a6.913,6.913,0,0,0-6.163,3.377c-1.465,2.266-2.2,5.359-2.2,9.3s.731,7.035,2.2,9.279a6.936,6.936,0,0,0,6.209,3.4c3.612,0,6.163-2.362,7.367-6.352h.424a12.433,12.433,0,0,1,1.156,5.289,4.947,4.947,0,0,1-1.936,4.132,8.165,8.165,0,0,1-5.172,1.511,19.146,19.146,0,0,1-5.287-.779,13.122,13.122,0,0,1-4.391-2.125l-.049,6.823a25.7,25.7,0,0,0,5.076,1.182,42.167,42.167,0,0,0,5.9.425,17.207,17.207,0,0,0,9.375-2.479,8.856,8.856,0,0,0,3.99-7.626,14.129,14.129,0,0,0-.178-2.161,56.543,56.543,0,0,1-.743-8.637V.491A59.576,59.576,0,0,1,1312.552-11.691Zm-10.084,17a3.586,3.586,0,0,1-3.209,1.912c-2.808,0-4.464-2.644-4.464-6.823a9.27,9.27,0,0,1,1.182-4.958,3.676,3.676,0,0,1,3.282-1.865,3.559,3.559,0,0,1,3.209,1.888A9.464,9.464,0,0,1,1303.6.4,9.486,9.486,0,0,1,1302.469,5.307Z" transform="translate(-1199.983 40.074)"/>
        <path id="Path_867" data-name="Path 867" d="M1418.488-8.9c-2-2.244-4.839-3.377-8.5-3.377s-6.469,1.134-8.45,3.4c-2.008,2.267-3,5.359-3,9.278,0,3.942.991,7.06,3,9.3,1.982,2.243,4.793,3.377,8.45,3.377s6.469-1.134,8.477-3.4c2.008-2.244,3-5.336,3-9.279S1420.473-6.638,1418.488-8.9Zm-5.451,14.4a3.374,3.374,0,0,1-6.07.025A10.217,10.217,0,0,1,1405.883.4c0-4.344,1.533-7.012,4.1-7.012,2.621,0,4.158,2.691,4.158,7.012A10.1,10.1,0,0,1,1413.037,5.5Z" transform="translate(-1283.193 40.074)"/>
        <g id="Group_1197" data-name="Group 1197" transform="translate(26.695 0)">
          <path id="Path_868" data-name="Path 868" d="M1062.147-120.292h-5.622l-2.21,5.6a21.238,21.238,0,0,0-.919,3.178h-.223a16.714,16.714,0,0,0-.945-3.178l-2.21-5.6h-5.671a29.9,29.9,0,0,1,.581,6.443v4.927a29.858,29.858,0,0,1-.581,6.431h5.336a29.838,29.838,0,0,1-.584-6.431v-4.394h.2l3.34,8.666h1.19l3.328-8.666h.237v4.394a29.856,29.856,0,0,1-.583,6.431h5.336a29.829,29.829,0,0,1-.584-6.431v-4.927A29.871,29.871,0,0,1,1062.147-120.292Z" transform="translate(-1044.347 121.05)"/>
          <path id="Path_869" data-name="Path 869" d="M1126.875-119.026a2.245,2.245,0,0,0,1.653-.608,2.065,2.065,0,0,0,.606-1.527,2.1,2.1,0,0,0-.606-1.54,2.247,2.247,0,0,0-1.653-.621,2.2,2.2,0,0,0-1.624.621,2.107,2.107,0,0,0-.621,1.54,2.077,2.077,0,0,0,.621,1.527A2.176,2.176,0,0,0,1126.875-119.026Z" transform="translate(-1104.537 123.322)"/>
          <path id="Path_870" data-name="Path 870" d="M1128.115-89.879a30.524,30.524,0,0,1-.162-3.116v-3.054a27.907,27.907,0,0,1,.162-3.911,4.918,4.918,0,0,1-2.158.41,5.4,5.4,0,0,1-2.224-.41,27.471,27.471,0,0,1,.161,3.911v3.054q0,1.49-.147,3.091a22.174,22.174,0,0,1-.411,2.656h5.189A17.6,17.6,0,0,1,1128.115-89.879Z" transform="translate(-1103.566 105.807)"/>
        </g>
      </g>
      <g id="Group_1199" data-name="Group 1199" transform="translate(26.695 89.109)">
        <path id="Path_871" data-name="Path 871" d="M1044.347,109.667a6.337,6.337,0,0,0,.1-1.229v-4.382a6.13,6.13,0,0,0-.1-1.219h3.758l.133.8a3.267,3.267,0,0,0-.915-.1h-2.158v2.391h1.729a5.127,5.127,0,0,0,.867-.052v.781a4.751,4.751,0,0,0-.877-.058h-1.719v1.853a5.392,5.392,0,0,0,.11,1.21Z" transform="translate(-1044.347 -102.674)"/>
        <path id="Path_872" data-name="Path 872" d="M1070.374,115.28a1.834,1.834,0,0,1-1.481-.7,3.287,3.287,0,0,1,0-3.725,1.931,1.931,0,0,1,2.968,0,3.3,3.3,0,0,1,0,3.725A1.86,1.86,0,0,1,1070.374,115.28Zm1-1.119a2.816,2.816,0,0,0,0-2.878,1.185,1.185,0,0,0-1.991,0,2.814,2.814,0,0,0,0,2.878,1.185,1.185,0,0,0,1.991,0Z" transform="translate(-1062.317 -108.169)"/>
        <path id="Path_873" data-name="Path 873" d="M1094.633,113.75v-2a5.4,5.4,0,0,0-.086-1.11h.876a5.149,5.149,0,0,0-.1,1.081V113.6c0,.91.41,1.381,1.12,1.381a1.54,1.54,0,0,0,1.348-1.638v-1.62a4.79,4.79,0,0,0-.09-1.081h.881a4.935,4.935,0,0,0-.1,1.072v2.705a5.093,5.093,0,0,0,.1,1.1h-.881a3.045,3.045,0,0,0,.09-.819v-.2h-.067a1.612,1.612,0,0,1-.577.843,1.527,1.527,0,0,1-.929.3C1095.219,115.636,1094.633,114.988,1094.633,113.75Z" transform="translate(-1081.983 -108.524)"/>
        <path id="Path_874" data-name="Path 874" d="M1121.35,115.162a4.592,4.592,0,0,0,.1-1.072v-2.705a4.761,4.761,0,0,0-.1-1.1h.886a2.739,2.739,0,0,0-.1.819v.2h.067a1.555,1.555,0,0,1,1.515-1.143c1,0,1.577.647,1.577,1.886v1.986a4.737,4.737,0,0,0,.1,1.124h-.886a5.207,5.207,0,0,0,.1-1.091V112.2c0-.91-.415-1.381-1.125-1.381a1.175,1.175,0,0,0-.957.495,1.805,1.805,0,0,0-.386,1.144v1.62a4.416,4.416,0,0,0,.1,1.081Z" transform="translate(-1102.077 -108.169)"/>
        <path id="Path_875" data-name="Path 875" d="M1147.765,109.081a3.089,3.089,0,0,1-.505-1.853,3.15,3.15,0,0,1,.5-1.858,1.544,1.544,0,0,1,1.315-.7,1.444,1.444,0,0,1,.924.319,1.7,1.7,0,0,1,.567.853h.072v-1.806a6.816,6.816,0,0,0-.091-1.2h.877a6.148,6.148,0,0,0-.1,1.2v4.421a6.223,6.223,0,0,0,.1,1.21h-.867a3.777,3.777,0,0,0,.081-.857v-.253h-.072a1.948,1.948,0,0,1-.562.881,1.335,1.335,0,0,1-.919.347A1.55,1.55,0,0,1,1147.765,109.081Zm2.239-.233a1.844,1.844,0,0,0,.467-.724,2.727,2.727,0,0,0,.152-.9c.019-1.01-.5-1.92-1.315-1.91a1.173,1.173,0,0,0-.986.529,2.629,2.629,0,0,0,0,2.758,1.179,1.179,0,0,0,.986.533A.982.982,0,0,0,1150,108.847Z" transform="translate(-1121.502 -102.674)"/>
        <path id="Path_876" data-name="Path 876" d="M1174.087,114.814a1.911,1.911,0,0,1,0-2.453,1.722,1.722,0,0,1,2.077-.214,1.376,1.376,0,0,1,.519.653h.076v-.9c0-.776-.443-1.191-1.286-1.191a2.788,2.788,0,0,0-.762.1,2.246,2.246,0,0,0-.567.229v-.6a3.629,3.629,0,0,1,.648-.2,3.95,3.95,0,0,1,.776-.081c1.177,0,1.877.538,1.877,1.662v2.21a4.773,4.773,0,0,0,.1,1.124h-.867a2.491,2.491,0,0,0,.086-.734v-.057h-.067a1.428,1.428,0,0,1-1.424.91A1.562,1.562,0,0,1,1174.087,114.814Zm2.343-.414a1.11,1.11,0,0,0,.324-.829,1.1,1.1,0,0,0-.338-.791,1.367,1.367,0,0,0-1.767-.029,1.179,1.179,0,0,0,0,1.643,1.193,1.193,0,0,0,.876.319A1.253,1.253,0,0,0,1176.431,114.4Z" transform="translate(-1141.282 -108.169)"/>
        <path id="Path_877" data-name="Path 877" d="M1198.526,108.375v-2.953h-.839v-.576h.839v-1.7l.672-.229v1.934h1.405v.576H1199.2v2.82c0,.672.271.977.838.977a1.465,1.465,0,0,0,.576-.11v.614a1.814,1.814,0,0,1-.672.119A1.282,1.282,0,0,1,1198.526,108.375Z" transform="translate(-1159.308 -102.73)"/>
        <path id="Path_878" data-name="Path 878" d="M1218.862,103.142a.467.467,0,0,1-.343-.138.5.5,0,0,1,0-.676.466.466,0,0,1,.343-.138.5.5,0,0,1,.353.138.48.48,0,0,1,0,.676A.5.5,0,0,1,1218.862,103.142Zm-.438,6.04a5.476,5.476,0,0,0,.1-1.143v-2.768a5.082,5.082,0,0,0-.062-.967,1.116,1.116,0,0,0,.409.052,1.292,1.292,0,0,0,.4-.052,5.438,5.438,0,0,0-.057.967v2.768a5.148,5.148,0,0,0,.1,1.143Z" transform="translate(-1174.827 -102.189)"/>
        <path id="Path_879" data-name="Path 879" d="M1234.033,115.28a1.836,1.836,0,0,1-1.482-.7,3.285,3.285,0,0,1,.005-3.725,1.931,1.931,0,0,1,2.968,0,3.3,3.3,0,0,1,0,3.725A1.861,1.861,0,0,1,1234.033,115.28Zm1-1.119a2.814,2.814,0,0,0,0-2.878,1.185,1.185,0,0,0-1.991,0,2.816,2.816,0,0,0,0,2.878,1.185,1.185,0,0,0,1.991,0Z" transform="translate(-1185.014 -108.169)"/>
        <path id="Path_880" data-name="Path 880" d="M1258.285,115.162a4.608,4.608,0,0,0,.1-1.072v-2.705a4.778,4.778,0,0,0-.1-1.1h.886a2.743,2.743,0,0,0-.1.819v.2h.067a1.556,1.556,0,0,1,1.515-1.143c1,0,1.577.647,1.577,1.886v1.986a4.73,4.73,0,0,0,.1,1.124h-.886a5.192,5.192,0,0,0,.1-1.091V112.2c0-.91-.414-1.381-1.124-1.381a1.175,1.175,0,0,0-.958.495,1.805,1.805,0,0,0-.386,1.144v1.62a4.422,4.422,0,0,0,.1,1.081Z" transform="translate(-1204.739 -108.169)"/>
      </g>
    </g>
  </g>
</svg>
