<svg xmlns="http://www.w3.org/2000/svg" width="157.044" height="82.282" viewBox="0 0 157.044 82.282">
  <g id="Group_1233" data-name="Group 1233" transform="translate(0)">
    <path id="Path_981" data-name="Path 981" d="M91.652,216.28a31.766,31.766,0,0,0,6.991,2.609v-1.946a27.752,27.752,0,0,1-7.237-3Z" transform="translate(-67.595 -153.981)"/>
    <path id="Path_982" data-name="Path 982" d="M91.652,228.114a31.766,31.766,0,0,0,6.991,2.609v-1.946a27.752,27.752,0,0,1-7.237-3Z" transform="translate(-67.595 -162.454)"/>
    <path id="Path_983" data-name="Path 983" d="M305.625,64.036l-5.016-10.852h-2.547V80.271l4.158-.015V64.78l3.227,6.442,3.476-6.472V80.182h4.125V53.243h-2.519Z" transform="translate(-215.547 -38.891)"/>
    <rect id="Rectangle_419" data-name="Rectangle 419" width="4.158" height="27.088" transform="translate(100.644 14.292)"/>
    <path id="Path_984" data-name="Path 984" d="M385.818,64.3a20.963,20.963,0,0,1,1.547,6.27,9.38,9.38,0,0,1-.615,3.6A12.683,12.683,0,0,1,384.7,77.24l3.343,2.967a13.565,13.565,0,0,0,4.108-9.828,28.13,28.13,0,0,0-1.846-6.413,23.482,23.482,0,0,1-1.646-5.424,6.332,6.332,0,0,1,1.746-4.645l-3.742-1.663a7.216,7.216,0,0,0-2,2.712,7.611,7.611,0,0,0-.482,2.562,6.409,6.409,0,0,0,.083,1.034A21.491,21.491,0,0,0,385.818,64.3Z" transform="translate(-277.207 -38.211)"/>
    <path id="Path_985" data-name="Path 985" d="M421.05,80.347h4.208v-23.3H429.4V53.289H416.859v3.761h4.191Z" transform="translate(-300.597 -38.966)"/>
    <path id="Path_986" data-name="Path 986" d="M479.767,76.421h-5.821V68.945h3.709v-3.7h-3.709v-8.3h5.405V53.183h-9.563V80.271h9.979Z" transform="translate(-338.49 -38.891)"/>
    <path id="Path_987" data-name="Path 987" d="M521.358,71.365q3.227-2.921,3.642-5.229a13.071,13.071,0,0,0,.2-2.292,14.74,14.74,0,0,0-.2-2.4,10.648,10.648,0,0,0-2.694-4.869,9.88,9.88,0,0,0-6.32-3.236h-2.345V80.325h4.091V73.058l4.175,7.3,5.023.015Zm-1.148-4.614a3.291,3.291,0,0,1-2.478,1.663V58.105a6.131,6.131,0,0,1,2.561,2.472,7.52,7.52,0,0,1,.648,3.371A5.32,5.32,0,0,1,520.211,66.751Z" transform="translate(-369.886 -39.004)"/>
    <path id="Path_988" data-name="Path 988" d="M305.625,177.195l-5.016-10.852h-2.547v27.088l4.158-.015V177.94l3.227,6.442,3.476-6.472v15.432h4.125V166.4h-2.519Z" transform="translate(-215.547 -119.905)"/>
    <path id="Path_989" data-name="Path 989" d="M365.607,166.343l-6.536,27.088,4.158-.015,1.065-3.821h5.239l1.014,3.746h4.125l-6.487-27Zm-.615,19.552,1.856-7.412,1.8,7.412Z" transform="translate(-259.225 -119.905)"/>
    <path id="Path_990" data-name="Path 990" d="M430.45,166.492,424.4,178.4l.017-12.061h-4.158v27.088h4.175l-.033-11.3,6.054,11.312,4.574.015-7-13.424,7.085-13.514Z" transform="translate(-303.028 -119.905)"/>
    <path id="Path_991" data-name="Path 991" d="M486.043,166.343l-6.536,27.088,4.158-.015,1.065-3.821h5.239l1.014,3.746h4.125l-6.487-27Zm-.615,19.552,1.856-7.412,1.8,7.412Z" transform="translate(-345.449 -119.905)"/>
    <path id="Path_992" data-name="Path 992" d="M77.374,45.871A18.207,18.207,0,0,0,84,32.3a1.182,1.182,0,0,0-.682-1.032,13.786,13.786,0,0,0-7.061-.86,21.821,21.821,0,0,0,.374-10.463,1.182,1.182,0,0,0-.953-.855,15.963,15.963,0,0,0-7.706,1.1c-.019-.4-.046-.793-.082-1.167a22.778,22.778,0,0,0-2.968-9.533,1.18,1.18,0,0,0-1.227-.516,19.193,19.193,0,0,0-8.856,5.191c-.305-.834-.633-1.605-.97-2.311a23.648,23.648,0,0,0-6.877-8.767,1.181,1.181,0,0,0-1.357,0,23.638,23.638,0,0,0-6.869,8.749c-.369.772-.691,1.55-.978,2.329a19.193,19.193,0,0,0-8.855-5.191,1.18,1.18,0,0,0-1.227.516,22.781,22.781,0,0,0-2.968,9.533c-.036.374-.063.765-.082,1.167a15.975,15.975,0,0,0-7.707-1.1,1.181,1.181,0,0,0-.953.855,20.748,20.748,0,0,0-.127,8.455c.114.631.267,1.3.464,2a13.791,13.791,0,0,0-7.024.865,1.182,1.182,0,0,0-.683,1.077,18.538,18.538,0,0,0,6.959,13.522,14.1,14.1,0,0,0-7.632,3.168,1.182,1.182,0,0,0-.263,1.331c.148.335,3.471,7.551,13.708,7.895-4.571,18.048,4.466,26.249,4.866,26.6a1.182,1.182,0,0,0,1.56,0,18.292,18.292,0,0,0,4.186-6.482,1.178,1.178,0,0,0,.091-.232c.194-.489.383-1,.558-1.544a82.009,82.009,0,0,0,7.473,4.813c3.524,1.9,5.243,1.979,5.879,1.9h.61a2.77,2.77,0,0,0,.333.018c.82,0,2.517-.288,5.546-1.921A80.2,80.2,0,0,0,59.688,76.8c.153.463.316.9.482,1.319a1.18,1.18,0,0,0,.115.287,18.327,18.327,0,0,0,4.171,6.454,1.182,1.182,0,0,0,1.56,0c.4-.351,9.435-8.55,4.868-26.593,10.5-.192,13.9-7.563,14.05-7.9a1.182,1.182,0,0,0-.263-1.331A13.61,13.61,0,0,0,77.374,45.871Zm4.439,3.978c-.858.02-1.709.078-2.555.158-1.51.151-3,.378-4.487.67-.5.1-1,.207-1.5.322,0-.084.009-.165.009-.249a9.824,9.824,0,0,0-.266-2.284l.023.051c.218-.1.425-.2.634-.306A12.628,12.628,0,0,1,81.813,49.849Zm-.522-16.787c-.985.505-1.935,1.058-2.865,1.636q-2.093,1.316-4.053,2.808t-3.8,3.145a36.75,36.75,0,0,0-2.693,2.7c-.184-.132-.366-.266-.555-.394a23.822,23.822,0,0,0,8.041-9.994A12.256,12.256,0,0,1,81.291,33.062ZM70.624,36.505a8.485,8.485,0,0,1-3.5-.006s.114.98,1.93,1.813a25.729,25.729,0,0,1-3.91,3.3,33.257,33.257,0,0,0-4.082-1.922c.527-.665,1.008-1.324,1.463-1.979q.879-.911,1.726-1.847,2.145-2.389,4.116-4.915t3.782-5.176c.855-1.269,1.684-2.559,2.452-3.9A19.5,19.5,0,0,1,70.624,36.505ZM52.235,42.312h0c0,.026,0,.054.007.08v0a5.746,5.746,0,0,1,.036.609,5.9,5.9,0,0,1-.124,1.187c0,.014-.006.027-.009.04q-.053.25-.126.492c-.01.034-.02.067-.031.1q-.067.208-.15.41c-.017.043-.034.088-.052.131-.055.126-.115.248-.178.369-.055.106-.113.208-.174.31-.047.079-.093.16-.144.237s-.124.176-.188.263c-.028.038-.053.078-.082.115h0a6,6,0,0,1-.958.954V38.379a6,6,0,0,1,1.192,1.286h0a5.905,5.905,0,0,1,.7,1.432c.016.049.037.1.052.145.036.117.063.237.092.357.018.075.04.149.055.225,0,.015.008.029.011.043h0C52.2,42.014,52.217,42.162,52.235,42.312ZM60.345,55.42s-2.549,4.762-8.593,1.347A21.192,21.192,0,0,1,60.345,55.42Zm-6.736-8.4a8.349,8.349,0,0,0,.562-1.258,24.373,24.373,0,0,1,5.667,1.706,34.065,34.065,0,0,1,4.715,2.509c-.017.23-.032.461-.033.7A37.029,37.029,0,0,0,53.609,47.024Zm6.5-.292a24.882,24.882,0,0,0-5.9-1.079A8.275,8.275,0,0,0,54.647,43c0-.059-.007-.115-.008-.173q1.145.291,2.267.65a42.655,42.655,0,0,1,8.285,3.74,8.242,8.242,0,0,0-.418,1.318A34.819,34.819,0,0,0,60.108,46.732ZM57.12,42.723q-1.248-.305-2.516-.524a8.383,8.383,0,0,0-.481-2.075,32.21,32.21,0,0,1,12.345,5.116,5.209,5.209,0,0,0-.579.7A43.762,43.762,0,0,0,57.12,42.723ZM67.956,22.762a14.955,14.955,0,0,1,6.319-1.4C73.1,22.469,72,23.635,70.93,24.822q-2.145,2.389-4.118,4.914c-.136.173-.269.349-.4.524A26.636,26.636,0,0,0,67.956,22.762ZM63.135,11.6c-.931,1.784-1.767,3.6-2.572,5.434q-1.523,3.509-2.839,7.095-.665,1.8-1.279,3.623a31.879,31.879,0,0,0-.8-10.995A18.437,18.437,0,0,1,63.135,11.6Zm-6.4,20.3q1.523-3.509,2.836-7.1t2.439-7.242c.558-1.865,1.09-3.739,1.531-5.647a22.885,22.885,0,0,1,1.13,16.022,10.207,10.207,0,0,1-3.558.654,8.706,8.706,0,0,0,2.6,2.1,31.993,31.993,0,0,1-5.018,8.166,39.212,39.212,0,0,0-4.453-1.118q.262-.771.49-1.523C55.438,34.793,56.1,33.352,56.735,31.9ZM51.789,12.986a25.817,25.817,0,0,1,2.2,7.428,7.247,7.247,0,0,1-2.719,2.895,5.807,5.807,0,0,0,2.976-.115,37.907,37.907,0,0,1-2.233,13.745,8.3,8.3,0,0,0-5.3-2.251c.162-1.681.279-3.362.371-5.043q.216-4.266.21-8.531t-.213-8.531c-.126-2.273-.287-4.545-.554-6.818A23.119,23.119,0,0,1,51.789,12.986ZM46.31,37.037a5.951,5.951,0,0,1,2.184.412L46.345,42.7l-2.19-5.26A5.951,5.951,0,0,1,46.31,37.037Zm1.466,11.751c-.05.013-.1.022-.151.034s-.108.026-.163.036a5.635,5.635,0,0,1-2.3,0c-.055-.011-.108-.024-.162-.036s-.1-.022-.153-.034h.018c-.076-.019-.146-.054-.221-.076v-5.6L46.256,46.7,48,43.1v5.609c-.081.024-.157.061-.239.082ZM40.84,12.969a23.119,23.119,0,0,1,5.252-7.2c-.267,2.273-.428,4.545-.553,6.818q-.216,4.266-.213,8.531t.21,8.531c.092,1.681.209,3.362.371,5.043a8.3,8.3,0,0,0-5.3,2.251,44.121,44.121,0,0,1-1.757-6.866,7.67,7.67,0,0,0,2.766-2.3,5.681,5.681,0,0,1-3.041.354A27.621,27.621,0,0,1,40.84,12.969Zm1.717,25.409v9.233a5.978,5.978,0,0,1-.959-.955h0c-.029-.037-.054-.076-.082-.114-.064-.087-.129-.174-.189-.264-.049-.074-.093-.152-.139-.229-.063-.1-.123-.211-.18-.32s-.122-.241-.176-.365c-.019-.044-.035-.089-.053-.134-.054-.133-.1-.268-.148-.406-.011-.034-.022-.069-.032-.1q-.073-.24-.125-.487l-.01-.044a5.874,5.874,0,0,1,.6-4.028l0,0c.092-.169.189-.335.3-.494h0A6,6,0,0,1,42.556,38.379ZM31.247,44.012a23.884,23.884,0,0,0-4.318,2.045,5.245,5.245,0,0,0-.71-.864A32.245,32.245,0,0,1,38.5,40.124a8.254,8.254,0,0,0,.514,6.9,37.09,37.09,0,0,0-10.8,3.593,9.2,9.2,0,0,0-.653-3.358,22.67,22.67,0,0,1,3.995-2.523,33.375,33.375,0,0,1,6.193-2.325A33.773,33.773,0,0,0,31.247,44.012Zm5.727-27.263a31.816,31.816,0,0,0-.787,11.036q-.62-1.839-1.291-3.659-1.321-3.584-2.839-7.095c-.806-1.833-1.643-3.654-2.576-5.44A18.29,18.29,0,0,1,36.974,16.749Zm-7.9-4.856c.442,1.916.975,3.8,1.536,5.671q1.116,3.659,2.439,7.242t2.836,7.1c.633,1.442,1.291,2.875,2,4.291.16.53.328,1.043.5,1.546a39.242,39.242,0,0,0-4.449,1.118,31.835,31.835,0,0,1-5.406-9.062,25.716,25.716,0,0,0,2.586-2.4,7.148,7.148,0,0,1-3.117.845A22.4,22.4,0,0,1,29.073,11.894ZM24.664,22.762A26.6,26.6,0,0,0,26.2,30.249c-.132-.171-.263-.344-.4-.514q-1.976-2.521-4.118-4.914c-1.075-1.188-2.177-2.356-3.349-3.468A14.782,14.782,0,0,1,24.664,22.762Zm-6.642-.885c.769,1.337,1.6,2.627,2.453,3.9q1.8,2.656,3.782,5.176t4.115,4.915q.837.925,1.7,1.825c.458.662.956,1.329,1.488,2a33.3,33.3,0,0,0-4.09,1.925c-.713-.495-1.375-1-1.99-1.515a5.69,5.69,0,0,0,1.936-2.661,11.632,11.632,0,0,1-3.332,1.4A19.662,19.662,0,0,1,18.022,21.876Zm-.8,11.075a24.076,24.076,0,0,0,8.072,10c-.189.128-.37.263-.555.4a36.767,36.767,0,0,0-2.694-2.7q-1.831-1.661-3.8-3.145T14.194,34.7c-.932-.58-1.884-1.134-2.872-1.64A12.135,12.135,0,0,1,17.22,32.951Zm2.3,15.346.219.105a9.8,9.8,0,0,0-.282,2.347c0,.094.007.185.009.277-.536-.125-1.074-.244-1.614-.35-1.482-.292-2.977-.519-4.487-.67-.841-.08-1.686-.137-2.538-.158A12.837,12.837,0,0,1,19.517,48.3Zm-1.549,7.129a4.088,4.088,0,0,0-.836-1.965,7.611,7.611,0,0,1-.351,1.622,12.407,12.407,0,0,1-6.147-4.391c.8.308,1.614.58,2.429.828,1.454.435,2.923.793,4.4,1.087.744.148,1.492.271,2.243.383a7.111,7.111,0,0,0,1.341,2.882A16.9,16.9,0,0,1,17.968,55.426Zm2.724-9.3c-.146-.03-.293-.063-.437-.088a16.683,16.683,0,0,1-6.374-5.392,6.434,6.434,0,0,0,.711-2.466,3.828,3.828,0,0,1-1.71.842,16.582,16.582,0,0,1-1.746-5.173c.685.725,1.4,1.414,2.125,2.082q1.831,1.661,3.8,3.147t4.051,2.81c1.025.639,2.071,1.25,3.169,1.794q-.329.245-.649.5A3.9,3.9,0,0,0,20.692,46.122Zm3.146.4c.934,0,2.02,1.846,2.02,4.227s-1.086,4.227-2.02,4.227-2.021-1.846-2.021-4.227S22.9,46.523,23.838,46.523Zm.012,11.7v4.976c.005.607.111,5.885,2.213,8.208.011,1.31.047,2.621.114,3.931a7.96,7.96,0,0,0-2.466.767C22.373,72.058,21.718,66.174,23.849,58.218ZM27.039,81.5,24.793,78.2a4.771,4.771,0,0,1,4.491,0Zm3.3-5.419a7.952,7.952,0,0,0-2.434-.751c.038-.743.064-1.487.084-2.23.758.611,1.663,1.306,2.645,2.033C30.538,75.464,30.439,75.778,30.337,76.085Zm17.1.845a.811.811,0,0,1-.518.187H46.3l-.011,3.836h-.377c-.132,0-.139-.017-.237.018h0c-.253,0-1.551-.087-4.429-1.638a102.36,102.36,0,0,1-11.5-7.851c-1.239-3.417-1.632-8.447-1.049-10.007.76-2.035,2.4-3.457,4.951-2.56a7.833,7.833,0,0,0,6.709-.722c-.643,1.313-4.477,4.333-4.477,4.333s4.07-2.035,5.741-2.823a2.43,2.43,0,0,0,1.171-1.284v.005L45,53.226l-2.823,1.584-5.974-2.174L32.04,54.058,30.6,52.068A35.829,35.829,0,0,1,40.7,49.151,8.275,8.275,0,0,0,49.723,50.6a9.144,9.144,0,0,1-3.432,4.506v13.81s-5.819-.354-3.981-2.979a9.737,9.737,0,0,0-1.51,1.9c-.328.722,4,2.888,5.054,3.151l-1.641,1.772-5.059-.722,7.155,2.819,6.828-2.68Zm-15.4-21.424a21.192,21.192,0,0,1,8.593,1.347C34.59,60.268,32.041,55.506,32.041,55.506Zm22.3,18.628s2.245-8.178-3.713-13.446c-.111-.1,8.151,1.625,12.716-1.428,0,0,.184,6.468-1.983,9.659S54.343,74.134,54.343,74.134ZM61.7,75.348c.949-.7,1.832-1.37,2.593-1.973.019.653.044,1.306.077,1.96a7.957,7.957,0,0,0-2.437.753C61.855,75.846,61.777,75.6,61.7,75.348ZM65.236,81.5,62.99,78.2a4.772,4.772,0,0,1,4.491,0Zm3.327-5.4a7.965,7.965,0,0,0-2.464-.766c.061-1.193.1-2.386.111-3.579.073-.069.143-.135.2-.2,2.242-2.235,2.351-7.742,2.356-8.372V59.6C70.476,66.86,69.821,72.295,68.563,76.1ZM68.9,54.976c-.934,0-2.02-1.846-2.02-4.227s1.086-4.227,2.02-4.227,2.021,1.846,2.021,4.227S69.835,54.976,68.9,54.976Zm.069-10.812c-.207-.164-.418-.324-.63-.483,1.1-.544,2.146-1.156,3.173-1.8q2.093-1.316,4.051-2.81t3.8-3.147c.753-.69,1.489-1.4,2.195-2.156a15.777,15.777,0,0,1-1.727,5.539,9.459,9.459,0,0,1-2.659.139c-.086.577.723,1.443,1.3,1.976a16.34,16.34,0,0,1-6.3,4.891A3.937,3.937,0,0,0,68.969,44.164Zm9.011,9.984a21.868,21.868,0,0,1-2.734-.75,4.844,4.844,0,0,0,1.024,1.522,15.9,15.9,0,0,1-4.581.947,7.124,7.124,0,0,0,1.346-2.894c.708-.108,1.414-.226,2.116-.366,1.482-.294,2.95-.653,4.4-1.087.814-.248,1.623-.519,2.425-.827A12.064,12.064,0,0,1,77.98,54.149Z" transform="translate(-7.586 -2.871)"/>
  </g>
</svg>
