<svg id="Group_1237" data-name="Group 1237" xmlns="http://www.w3.org/2000/svg" width="197.747" height="79.447" viewBox="0 0 197.747 79.447">
  <g id="Group_1234" data-name="Group 1234">
    <path id="Path_993" data-name="Path 993" d="M275.071,297.73a8.875,8.875,0,0,0,1.659.542,8.5,8.5,0,0,0,1.85.192,7.407,7.407,0,0,0,3.158-.639,6.343,6.343,0,0,0,2.3-1.786,7.969,7.969,0,0,0,1.4-2.743,12.293,12.293,0,0,0,.479-3.54,10.6,10.6,0,0,0-.59-3.637,7.525,7.525,0,0,0-1.706-2.759,7.61,7.61,0,0,0-2.743-1.754,10.3,10.3,0,0,0-3.7-.622q-.861,0-1.8.079t-1.85.208q-.909.128-1.739.3t-1.467.368v22.1h4.753Zm0-12.535q.351-.063.893-.112t1.18-.048a3.433,3.433,0,0,1,2.934,1.324,5.754,5.754,0,0,1,.988,3.525q0,4.562-3.38,4.561a5.592,5.592,0,0,1-1.451-.192,4.11,4.11,0,0,1-1.164-.478Z" transform="translate(-232.425 -249.765)"/>
    <path id="Path_994" data-name="Path 994" d="M275.047,219.434v-.005H195.611v.005h-.005V298.87h.005v.005h79.436v-.005h.005V219.434Zm-4.392,75.045H200V223.826h70.653Z" transform="translate(-195.606 -219.429)"/>
    <path id="Path_995" data-name="Path 995" d="M308.787,296.463a7.447,7.447,0,0,0,2.727,1.866,10.325,10.325,0,0,0,3.955.686,13.727,13.727,0,0,0,2.743-.255,11.217,11.217,0,0,0,2.073-.607l-.67-3.891a7.855,7.855,0,0,1-1.818.51,11.639,11.639,0,0,1-1.85.16,4.075,4.075,0,0,1-3.4-1.244,5.577,5.577,0,0,1-.972-3.508,5.385,5.385,0,0,1,1.036-3.445,3.766,3.766,0,0,1,3.142-1.309,7.658,7.658,0,0,1,1.786.192,11.8,11.8,0,0,1,1.467.447l.989-3.8a12.133,12.133,0,0,0-1.185-.426l-10.59,3.133a8.422,8.422,0,0,0-.9,1.773,9.883,9.883,0,0,0-.59,3.43,11.845,11.845,0,0,0,.495,3.492A7.274,7.274,0,0,0,308.787,296.463Z" transform="translate(-250.369 -250.188)"/>
    <path id="Path_996" data-name="Path 996" d="M220.86,285.2q.447-.063.925-.112t.925-.048a2.19,2.19,0,0,1,2.026.957,6.558,6.558,0,0,1,.59,3.253v6.619l4.753-1.406V288.99q0-.925-.064-1.739a7.3,7.3,0,0,0-.287-1.546,4.168,4.168,0,0,1,1.132-.478,4.294,4.294,0,0,1,1.069-.192,2.189,2.189,0,0,1,2.025.957,6.551,6.551,0,0,1,.59,3.253v3.892l4.752-1.405v-3.06a15.621,15.621,0,0,0-.287-3.126,5.973,5.973,0,0,0-1.052-2.423,4.964,4.964,0,0,0-2.057-1.579,8.388,8.388,0,0,0-3.3-.558,8.894,8.894,0,0,0-4.784,1.563,6.7,6.7,0,0,0-1.866-1.1,7.929,7.929,0,0,0-2.95-.462q-.925,0-1.882.079t-1.865.224q-.909.143-1.722.319t-1.42.335v16.65l4.752-1.406Z" transform="translate(-205.71 -249.765)"/>
  </g>
  <g id="Group_1235" data-name="Group 1235" transform="translate(97.436 23.554)">
    <path id="Path_997" data-name="Path 997" d="M396.931,289.084a6.552,6.552,0,0,0-.59-3.252,2.187,2.187,0,0,0-2.024-.956q-.447,0-.925.048t-.924.112v12.942h-4.749V281.785q.6-.16,1.419-.335t1.721-.319q.909-.143,1.865-.223t1.881-.08a7.906,7.906,0,0,1,2.948.463,6.66,6.66,0,0,1,1.865,1.1,8.889,8.889,0,0,1,4.781-1.562,8.375,8.375,0,0,1,3.3.558,4.976,4.976,0,0,1,2.056,1.578,5.975,5.975,0,0,1,1.052,2.422,15.646,15.646,0,0,1,.287,3.124v9.467h-4.749v-8.893a6.559,6.559,0,0,0-.589-3.252,2.188,2.188,0,0,0-2.024-.956,4.289,4.289,0,0,0-1.068.191,4.161,4.161,0,0,0-1.132.478,7.253,7.253,0,0,1,.287,1.546q.064.813.064,1.737v9.149h-4.749Z" transform="translate(-387.719 -273.242)"/>
    <path id="Path_998" data-name="Path 998" d="M456.8,289.5a10.917,10.917,0,0,1-.573,3.618,7.85,7.85,0,0,1-1.658,2.805,7.464,7.464,0,0,1-2.6,1.8,8.67,8.67,0,0,1-3.395.638,8.581,8.581,0,0,1-3.363-.638,7.451,7.451,0,0,1-2.6-1.8,8.229,8.229,0,0,1-1.689-2.805,10.37,10.37,0,0,1-.606-3.618,10,10,0,0,1,.622-3.6,8.169,8.169,0,0,1,1.721-2.773,7.737,7.737,0,0,1,2.615-1.785,8.418,8.418,0,0,1,3.3-.637,8.51,8.51,0,0,1,3.331.637,7.581,7.581,0,0,1,2.6,1.785A8.111,8.111,0,0,1,456.2,285.9,10.258,10.258,0,0,1,456.8,289.5Zm-4.845,0a5.97,5.97,0,0,0-.877-3.459,2.867,2.867,0,0,0-2.5-1.259,2.907,2.907,0,0,0-2.518,1.259,5.892,5.892,0,0,0-.893,3.459,6.047,6.047,0,0,0,.893,3.49,2.884,2.884,0,0,0,2.518,1.291,2.844,2.844,0,0,0,2.5-1.291A6.127,6.127,0,0,0,451.957,289.5Z" transform="translate(-413.643 -273.18)"/>
    <path id="Path_999" data-name="Path 999" d="M495.629,282.222a10.6,10.6,0,0,1-.589,3.634,7.682,7.682,0,0,1-1.705,2.773,7.506,7.506,0,0,1-2.741,1.769,10.3,10.3,0,0,1-3.7.622q-.861,0-1.8-.08t-1.849-.207q-.908-.128-1.737-.3t-1.466-.367V266.635l4.749-.765v8.351a8.946,8.946,0,0,1,1.658-.542,8.52,8.52,0,0,1,1.848-.191,7.572,7.572,0,0,1,3.156.622,6.18,6.18,0,0,1,2.294,1.769,7.96,7.96,0,0,1,1.4,2.758A12.564,12.564,0,0,1,495.629,282.222Zm-4.845-.127q0-4.59-3.379-4.59a5.615,5.615,0,0,0-1.451.191,4.123,4.123,0,0,0-1.164.478v8.638c.234.043.531.079.893.112s.754.048,1.179.048a3.412,3.412,0,0,0,2.933-1.339A5.822,5.822,0,0,0,490.784,282.095Z" transform="translate(-433.217 -265.87)"/>
    <path id="Path_1000" data-name="Path 1000" d="M522.733,269.3a2.608,2.608,0,0,1-.844,2.056,3.024,3.024,0,0,1-3.984,0,2.925,2.925,0,0,1,0-4.112,3.024,3.024,0,0,1,3.984,0A2.609,2.609,0,0,1,522.733,269.3Zm-.446,21.612h-4.749V274.149h4.749Z" transform="translate(-451.461 -266.18)"/>
    <path id="Path_1001" data-name="Path 1001" d="M542.858,290.925a11.9,11.9,0,0,1-3.363-.446,4.987,4.987,0,0,1-2.04-1.164,3.862,3.862,0,0,1-1.02-1.817,9.808,9.808,0,0,1-.271-2.407V266.635l4.749-.765v18.265a6.24,6.24,0,0,0,.1,1.147,1.985,1.985,0,0,0,.366.861,1.935,1.935,0,0,0,.781.574,4.273,4.273,0,0,0,1.371.287Z" transform="translate(-460.875 -265.87)"/>
    <path id="Path_1002" data-name="Path 1002" d="M554.452,289.66a10.244,10.244,0,0,1,.686-3.9,8.37,8.37,0,0,1,1.8-2.789,7.492,7.492,0,0,1,2.566-1.689,8.033,8.033,0,0,1,2.98-.574,7.408,7.408,0,0,1,5.642,2.183q2.072,2.183,2.072,6.422c0,.277-.011.579-.031.909s-.043.621-.064.876H559.329a3.154,3.154,0,0,0,1.371,2.327,5.508,5.508,0,0,0,3.251.861,13.784,13.784,0,0,0,2.566-.239,9.683,9.683,0,0,0,2.056-.59l.638,3.857a6.563,6.563,0,0,1-1.02.383,13.345,13.345,0,0,1-1.419.334q-.781.144-1.674.239a16.692,16.692,0,0,1-1.785.1,10.575,10.575,0,0,1-3.937-.669,7.67,7.67,0,0,1-2.773-1.833,7.277,7.277,0,0,1-1.625-2.758A10.921,10.921,0,0,1,554.452,289.66Zm11.156-1.817a4.922,4.922,0,0,0-.207-1.18,2.959,2.959,0,0,0-.542-1.02,2.883,2.883,0,0,0-.925-.733,3.01,3.01,0,0,0-1.386-.287,3.2,3.2,0,0,0-1.371.271,2.837,2.837,0,0,0-.956.717,3.209,3.209,0,0,0-.59,1.036,6.748,6.748,0,0,0-.3,1.2Z" transform="translate(-469.888 -273.18)"/>
  </g>
  <g id="Group_1236" data-name="Group 1236" transform="translate(97.307 58.782)">
    <path id="Path_1003" data-name="Path 1003" d="M393.06,341.7a4.4,4.4,0,0,1-.172,1.27,2.846,2.846,0,0,1-.5.984,2.28,2.28,0,0,1-.824.641,2.656,2.656,0,0,1-1.133.229,3.032,3.032,0,0,1-.664-.069,3.2,3.2,0,0,1-.595-.194v2.266h-1.705V338.9q.229-.068.526-.131t.623-.109q.326-.046.664-.075c.225-.019.441-.028.646-.028a3.7,3.7,0,0,1,1.328.223,2.625,2.625,0,0,1,1.6,1.619A3.809,3.809,0,0,1,393.06,341.7Zm-1.74.046a2.067,2.067,0,0,0-.354-1.265,1.231,1.231,0,0,0-1.053-.474q-.229,0-.423.017t-.321.04v3.079a1.48,1.48,0,0,0,.417.171,2,2,0,0,0,.521.069Q391.32,343.384,391.32,341.748Z" transform="translate(-387.464 -336.919)"/>
    <path id="Path_1004" data-name="Path 1004" d="M407.67,338.51a3.948,3.948,0,0,1,1.259.172,1.948,1.948,0,0,1,.806.491,1.807,1.807,0,0,1,.429.779,3.825,3.825,0,0,1,.126,1.018v3.547q-.366.081-1.018.19a9.839,9.839,0,0,1-1.579.108,4.983,4.983,0,0,1-1.059-.1,2.278,2.278,0,0,1-.818-.337,1.543,1.543,0,0,1-.526-.612,2.119,2.119,0,0,1-.183-.927,1.76,1.76,0,0,1,.211-.893,1.633,1.633,0,0,1,.567-.583,2.564,2.564,0,0,1,.812-.314,4.553,4.553,0,0,1,.95-.1,5.452,5.452,0,0,1,.589.029,2.661,2.661,0,0,1,.418.075v-.16a.946.946,0,0,0-.264-.7,1.274,1.274,0,0,0-.915-.263,5.883,5.883,0,0,0-.858.063,3.688,3.688,0,0,0-.732.177l-.218-1.373q.148-.046.372-.1c.149-.034.311-.064.486-.091s.361-.05.555-.069S407.472,338.51,407.67,338.51Zm.137,4.989c.168,0,.328,0,.48-.012a3.253,3.253,0,0,0,.367-.034V342.16c-.069-.015-.172-.03-.309-.046a3.376,3.376,0,0,0-.83.006,1.176,1.176,0,0,0-.372.109.635.635,0,0,0-.252.217.6.6,0,0,0-.092.343.584.584,0,0,0,.269.555A1.483,1.483,0,0,0,407.808,343.5Z" transform="translate(-396.159 -336.897)"/>
    <path id="Path_1005" data-name="Path 1005" d="M426.806,340.214q-.229-.057-.538-.12a3.318,3.318,0,0,0-.664-.063,3.128,3.128,0,0,0-.383.028,2.186,2.186,0,0,0-.337.063v4.6h-1.705v-5.7a10.264,10.264,0,0,1,1.081-.3,6.263,6.263,0,0,1,1.391-.143q.136,0,.332.017t.389.046c.129.019.259.042.389.069a1.874,1.874,0,0,1,.332.1Z" transform="translate(-405.065 -336.93)"/>
    <path id="Path_1006" data-name="Path 1006" d="M437.393,335.6l1.7-.274V337.1h2.049v1.419H439.1v2.117a1.682,1.682,0,0,0,.189.858.81.81,0,0,0,.761.321,3.236,3.236,0,0,0,.566-.051,2.9,2.9,0,0,0,.533-.144l.24,1.327a4.762,4.762,0,0,1-.687.218,3.984,3.984,0,0,1-.927.092,3.051,3.051,0,0,1-1.155-.189,1.815,1.815,0,0,1-.733-.526,1.962,1.962,0,0,1-.383-.819,4.853,4.853,0,0,1-.108-1.064Z" transform="translate(-412.07 -335.329)"/>
    <path id="Path_1007" data-name="Path 1007" d="M453.711,343.465a1.7,1.7,0,0,0,.664-.091.354.354,0,0,0,.195-.355.436.436,0,0,0-.252-.361,4.808,4.808,0,0,0-.767-.348,7.791,7.791,0,0,1-.727-.309,2.139,2.139,0,0,1-.554-.383,1.553,1.553,0,0,1-.355-.533,1.961,1.961,0,0,1-.126-.744,1.608,1.608,0,0,1,.63-1.339,2.739,2.739,0,0,1,1.728-.492,5.533,5.533,0,0,1,1.052.1,4.926,4.926,0,0,1,.8.211l-.3,1.327a6.258,6.258,0,0,0-.647-.183,3.554,3.554,0,0,0-.784-.08q-.8,0-.8.446a.46.46,0,0,0,.034.183.394.394,0,0,0,.137.155,1.9,1.9,0,0,0,.28.161q.178.087.452.19a7.064,7.064,0,0,1,.927.41,2.217,2.217,0,0,1,.578.436,1.357,1.357,0,0,1,.3.519,2.319,2.319,0,0,1,.086.662,1.525,1.525,0,0,1-.67,1.347,3.334,3.334,0,0,1-1.893.457,5.428,5.428,0,0,1-1.333-.137,5.316,5.316,0,0,1-.738-.229l.286-1.384a5.643,5.643,0,0,0,.893.269A4.335,4.335,0,0,0,453.711,343.465Z" transform="translate(-419.085 -336.897)"/>
    <path id="Path_1008" data-name="Path 1008" d="M477.732,341.68a3.553,3.553,0,0,1,.211-1.23,2.878,2.878,0,0,1,1.585-1.687,3.209,3.209,0,0,1,1.3-.252,4.17,4.17,0,0,1,.881.086,4.291,4.291,0,0,1,.778.245l-.355,1.362a4.309,4.309,0,0,0-.526-.161,2.765,2.765,0,0,0-.641-.069,1.35,1.35,0,0,0-1.127.47,1.928,1.928,0,0,0-.372,1.236,2,2,0,0,0,.349,1.258,1.461,1.461,0,0,0,1.218.446,4.2,4.2,0,0,0,.664-.057,2.808,2.808,0,0,0,.652-.184l.24,1.4a4.054,4.054,0,0,1-.744.218,4.914,4.914,0,0,1-.984.091,3.7,3.7,0,0,1-1.419-.246,2.67,2.67,0,0,1-.978-.669,2.605,2.605,0,0,1-.56-1A4.25,4.25,0,0,1,477.732,341.68Z" transform="translate(-431.95 -336.897)"/>
    <path id="Path_1009" data-name="Path 1009" d="M493.256,341.726a3.686,3.686,0,0,1,.245-1.4,3,3,0,0,1,.647-1,2.684,2.684,0,0,1,.921-.607,2.889,2.889,0,0,1,1.07-.206,2.659,2.659,0,0,1,2.026.784,3.231,3.231,0,0,1,.743,2.306c0,.1,0,.208-.011.326s-.016.223-.023.314h-3.868a1.13,1.13,0,0,0,.492.835,1.978,1.978,0,0,0,1.167.309,4.957,4.957,0,0,0,.921-.086,3.5,3.5,0,0,0,.738-.211l.229,1.385a2.4,2.4,0,0,1-.366.137,4.592,4.592,0,0,1-.509.12c-.188.034-.387.063-.6.086a6.032,6.032,0,0,1-.641.034,3.783,3.783,0,0,1-1.413-.24,2.746,2.746,0,0,1-1-.658,2.613,2.613,0,0,1-.583-.99A3.92,3.92,0,0,1,493.256,341.726Zm4-.653a1.78,1.78,0,0,0-.074-.423,1.026,1.026,0,0,0-.526-.629,1.086,1.086,0,0,0-.5-.1,1.15,1.15,0,0,0-.492.1,1.015,1.015,0,0,0-.343.257,1.149,1.149,0,0,0-.212.372,2.474,2.474,0,0,0-.109.429Z" transform="translate(-439.6 -336.897)"/>
    <path id="Path_1010" data-name="Path 1010" d="M511.8,338.9a9.442,9.442,0,0,1,1.121-.234,9.2,9.2,0,0,1,1.441-.109,3.515,3.515,0,0,1,1.276.2,1.923,1.923,0,0,1,.807.566,2.218,2.218,0,0,1,.424.87,4.646,4.646,0,0,1,.126,1.121v3.4h-1.7v-3.193a2.3,2.3,0,0,0-.218-1.167.887.887,0,0,0-.813-.343c-.122,0-.252.006-.389.017s-.26.025-.366.04v4.646H511.8Z" transform="translate(-448.739 -336.919)"/>
    <path id="Path_1011" data-name="Path 1011" d="M529.783,335.6l1.705-.274V337.1h2.049v1.419h-2.049v2.117a1.682,1.682,0,0,0,.189.858.809.809,0,0,0,.761.321,3.236,3.236,0,0,0,.566-.051,2.912,2.912,0,0,0,.533-.144l.24,1.327a4.731,4.731,0,0,1-.686.218,3.987,3.987,0,0,1-.927.092,3.056,3.056,0,0,1-1.156-.189,1.813,1.813,0,0,1-.732-.526,1.962,1.962,0,0,1-.383-.819,4.821,4.821,0,0,1-.109-1.064Z" transform="translate(-457.601 -335.329)"/>
    <path id="Path_1012" data-name="Path 1012" d="M543.7,341.726a3.686,3.686,0,0,1,.245-1.4,3.013,3.013,0,0,1,.647-1,2.69,2.69,0,0,1,.921-.607,2.89,2.89,0,0,1,1.07-.206,2.659,2.659,0,0,1,2.025.784,3.231,3.231,0,0,1,.744,2.306c0,.1,0,.208-.012.326s-.016.223-.023.314h-3.868a1.131,1.131,0,0,0,.492.835,1.978,1.978,0,0,0,1.167.309,4.958,4.958,0,0,0,.921-.086,3.5,3.5,0,0,0,.738-.211l.229,1.385a2.365,2.365,0,0,1-.366.137,4.628,4.628,0,0,1-.509.12q-.281.052-.6.086a6.02,6.02,0,0,1-.641.034,3.786,3.786,0,0,1-1.414-.24,2.74,2.74,0,0,1-1-.658,2.607,2.607,0,0,1-.584-.99A3.919,3.919,0,0,1,543.7,341.726Zm4.005-.653a1.805,1.805,0,0,0-.075-.423,1.062,1.062,0,0,0-.195-.366,1.045,1.045,0,0,0-.332-.263,1.086,1.086,0,0,0-.5-.1,1.152,1.152,0,0,0-.492.1,1.015,1.015,0,0,0-.343.257,1.15,1.15,0,0,0-.212.372,2.482,2.482,0,0,0-.109.429Z" transform="translate(-464.461 -336.897)"/>
    <path id="Path_1013" data-name="Path 1013" d="M565.875,340.214q-.228-.057-.538-.12a3.315,3.315,0,0,0-.664-.063,3.126,3.126,0,0,0-.383.028,2.2,2.2,0,0,0-.337.063v4.6h-1.705v-5.7a10.336,10.336,0,0,1,1.081-.3,6.263,6.263,0,0,1,1.391-.143q.137,0,.332.017t.389.046c.13.019.259.042.389.069a1.879,1.879,0,0,1,.332.1Z" transform="translate(-473.601 -336.93)"/>
  </g>
</svg>
