<svg xmlns="http://www.w3.org/2000/svg" width="169.507" height="62.663" viewBox="0 0 169.507 62.663">
  <g id="Group_1181" data-name="Group 1181" transform="translate(0)">
    <path id="Path_758" data-name="Path 758" d="M246.483,249.67q-.667-.1-1.345-.155t-1.322-.059a7.735,7.735,0,0,0-2.691.44,5.581,5.581,0,0,0-2.011,1.25,5.34,5.34,0,0,0-1.25,1.94,7.026,7.026,0,0,0-.429,2.512,6.2,6.2,0,0,0,1.381,4.3,5.069,5.069,0,0,0,3.976,1.535,6.273,6.273,0,0,0,1.321-.13,5.688,5.688,0,0,0,1.178-.393v.452a2.4,2.4,0,0,1-.63,1.714,2.885,2.885,0,0,1-2.155.666,10.32,10.32,0,0,1-2.083-.19,10.442,10.442,0,0,1-1.75-.524L238.056,266a14.241,14.241,0,0,0,2.118.536,13.161,13.161,0,0,0,2.286.2,6.772,6.772,0,0,0,4.821-1.488,6.035,6.035,0,0,0,1.56-4.559V250.17q-.477-.143-1.083-.275T246.483,249.67Zm-1.191,8.427a3.882,3.882,0,0,1-.809.334,3.547,3.547,0,0,1-1.023.142q-2.405,0-2.4-2.975a3.842,3.842,0,0,1,.691-2.357,2.441,2.441,0,0,1,2.1-.929q.476,0,.833.036c.238.023.444.052.619.083Zm28.033-2.31a29.712,29.712,0,0,0-24.856-29.273,4.971,4.971,0,0,0-9.623,0,29.652,29.652,0,0,0-22.411,41.054,4.973,4.973,0,0,0,5.21,8.087,29.621,29.621,0,0,0,44.018.006,4.972,4.972,0,0,0,5.208-8.077A29.492,29.492,0,0,0,273.326,255.787Zm-5.365,10.226a4.971,4.971,0,0,0-4.932,7.639,26.318,26.318,0,0,1-38.755-.014,4.974,4.974,0,0,0-4.17-7.691,5,5,0,0,0-.75.063,26.36,26.36,0,0,1,19.771-36.192,4.972,4.972,0,0,0,9.066,0,26.36,26.36,0,0,1,19.77,36.2Zm-8.646-15.463,3.547-1.212v12.5a19.539,19.539,0,0,1-2.333.488,19.179,19.179,0,0,1-3,.227,7.106,7.106,0,0,1-2.655-.429,4.031,4.031,0,0,1-1.678-1.2,4.691,4.691,0,0,1-.881-1.846,9.915,9.915,0,0,1-.262-2.357v-3.686l3.547-1.212v4.47a5.075,5.075,0,0,0,.452,2.475,1.8,1.8,0,0,0,1.691.763c.253,0,.524-.012.809-.036s.539-.051.761-.083Zm-24.759,2.31a9.629,9.629,0,0,1,.262,2.334v3.725l-3.547,1.212v-4.509a4.785,4.785,0,0,0-.453-2.428,1.846,1.846,0,0,0-1.691-.714c-.253,0-.523.012-.809.036s-.54.052-.762.083v8.8l-3.547,1.212V250.17a19.747,19.747,0,0,1,2.334-.488,19.213,19.213,0,0,1,3-.226,7.316,7.316,0,0,1,2.655.417,3.984,3.984,0,0,1,1.678,1.178A4.593,4.593,0,0,1,234.556,252.86Zm11.927-3.19q-.667-.1-1.345-.155t-1.322-.059a7.735,7.735,0,0,0-2.691.44,5.581,5.581,0,0,0-2.011,1.25,5.34,5.34,0,0,0-1.25,1.94,7.026,7.026,0,0,0-.429,2.512,6.2,6.2,0,0,0,1.381,4.3,5.069,5.069,0,0,0,3.976,1.535,6.273,6.273,0,0,0,1.321-.13,5.688,5.688,0,0,0,1.178-.393v.452a2.4,2.4,0,0,1-.63,1.714,2.885,2.885,0,0,1-2.155.666,10.32,10.32,0,0,1-2.083-.19,10.442,10.442,0,0,1-1.75-.524L238.056,266a14.241,14.241,0,0,0,2.118.536,13.161,13.161,0,0,0,2.286.2,6.772,6.772,0,0,0,4.821-1.488,6.035,6.035,0,0,0,1.56-4.559V250.17q-.477-.143-1.083-.275T246.483,249.67Zm-1.191,8.427a3.882,3.882,0,0,1-.809.334,3.547,3.547,0,0,1-1.023.142q-2.405,0-2.4-2.975a3.842,3.842,0,0,1,.691-2.357,2.441,2.441,0,0,1,2.1-.929q.476,0,.833.036c.238.023.444.052.619.083Zm28.033-2.31a29.712,29.712,0,0,0-24.856-29.273,4.971,4.971,0,0,0-9.623,0,29.652,29.652,0,0,0-22.411,41.054,4.973,4.973,0,0,0,5.21,8.087,29.621,29.621,0,0,0,44.018.006,4.972,4.972,0,0,0,5.208-8.077A29.492,29.492,0,0,0,273.326,255.787Zm-5.365,10.226a4.971,4.971,0,0,0-4.932,7.639,26.318,26.318,0,0,1-38.755-.014,4.974,4.974,0,0,0-4.17-7.691,5,5,0,0,0-.75.063,26.36,26.36,0,0,1,19.771-36.192,4.972,4.972,0,0,0,9.066,0,26.36,26.36,0,0,1,19.77,36.2Zm-8.646-15.463,3.547-1.212v12.5a19.539,19.539,0,0,1-2.333.488,19.179,19.179,0,0,1-3,.227,7.106,7.106,0,0,1-2.655-.429,4.031,4.031,0,0,1-1.678-1.2,4.691,4.691,0,0,1-.881-1.846,9.915,9.915,0,0,1-.262-2.357v-3.686l3.547-1.212v4.47a5.075,5.075,0,0,0,.452,2.475,1.8,1.8,0,0,0,1.691.763c.253,0,.524-.012.809-.036s.539-.051.761-.083Zm-24.759,2.31a9.629,9.629,0,0,1,.262,2.334v3.725l-3.547,1.212v-4.509a4.785,4.785,0,0,0-.453-2.428,1.846,1.846,0,0,0-1.691-.714c-.253,0-.523.012-.809.036s-.54.052-.762.083v8.8l-3.547,1.212V250.17a19.747,19.747,0,0,1,2.334-.488,19.213,19.213,0,0,1,3-.226,7.316,7.316,0,0,1,2.655.417,3.984,3.984,0,0,1,1.678,1.178A4.593,4.593,0,0,1,234.556,252.86Z" transform="translate(-213.99 -222.792)"/>
    <g id="Group_1190" data-name="Group 1190" transform="translate(70.144 20.716)">
      <path id="Path_759" data-name="Path 759" d="M404.822,299.072q-1.4,0-2.78-.086a19.625,19.625,0,0,1-2.878-.4V282.124a24.443,24.443,0,0,1,2.572-.33q1.4-.11,2.6-.11a17.7,17.7,0,0,1,2.976.233,7.049,7.049,0,0,1,2.339.8,4.18,4.18,0,0,1,1.531,1.482,4.337,4.337,0,0,1,.551,2.266,3.6,3.6,0,0,1-1.959,3.208,4.011,4.011,0,0,1,2.2,1.666,4.789,4.789,0,0,1,.588,2.376,4.561,4.561,0,0,1-1.947,4.016A10.2,10.2,0,0,1,404.822,299.072Zm-1.935-10.531h1.862a5.178,5.178,0,0,0,2.522-.453,1.569,1.569,0,0,0,.759-1.458,1.5,1.5,0,0,0-.784-1.445,5.041,5.041,0,0,0-2.3-.416q-.49,0-1.053.012t-1,.061Zm0,2.915v4.384q.417.049.906.073t1.078.025a6.615,6.615,0,0,0,2.767-.49,1.817,1.817,0,0,0,1.053-1.813,1.776,1.776,0,0,0-.881-1.677,5.169,5.169,0,0,0-2.523-.5Z" transform="translate(-399.164 -280.091)"/>
      <path id="Path_760" data-name="Path 760" d="M452.763,305.44a20.243,20.243,0,0,1-2.4.5,19.744,19.744,0,0,1-3.086.233,7.319,7.319,0,0,1-2.731-.441,4.143,4.143,0,0,1-1.726-1.236,4.821,4.821,0,0,1-.906-1.9,10.19,10.19,0,0,1-.269-2.425V293h3.649v6.735a5.212,5.212,0,0,0,.466,2.547,1.849,1.849,0,0,0,1.739.784c.261,0,.539-.012.833-.037s.555-.052.784-.086V293h3.649Z" transform="translate(-425.553 -287.12)"/>
      <path id="Path_761" data-name="Path 761" d="M482.5,302.7a3.63,3.63,0,0,0,1.421-.2.756.756,0,0,0,.416-.759.931.931,0,0,0-.539-.772,10.289,10.289,0,0,0-1.641-.747,16.567,16.567,0,0,1-1.555-.661,4.558,4.558,0,0,1-1.188-.82,3.312,3.312,0,0,1-.759-1.139,4.208,4.208,0,0,1-.269-1.592,3.442,3.442,0,0,1,1.347-2.866,5.862,5.862,0,0,1,3.7-1.053,11.867,11.867,0,0,1,2.253.209,10.521,10.521,0,0,1,1.715.453l-.637,2.841a13.549,13.549,0,0,0-1.384-.392,7.534,7.534,0,0,0-1.677-.172q-1.715,0-1.714.955a.988.988,0,0,0,.073.392.839.839,0,0,0,.294.331,4.06,4.06,0,0,0,.6.344q.379.185.967.407a14.951,14.951,0,0,1,1.983.877,4.75,4.75,0,0,1,1.237.933,2.882,2.882,0,0,1,.637,1.112,4.937,4.937,0,0,1,.183,1.417,3.267,3.267,0,0,1-1.433,2.884,7.146,7.146,0,0,1-4.054.977,11.658,11.658,0,0,1-2.853-.294,11.5,11.5,0,0,1-1.58-.49l.612-2.963a11.982,11.982,0,0,0,1.91.576A9.3,9.3,0,0,0,482.5,302.7Z" transform="translate(-448.165 -286.557)"/>
      <path id="Path_762" data-name="Path 762" d="M514.8,279.635a2,2,0,0,1-.649,1.58,2.324,2.324,0,0,1-3.061,0,2.247,2.247,0,0,1,0-3.16,2.323,2.323,0,0,1,3.061,0A2,2,0,0,1,514.8,279.635Zm-.343,16.605h-3.649V283.358h3.649Z" transform="translate(-468.288 -277.48)"/>
      <path id="Path_763" data-name="Path 763" d="M530.094,292.957a20.514,20.514,0,0,1,2.4-.5,19.751,19.751,0,0,1,3.086-.233,7.529,7.529,0,0,1,2.731.428,4.109,4.109,0,0,1,1.727,1.213,4.729,4.729,0,0,1,.906,1.861,9.9,9.9,0,0,1,.269,2.4V305.4h-3.649v-6.833a4.923,4.923,0,0,0-.465-2.5,1.9,1.9,0,0,0-1.739-.735q-.391,0-.833.037t-.784.086V305.4h-3.649Z" transform="translate(-480.498 -286.638)"/>
      <path id="Path_764" data-name="Path 764" d="M566.559,298.975a7.862,7.862,0,0,1,.527-3,6.425,6.425,0,0,1,1.383-2.143,5.76,5.76,0,0,1,1.972-1.3,6.18,6.18,0,0,1,2.29-.441,5.694,5.694,0,0,1,4.335,1.678,6.914,6.914,0,0,1,1.592,4.935q0,.319-.024.7c-.017.253-.033.477-.049.674h-8.278a2.424,2.424,0,0,0,1.053,1.788,4.231,4.231,0,0,0,2.5.661,10.562,10.562,0,0,0,1.972-.184,7.411,7.411,0,0,0,1.58-.453l.49,2.964a5.1,5.1,0,0,1-.784.294,10.22,10.22,0,0,1-1.09.257q-.6.11-1.286.184a12.9,12.9,0,0,1-1.372.073,8.122,8.122,0,0,1-3.025-.514,5.888,5.888,0,0,1-2.13-1.408,5.588,5.588,0,0,1-1.249-2.118A8.4,8.4,0,0,1,566.559,298.975Zm8.573-1.4a3.805,3.805,0,0,0-.159-.906,2.272,2.272,0,0,0-.416-.784,2.221,2.221,0,0,0-.71-.564,2.319,2.319,0,0,0-1.065-.22,2.444,2.444,0,0,0-1.053.208,2.174,2.174,0,0,0-.735.551,2.473,2.473,0,0,0-.453.8,5.2,5.2,0,0,0-.233.919Z" transform="translate(-503.15 -286.557)"/>
      <path id="Path_765" data-name="Path 765" d="M608.389,302.7a3.627,3.627,0,0,0,1.421-.2.756.756,0,0,0,.416-.759.931.931,0,0,0-.539-.772,10.3,10.3,0,0,0-1.641-.747,16.565,16.565,0,0,1-1.555-.661,4.558,4.558,0,0,1-1.188-.82,3.306,3.306,0,0,1-.759-1.139,4.208,4.208,0,0,1-.27-1.592,3.442,3.442,0,0,1,1.347-2.866,5.862,5.862,0,0,1,3.7-1.053,11.867,11.867,0,0,1,2.253.209,10.527,10.527,0,0,1,1.714.453l-.636,2.841a13.586,13.586,0,0,0-1.384-.392,7.538,7.538,0,0,0-1.678-.172q-1.715,0-1.714.955a.981.981,0,0,0,.073.392.836.836,0,0,0,.294.331,4.107,4.107,0,0,0,.6.344q.379.185.968.407a14.975,14.975,0,0,1,1.984.877,4.743,4.743,0,0,1,1.237.933,2.882,2.882,0,0,1,.637,1.112,4.935,4.935,0,0,1,.183,1.417,3.267,3.267,0,0,1-1.433,2.884,7.146,7.146,0,0,1-4.053.977,11.653,11.653,0,0,1-2.853-.294,11.528,11.528,0,0,1-1.58-.49l.612-2.963a11.982,11.982,0,0,0,1.91.576A9.3,9.3,0,0,0,608.389,302.7Z" transform="translate(-526.365 -286.557)"/>
      <path id="Path_766" data-name="Path 766" d="M639.746,302.7a3.63,3.63,0,0,0,1.421-.2.756.756,0,0,0,.416-.759.93.93,0,0,0-.538-.772,10.306,10.306,0,0,0-1.641-.747,16.571,16.571,0,0,1-1.555-.661,4.557,4.557,0,0,1-1.188-.82,3.312,3.312,0,0,1-.76-1.139,4.208,4.208,0,0,1-.269-1.592,3.442,3.442,0,0,1,1.347-2.866,5.861,5.861,0,0,1,3.7-1.053,11.869,11.869,0,0,1,2.253.209,10.523,10.523,0,0,1,1.715.453l-.637,2.841a13.541,13.541,0,0,0-1.384-.392,7.534,7.534,0,0,0-1.677-.172q-1.715,0-1.714.955a.988.988,0,0,0,.073.392.84.84,0,0,0,.294.331,4.06,4.06,0,0,0,.6.344q.379.185.967.407a14.946,14.946,0,0,1,1.983.877,4.75,4.75,0,0,1,1.237.933,2.887,2.887,0,0,1,.637,1.112,4.939,4.939,0,0,1,.183,1.417,3.266,3.266,0,0,1-1.433,2.884,7.145,7.145,0,0,1-4.053.977,11.658,11.658,0,0,1-2.854-.294,11.5,11.5,0,0,1-1.58-.49l.612-2.963a11.968,11.968,0,0,0,1.91.576A9.3,9.3,0,0,0,639.746,302.7Z" transform="translate(-545.845 -286.557)"/>
    </g>
  </g>
</svg>
