<svg xmlns="http://www.w3.org/2000/svg" width="227.583" height="85.634" viewBox="0 0 227.583 85.634">
  <g id="Group_1286" data-name="Group 1286" transform="translate(0)">
    <g id="Group_1247" data-name="Group 1247" transform="translate(22.664 22.665)">
      <g id="Group_1240" data-name="Group 1240" transform="translate(0 26.437)">
        <g id="Group_1239" data-name="Group 1239">
          <circle id="Ellipse_28" data-name="Ellipse 28" cx="5.115" cy="5.115" r="5.115" transform="matrix(0.889, -0.457, 0.457, 0.889, 0, 4.676)"/>
        </g>
      </g>
      <g id="Group_1242" data-name="Group 1242" transform="translate(0.094)">
        <g id="Group_1241" data-name="Group 1241" transform="translate(0)">
          <circle id="Ellipse_29" data-name="Ellipse 29" cx="5.115" cy="5.115" r="5.115" transform="translate(0 4.676) rotate(-27.196)"/>
        </g>
      </g>
      <g id="Group_1244" data-name="Group 1244" transform="translate(26.531 0.094)">
        <g id="Group_1243" data-name="Group 1243" transform="translate(0)">
          <circle id="Ellipse_30" data-name="Ellipse 30" cx="5.115" cy="5.115" r="5.115" transform="matrix(0.889, -0.457, 0.457, 0.889, 0, 4.676)"/>
        </g>
      </g>
      <g id="Group_1246" data-name="Group 1246" transform="translate(26.437 26.53)">
        <g id="Group_1245" data-name="Group 1245" transform="translate(0)">
          <circle id="Ellipse_31" data-name="Ellipse 31" cx="5.115" cy="5.115" r="5.115" transform="translate(0 4.676) rotate(-27.196)"/>
        </g>
      </g>
    </g>
    <g id="Group_1260" data-name="Group 1260" transform="translate(7.399 7.399)">
      <g id="_Radial_Repeat_" data-name="&lt;Radial Repeat&gt;" transform="translate(31.314 62.336)">
        <g id="Group_1248" data-name="Group 1248" transform="translate(0)">
          <circle id="Ellipse_32" data-name="Ellipse 32" cx="3.394" cy="3.394" r="3.394" transform="translate(0 6.479) rotate(-72.668)"/>
        </g>
      </g>
      <g id="_Radial_Repeat_2" data-name="&lt;Radial Repeat&gt;" transform="translate(15.165 57.687)">
        <g id="Group_1249" data-name="Group 1249" transform="translate(0)">
          <circle id="Ellipse_33" data-name="Ellipse 33" cx="3.394" cy="3.394" r="3.394" transform="matrix(0.735, -0.678, 0.678, 0.735, 0, 4.6)"/>
        </g>
      </g>
      <g id="_Radial_Repeat_3" data-name="&lt;Radial Repeat&gt;" transform="translate(4.443 47.075)">
        <g id="Group_1250" data-name="Group 1250" transform="translate(0)">
          <circle id="Ellipse_34" data-name="Ellipse 34" cx="3.394" cy="3.394" r="3.394" transform="translate(0 1.488) rotate(-12.668)"/>
        </g>
      </g>
      <g id="_Radial_Repeat_4" data-name="&lt;Radial Repeat&gt;" transform="translate(0 31.315)">
        <g id="Group_1251" data-name="Group 1251" transform="translate(0)">
          <circle id="Ellipse_35" data-name="Ellipse 35" cx="3.394" cy="3.394" r="3.394" transform="translate(0 6.479) rotate(-72.668)"/>
        </g>
      </g>
      <g id="_Radial_Repeat_5" data-name="&lt;Radial Repeat&gt;" transform="translate(3.558 15.165)">
        <g id="Group_1252" data-name="Group 1252" transform="translate(0)">
          <circle id="Ellipse_36" data-name="Ellipse 36" cx="3.394" cy="3.394" r="3.394" transform="matrix(0.735, -0.678, 0.678, 0.735, 0, 4.6)"/>
        </g>
      </g>
      <g id="_Radial_Repeat_6" data-name="&lt;Radial Repeat&gt;" transform="translate(15.653 4.444)">
        <g id="Group_1253" data-name="Group 1253" transform="translate(0)">
          <circle id="Ellipse_37" data-name="Ellipse 37" cx="3.394" cy="3.394" r="3.394" transform="translate(0 1.488) rotate(-12.668)"/>
        </g>
      </g>
      <g id="_Radial_Repeat_7" data-name="&lt;Radial Repeat&gt;" transform="translate(31.022)">
        <g id="Group_1254" data-name="Group 1254" transform="translate(0)">
          <circle id="Ellipse_38" data-name="Ellipse 38" cx="3.394" cy="3.394" r="3.394" transform="translate(0 6.479) rotate(-72.668)"/>
        </g>
      </g>
      <g id="_Radial_Repeat_8" data-name="&lt;Radial Repeat&gt;" transform="translate(46.082 3.558)">
        <g id="Group_1255" data-name="Group 1255" transform="translate(0)">
          <circle id="Ellipse_39" data-name="Ellipse 39" cx="3.394" cy="3.394" r="3.394" transform="matrix(0.735, -0.678, 0.678, 0.735, 0, 4.6)"/>
        </g>
      </g>
      <g id="_Radial_Repeat_9" data-name="&lt;Radial Repeat&gt;" transform="translate(58.284 15.653)">
        <g id="Group_1256" data-name="Group 1256" transform="translate(0)">
          <circle id="Ellipse_40" data-name="Ellipse 40" cx="3.394" cy="3.394" r="3.394" transform="matrix(0.976, -0.219, 0.219, 0.976, 0, 1.488)"/>
        </g>
      </g>
      <g id="_Radial_Repeat_10" data-name="&lt;Radial Repeat&gt;" transform="translate(62.337 31.023)">
        <g id="Group_1257" data-name="Group 1257" transform="translate(0)">
          <circle id="Ellipse_41" data-name="Ellipse 41" cx="3.394" cy="3.394" r="3.394" transform="translate(0 6.479) rotate(-72.668)"/>
        </g>
      </g>
      <g id="_Radial_Repeat_11" data-name="&lt;Radial Repeat&gt;" transform="translate(57.687 46.081)">
        <g id="Group_1258" data-name="Group 1258" transform="translate(0)">
          <circle id="Ellipse_42" data-name="Ellipse 42" cx="3.394" cy="3.394" r="3.394" transform="translate(0 4.6) rotate(-42.668)"/>
        </g>
      </g>
      <g id="_Radial_Repeat_12" data-name="&lt;Radial Repeat&gt;" transform="translate(47.074 58.283)">
        <g id="Group_1259" data-name="Group 1259" transform="translate(0)">
          <circle id="Ellipse_43" data-name="Ellipse 43" cx="3.394" cy="3.394" r="3.394" transform="translate(0 1.488) rotate(-12.668)"/>
        </g>
      </g>
    </g>
    <g id="Group_1281" data-name="Group 1281" transform="translate(0)">
      <g id="_Radial_Repeat_13" data-name="&lt;Radial Repeat&gt;" transform="translate(27.675 78.297)">
        <g id="Group_1261" data-name="Group 1261" transform="translate(0)">
          <circle id="Ellipse_44" data-name="Ellipse 44" cx="2.046" cy="2.046" r="2.046" transform="translate(0 3.336) rotate(-54.623)"/>
        </g>
      </g>
      <g id="_Radial_Repeat_14" data-name="&lt;Radial Repeat&gt;" transform="translate(16.422 72.614)">
        <g id="Group_1262" data-name="Group 1262" transform="translate(0)">
          <circle id="Ellipse_45" data-name="Ellipse 45" cx="2.046" cy="2.046" r="2.046" transform="translate(0 2.441) rotate(-36.623)"/>
        </g>
      </g>
      <g id="_Radial_Repeat_15" data-name="&lt;Radial Repeat&gt;" transform="translate(7.752 64.012)">
        <g id="Group_1263" data-name="Group 1263" transform="translate(0)">
          <circle id="Ellipse_46" data-name="Ellipse 46" cx="2.046" cy="2.046" r="2.046" transform="matrix(0.948, -0.319, 0.319, 0.948, 0, 1.306)"/>
        </g>
      </g>
      <g id="_Radial_Repeat_16" data-name="&lt;Radial Repeat&gt;" transform="translate(2.514 53.337)">
        <g id="Group_1264" data-name="Group 1264" transform="translate(0)">
          <circle id="Ellipse_47" data-name="Ellipse 47" cx="2.046" cy="2.046" r="2.046" transform="translate(0 0.044) rotate(-0.623)"/>
        </g>
      </g>
      <g id="_Radial_Repeat_17" data-name="&lt;Radial Repeat&gt;" transform="translate(0 40.412)">
        <g id="Group_1265" data-name="Group 1265">
          <circle id="Ellipse_48" data-name="Ellipse 48" cx="2.046" cy="2.046" r="2.046" transform="translate(0 3.904) rotate(-72.623)"/>
        </g>
      </g>
      <g id="_Radial_Repeat_18" data-name="&lt;Radial Repeat&gt;" transform="translate(1.633 27.675)">
        <g id="Group_1266" data-name="Group 1266" transform="translate(0)">
          <circle id="Ellipse_49" data-name="Ellipse 49" cx="2.046" cy="2.046" r="2.046" transform="translate(0 3.336) rotate(-54.623)"/>
        </g>
      </g>
      <g id="_Radial_Repeat_19" data-name="&lt;Radial Repeat&gt;" transform="translate(7.297 16.42)">
        <g id="Group_1267" data-name="Group 1267" transform="translate(0)">
          <circle id="Ellipse_50" data-name="Ellipse 50" cx="2.046" cy="2.046" r="2.046" transform="translate(0 2.44) rotate(-36.623)"/>
        </g>
      </g>
      <g id="_Radial_Repeat_20" data-name="&lt;Radial Repeat&gt;" transform="translate(16.439 7.751)">
        <g id="Group_1268" data-name="Group 1268" transform="translate(0)">
          <circle id="Ellipse_51" data-name="Ellipse 51" cx="2.046" cy="2.046" r="2.046" transform="translate(0 1.306) rotate(-18.623)"/>
        </g>
      </g>
      <g id="_Radial_Repeat_21" data-name="&lt;Radial Repeat&gt;" transform="translate(28.162 2.514)">
        <g id="Group_1269" data-name="Group 1269" transform="translate(0)">
          <circle id="Ellipse_52" data-name="Ellipse 52" cx="2.046" cy="2.046" r="2.046" transform="translate(0 0.044) rotate(-0.623)"/>
        </g>
      </g>
      <g id="_Radial_Repeat_22" data-name="&lt;Radial Repeat&gt;" transform="translate(40.098)">
        <g id="Group_1270" data-name="Group 1270" transform="translate(0)">
          <circle id="Ellipse_53" data-name="Ellipse 53" cx="2.046" cy="2.046" r="2.046" transform="translate(0 3.904) rotate(-72.623)"/>
        </g>
      </g>
      <g id="_Radial_Repeat_23" data-name="&lt;Radial Repeat&gt;" transform="translate(52.256 1.633)">
        <g id="Group_1271" data-name="Group 1271" transform="translate(0)">
          <circle id="Ellipse_54" data-name="Ellipse 54" cx="2.046" cy="2.046" r="2.046" transform="matrix(0.579, -0.815, 0.815, 0.579, 0, 3.336)"/>
        </g>
      </g>
      <g id="_Radial_Repeat_24" data-name="&lt;Radial Repeat&gt;" transform="translate(63.49 7.297)">
        <g id="Group_1272" data-name="Group 1272" transform="translate(0)">
          <circle id="Ellipse_55" data-name="Ellipse 55" cx="2.046" cy="2.046" r="2.046" transform="translate(0 2.441) rotate(-36.623)"/>
        </g>
      </g>
      <g id="_Radial_Repeat_25" data-name="&lt;Radial Repeat&gt;" transform="translate(72.699 16.439)">
        <g id="Group_1273" data-name="Group 1273" transform="translate(0)">
          <circle id="Ellipse_56" data-name="Ellipse 56" cx="2.046" cy="2.046" r="2.046" transform="matrix(0.948, -0.319, 0.319, 0.948, 0, 1.306)"/>
        </g>
      </g>
      <g id="_Radial_Repeat_26" data-name="&lt;Radial Repeat&gt;" transform="translate(78.986 28.162)">
        <g id="Group_1274" data-name="Group 1274" transform="translate(0)">
          <circle id="Ellipse_57" data-name="Ellipse 57" cx="2.046" cy="2.046" r="2.046" transform="translate(0 0.044) rotate(-0.623)"/>
        </g>
      </g>
      <g id="_Radial_Repeat_27" data-name="&lt;Radial Repeat&gt;" transform="translate(80.507 40.098)">
        <g id="Group_1275" data-name="Group 1275" transform="translate(0)">
          <circle id="Ellipse_58" data-name="Ellipse 58" cx="2.046" cy="2.046" r="2.046" transform="translate(0 3.904) rotate(-72.623)"/>
        </g>
      </g>
      <g id="_Radial_Repeat_28" data-name="&lt;Radial Repeat&gt;" transform="translate(78.296 52.256)">
        <g id="Group_1276" data-name="Group 1276" transform="translate(0)">
          <circle id="Ellipse_59" data-name="Ellipse 59" cx="2.046" cy="2.046" r="2.046" transform="matrix(0.579, -0.815, 0.815, 0.579, 0, 3.336)"/>
        </g>
      </g>
      <g id="_Radial_Repeat_29" data-name="&lt;Radial Repeat&gt;" transform="translate(72.614 63.49)">
        <g id="Group_1277" data-name="Group 1277" transform="translate(0)">
          <circle id="Ellipse_60" data-name="Ellipse 60" cx="2.046" cy="2.046" r="2.046" transform="translate(0 2.44) rotate(-36.623)"/>
        </g>
      </g>
      <g id="_Radial_Repeat_30" data-name="&lt;Radial Repeat&gt;" transform="translate(64.011 72.7)">
        <g id="Group_1278" data-name="Group 1278" transform="translate(0)">
          <circle id="Ellipse_61" data-name="Ellipse 61" cx="2.046" cy="2.046" r="2.046" transform="translate(0 1.306) rotate(-18.623)"/>
        </g>
      </g>
      <g id="_Radial_Repeat_31" data-name="&lt;Radial Repeat&gt;" transform="translate(53.337 78.985)">
        <g id="Group_1279" data-name="Group 1279" transform="translate(0)">
          <circle id="Ellipse_62" data-name="Ellipse 62" cx="2.046" cy="2.046" r="2.046" transform="matrix(1, -0.011, 0.011, 1, 0, 0.044)"/>
        </g>
      </g>
      <g id="_Radial_Repeat_32" data-name="&lt;Radial Repeat&gt;" transform="translate(40.412 80.508)">
        <g id="Group_1280" data-name="Group 1280" transform="translate(0)">
          <circle id="Ellipse_63" data-name="Ellipse 63" cx="2.046" cy="2.046" r="2.046" transform="translate(0 3.904) rotate(-72.623)"/>
        </g>
      </g>
    </g>
    <g id="Group_1283" data-name="Group 1283" transform="translate(18.911 19.008)">
      <g id="Group_1282" data-name="Group 1282">
        <path id="Path_1024" data-name="Path 1024" d="M1168.939,584.492a5.136,5.136,0,0,1-6.958,3.73c-.476-.263-.969-.68-1.5-.944-.009.007-.009.007-.009,0a8.378,8.378,0,0,0-3.243-.83,8.531,8.531,0,0,0-7.837,12.8,3.933,3.933,0,0,1,.263.433,5.137,5.137,0,1,1-9.652,2.449,5.065,5.065,0,0,1,.587-2.38.009.009,0,0,1,.009-.009c.126-.188.245-.383.356-.577a8.535,8.535,0,0,0-7.967-12.707,8.33,8.33,0,0,0-3.207.852,8.158,8.158,0,0,0-1,.567,4.318,4.318,0,0,1-2.279.724,5.343,5.343,0,0,1-1.608-.206,5.14,5.14,0,1,1,3.661-9.573c.26.13.671.451,1.029.63a8.47,8.47,0,0,0,4.915.915,8.576,8.576,0,0,0,7.514-7.651,8.468,8.468,0,0,0-.94-4.787c-.17-.323-.4-.6-.569-.935a5.057,5.057,0,0,1-.5-2.2,5.137,5.137,0,1,1,10.273,0,4.986,4.986,0,0,1-.536,2.27c-.137.272-.323.5-.468.767a.039.039,0,0,1-.018.033,8.476,8.476,0,0,0-1.012,4,8.534,8.534,0,0,0,12.392,7.648c.009-.007.016-.007.025-.016.391-.195.7-.464,1.115-.689a5.084,5.084,0,0,1,2.135-.468A5.142,5.142,0,0,1,1168.939,584.492Z" transform="translate(-1121.228 -559.645)"/>
      </g>
    </g>
    <g id="Group_1284" data-name="Group 1284" transform="translate(108.007 18.961)">
      <path id="Path_1025" data-name="Path 1025" d="M1170.853,572.66V561.216a1.126,1.126,0,0,1,1.153-1.3c1.137-.087,2.182-.106,4.008-.106,3.856,0,5.08.967,5.08,4.446s-1.236,4.443-4.681,4.443a21.81,21.81,0,0,1-2.207-.115.291.291,0,0,0-.352.314v3.761a.825.825,0,0,1-.92.92h-1.16A.825.825,0,0,1,1170.853,572.66Zm5.1-6.274c1.64-.013,2.129-.437,2.129-2.128s-.489-2.131-2.129-2.131c-.552,0-1.094.013-1.646.013-.328,0-.453.125-.453.453v3.457a.3.3,0,0,0,.334.336Z" transform="translate(-1170.4 -559.464)"/>
      <path id="Path_1026" data-name="Path 1026" d="M1177.274,569.332v-.984c0-1.55,1.108-2.469,2.972-2.469h3.223c.173,0,.236-.087.236-.244v-.321c-.018-.911-.352-1.133-1.586-1.133-.772,0-1.961,0-3.248.059-.574.031-.929-.242-1.036-.9a.889.889,0,0,1,.859-1.166,33.051,33.051,0,0,1,4.1-.258c2.5,0,3.833.825,3.833,3.548v5.464a.9.9,0,0,1-.964.964h-.557a.762.762,0,0,1-.873-.583l-.054-.128c-.06-.171-.162-.216-.283-.1a5.228,5.228,0,0,1-3.459,1.039C1178.638,572.117,1177.274,571.148,1177.274,569.332Zm6.217.13a.385.385,0,0,0,.222-.379V567.9a.233.233,0,0,0-.266-.265h-2.357c-.707.022-.94.375-.94.933v.363c0,.691.348,1.007,1.128,1.007A4.127,4.127,0,0,0,1183.49,569.462Z" transform="translate(-1165.234 -557.773)"/>
      <path id="Path_1027" data-name="Path 1027" d="M1183.8,570.952V563.08a.825.825,0,0,1,.92-.92h.507c.478,0,.776.133.9.509l.036.1a.262.262,0,0,0,.444.15,7.038,7.038,0,0,1,3.163-.978c.633-.067.962.321.888.947l-.074.823a.87.87,0,0,1-.886.872c-.442.047-1.546.164-2.687.388a.343.343,0,0,0-.3.364v5.614a.825.825,0,0,1-.918.92h-1.072A.825.825,0,0,1,1183.8,570.952Z" transform="translate(-1159.983 -557.755)"/>
      <path id="Path_1028" data-name="Path 1028" d="M1188.225,569.332v-.984c0-1.55,1.108-2.469,2.972-2.469h3.225c.172,0,.234-.087.234-.244v-.321c-.018-.911-.352-1.133-1.584-1.133-.774,0-1.962,0-3.25.059-.574.031-.929-.242-1.034-.9a.887.887,0,0,1,.857-1.166,33.062,33.062,0,0,1,4.1-.258c2.5,0,3.833.825,3.833,3.548v5.464a.9.9,0,0,1-.965.964h-.558a.761.761,0,0,1-.872-.583l-.056-.128c-.059-.171-.162-.216-.283-.1a5.227,5.227,0,0,1-3.459,1.039C1189.589,572.117,1188.225,571.148,1188.225,569.332Zm6.217.13a.385.385,0,0,0,.222-.379V567.9a.232.232,0,0,0-.265-.265h-2.357c-.707.022-.94.375-.94.933v.363c0,.691.348,1.007,1.128,1.007A4.124,4.124,0,0,0,1194.442,569.462Z" transform="translate(-1156.424 -557.773)"/>
      <path id="Path_1029" data-name="Path 1029" d="M1194.753,570.935v-7.8a.857.857,0,0,1,.956-.955h.482c.5,0,.8.065.951.462l.043.107c.078.217.206.287.413.157a6.545,6.545,0,0,1,3.375-.989,2.517,2.517,0,0,1,2.3.926c.141.186.274.206.491.056a5.432,5.432,0,0,1,3.263-.982,2.417,2.417,0,0,1,2.714,2.7v6.325a.857.857,0,0,1-.955.955h-.992a.856.856,0,0,1-.955-.955v-5.426c-.013-.816-.254-1.142-1.034-1.142a3.434,3.434,0,0,0-1.887.52.4.4,0,0,0-.251.406c0,.213,0,.413-.011.626v5.017a.871.871,0,0,1-.967.955h-.89a.858.858,0,0,1-.958-.955V565.51c.013-.866-.314-1.144-1.039-1.144a3.565,3.565,0,0,0-1.864.484.4.4,0,0,0-.278.4v5.681a.872.872,0,0,1-.967.955h-.98A.857.857,0,0,1,1194.753,570.935Z" transform="translate(-1151.172 -557.773)"/>
      <path id="Path_1030" data-name="Path 1030" d="M1204.2,567.045c0-3.84,1.431-5.13,4.943-5.13,3.3,0,4.594,1.164,4.6,3.383.009,1.77-.722,2.707-2.584,2.707h-3.494c-.253,0-.343.1-.307.325.193,1.207.9,1.478,2.243,1.478.687,0,1.725-.067,2.741-.157a.884.884,0,0,1,1.066.834c.1.637-.092,1.021-.655,1.193a12.971,12.971,0,0,1-3.5.448C1205.572,572.125,1204.2,570.622,1204.2,567.045Zm5.908-.785c.695,0,.8-.346.8-1.012,0-.906-.419-1.209-1.655-1.216-1.53-.007-1.916.4-1.988,1.88-.011.249.079.348.316.348Z" transform="translate(-1143.572 -557.772)"/>
      <path id="Path_1031" data-name="Path 1031" d="M1210.4,568.737c0-4.024,1.433-5.127,3.925-5.127a8.257,8.257,0,0,1,2.581.379c.251.083.359.045.312-.263a7.377,7.377,0,0,1-.123-1.534l.009-1.431a.858.858,0,0,1,.962-.956h1a.856.856,0,0,1,.955.956v11.56a.921.921,0,0,1-.709.994,18.132,18.132,0,0,1-4.118.507C1211.292,573.823,1210.4,571.672,1210.4,568.737Zm6.3,2.8a.427.427,0,0,0,.406-.444l.012-4.616c0-.26-.083-.429-.291-.46a8,8,0,0,0-1.674-.164c-1.294,0-1.765.41-1.765,2.84,0,2.308.478,2.912,1.745,2.961A8.429,8.429,0,0,0,1216.7,571.542Z" transform="translate(-1138.583 -559.469)"/>
      <path id="Path_1032" data-name="Path 1032" d="M1217.089,561.124a1.591,1.591,0,1,1,1.6,1.519A1.495,1.495,0,0,1,1217.089,561.124Zm.132,11.657v-7.8a.857.857,0,0,1,.955-.955h.98a.857.857,0,0,1,.957.955v7.8a.857.857,0,0,1-.957.955h-.98A.857.857,0,0,1,1217.221,572.781Z" transform="translate(-1133.202 -559.619)"/>
      <path id="Path_1033" data-name="Path 1033" d="M1220.98,571.879c-.612-.074-.861-.433-.8-1.077s.363-.924.965-.913c.756.011,1.637.023,2.5.023,1.989,0,2.449-.072,2.449-.738,0-.585-.422-.693-1.375-.929l-2.429-.59a2.673,2.673,0,0,1-2.317-2.988c0-1.88,1.1-2.748,4.089-2.736,1.1.012,2.474.085,3.615.207a.851.851,0,0,1,.8,1.059c-.074.68-.385.949-.989.938-.947-.025-1.913-.038-2.871-.038-1.489,0-1.837.042-1.837.646s.348.684,1.234.917l2.492.6c1.644.419,2.395,1.162,2.395,2.864,0,2.261-1.316,2.941-4.441,2.941A32.972,32.972,0,0,1,1220.98,571.879Z" transform="translate(-1130.878 -557.759)"/>
      <path id="Path_1034" data-name="Path 1034" d="M1225.811,567.021c0-3.752,1.316-5.107,4.892-5.107a11.937,11.937,0,0,1,2.75.312.906.906,0,0,1,.682,1.169,1,1,0,0,1-1.043.919c-.682-.013-1.344-.023-1.895-.023-1.754,0-2.339.588-2.339,2.73,0,2.158.584,2.748,2.339,2.748.444,0,1.225-.013,2.037-.076a.9.9,0,0,1,1.075.841.932.932,0,0,1-.675,1.227,11.749,11.749,0,0,1-2.957.365C1227.1,572.126,1225.811,570.772,1225.811,567.021Z" transform="translate(-1126.185 -557.773)"/>
      <path id="Path_1035" data-name="Path 1035" d="M1231.622,572.632v-11.87a.857.857,0,0,1,.955-.956h1a.856.856,0,0,1,.955.956l.021,2.016a8.514,8.514,0,0,1-.1,1.409c-.034.271.144.354.426.2a8.424,8.424,0,0,1,3.4-.774c1.832,0,2.81,1.025,2.81,3v6.016a.856.856,0,0,1-.954.955h-1a.855.855,0,0,1-.954-.955v-5.424c0-.89-.233-1.144-.939-1.144a7.1,7.1,0,0,0-2.44.527.358.358,0,0,0-.267.386v5.655a.855.855,0,0,1-.955.955h-1A.857.857,0,0,1,1231.622,572.632Z" transform="translate(-1121.51 -559.469)"/>
      <path id="Path_1036" data-name="Path 1036" d="M1170.6,577.573c0-5.179,1.521-7.029,5.719-7.029a15.714,15.714,0,0,1,3.235.256.871.871,0,0,1,.743,1.061l-.054.491a.856.856,0,0,1-.993.841c-.852-.042-1.64-.054-2.932-.054-1.976,0-2.563,1.005-2.563,4.434s.587,4.434,2.563,4.434c1.35,0,2.3-.013,3.2-.1a.84.84,0,0,1,1.007.825l.054.475a.864.864,0,0,1-.715,1.056,14.592,14.592,0,0,1-3.546.336C1172.123,584.6,1170.6,582.75,1170.6,577.573Z" transform="translate(-1170.602 -550.829)"/>
      <path id="Path_1037" data-name="Path 1037" d="M1176.984,577.807c0-3.842,1.431-5.132,4.943-5.132,3.3,0,4.594,1.166,4.6,3.383.009,1.772-.721,2.707-2.584,2.707h-3.493c-.253,0-.343.1-.307.327.193,1.207.9,1.476,2.243,1.476.687,0,1.725-.067,2.741-.155a.883.883,0,0,1,1.067.832c.1.639-.09,1.023-.655,1.195a13.043,13.043,0,0,1-3.5.447C1178.359,582.887,1176.984,581.384,1176.984,577.807Zm5.908-.785c.695,0,.8-.346.8-1.012,0-.906-.419-1.209-1.655-1.216-1.53-.009-1.917.4-1.988,1.879-.011.251.079.35.316.35Z" transform="translate(-1165.467 -549.115)"/>
      <path id="Path_1038" data-name="Path 1038" d="M1183.4,581.695v-7.8a.855.855,0,0,1,.955-.955h.547a.883.883,0,0,1,.915.511l.034.117c.065.191.2.238.424.112a7.784,7.784,0,0,1,3.777-1.005c1.833,0,2.812,1.027,2.812,3v6.016a.857.857,0,0,1-.955.956h-1a.856.856,0,0,1-.954-.956v-5.422c0-.891-.233-1.144-.938-1.144a6.126,6.126,0,0,0-2.451.514.316.316,0,0,0-.256.337v5.715a.856.856,0,0,1-.955.956h-1A.856.856,0,0,1,1183.4,581.695Z" transform="translate(-1160.307 -549.116)"/>
      <path id="Path_1039" data-name="Path 1039" d="M1191.262,581.177v-4.85a.3.3,0,0,0-.334-.332h-.419c-.693-.007-.971-.314-.971-.926,0-.684.314-.947.967-.989l.422-.022a.314.314,0,0,0,.327-.343v-1.476a.824.824,0,0,1,.918-.92h1.066a.825.825,0,0,1,.92.92V573.7a.3.3,0,0,0,.334.334h1.368a.866.866,0,0,1,.993.976c0,.675-.285.989-.993.989h-1.368a.3.3,0,0,0-.334.332v4.239c0,.74.249,1,.985,1h.464c.695.016.957.361,1.012,1.049.058.74-.2,1.1-.747,1.191a11.928,11.928,0,0,1-1.83.166A2.536,2.536,0,0,1,1191.262,581.177Z" transform="translate(-1155.367 -550.206)"/>
      <path id="Path_1040" data-name="Path 1040" d="M1194.557,581.712v-7.871a.825.825,0,0,1,.92-.92h.507c.478,0,.776.134.9.509l.036.1a.262.262,0,0,0,.444.15,7.041,7.041,0,0,1,3.163-.978c.633-.067.962.321.888.946l-.074.823a.871.871,0,0,1-.886.873c-.442.047-1.546.162-2.689.388a.343.343,0,0,0-.3.364v5.614a.823.823,0,0,1-.917.92h-1.072A.825.825,0,0,1,1194.557,581.712Z" transform="translate(-1151.329 -549.098)"/>
      <path id="Path_1041" data-name="Path 1041" d="M1199.256,580.1v-6.325a.857.857,0,0,1,.956-.955h1a.857.857,0,0,1,.957.955V579.2c0,.89.24,1.151.944,1.151a5.317,5.317,0,0,0,2.272-.521.307.307,0,0,0,.252-.33v-5.724a.857.857,0,0,1,.957-.955h1.007a.856.856,0,0,1,.957.955v7.8a.858.858,0,0,1-.957.956h-.554c-.518,0-.816-.17-.946-.511l-.027-.108c-.065-.179-.2-.216-.391-.1a7.486,7.486,0,0,1-3.69.935A2.409,2.409,0,0,1,1199.256,580.1Z" transform="translate(-1147.549 -548.998)"/>
      <path id="Path_1042" data-name="Path 1042" d="M1205.781,581.695v-7.8a.855.855,0,0,1,.955-.955h.484c.5,0,.8.065.949.462l.044.1c.078.216.208.289.413.157a6.562,6.562,0,0,1,3.375-.989,2.518,2.518,0,0,1,2.3.927c.141.186.274.2.489.054a5.441,5.441,0,0,1,3.264-.982,2.419,2.419,0,0,1,2.714,2.7v6.321a.858.858,0,0,1-.954.958h-.993a.857.857,0,0,1-.955-.958V576.27c-.013-.817-.254-1.142-1.034-1.142a3.416,3.416,0,0,0-1.887.52.4.4,0,0,0-.251.4c0,.215,0,.415-.011.628v5.015a.872.872,0,0,1-.967.956h-.89a.857.857,0,0,1-.956-.956v-5.422c.013-.866-.316-1.144-1.039-1.144a3.58,3.58,0,0,0-1.866.482.4.4,0,0,0-.278.406v5.679a.871.871,0,0,1-.967.956h-.98A.856.856,0,0,1,1205.781,581.695Z" transform="translate(-1142.299 -549.116)"/>
    </g>
    <g id="Group_1285" data-name="Group 1285" transform="translate(108.365 58.774)">
      <path id="Path_1043" data-name="Path 1043" d="M1171.706,582.774v2.317h2.526v.747h-2.526v2.387h2.824v.745h-3.73v-6.942h3.73v.745Z" transform="translate(-1170.8 -581.403)"/>
      <path id="Path_1044" data-name="Path 1044" d="M1173.724,582.736a.616.616,0,0,1,.438-1.054.566.566,0,0,1,.422.179.634.634,0,0,1,0,.875.566.566,0,0,1-.422.179A.6.6,0,0,1,1173.724,582.736Zm.877,1.065v5.45h-.906V583.8Z" transform="translate(-1168.591 -581.682)"/>
      <path id="Path_1045" data-name="Path 1045" d="M1179.25,583.4a2.314,2.314,0,0,1,.617,1.736v3.212h-.895v-3.084a1.747,1.747,0,0,0-.408-1.247,1.458,1.458,0,0,0-1.113-.433,1.492,1.492,0,0,0-1.139.448,1.821,1.821,0,0,0-.424,1.3v3.014h-.9V582.9h.9v.776a1.815,1.815,0,0,1,.731-.648,2.285,2.285,0,0,1,1.02-.227A2.208,2.208,0,0,1,1179.25,583.4Z" transform="translate(-1167.434 -580.782)"/>
      <path id="Path_1046" data-name="Path 1046" d="M1178.661,584.946a2.469,2.469,0,0,1,.929-.98,2.569,2.569,0,0,1,1.328-.348,2.449,2.449,0,0,1,1.184.294,2.116,2.116,0,0,1,.837.771V581.8h.915v7.361h-.915v-1.025a2.11,2.11,0,0,1-.8.8,2.358,2.358,0,0,1-1.233.314,2.475,2.475,0,0,1-2.248-1.362,3.129,3.129,0,0,1-.338-1.473A3.056,3.056,0,0,1,1178.661,584.946Zm4.03.4a1.775,1.775,0,0,0-.672-.7,1.912,1.912,0,0,0-1.855,0,1.733,1.733,0,0,0-.668.695,2.221,2.221,0,0,0-.247,1.076,2.256,2.256,0,0,0,.247,1.088,1.757,1.757,0,0,0,.668.707,1.8,1.8,0,0,0,.924.244,1.828,1.828,0,0,0,.931-.244,1.754,1.754,0,0,0,.672-.707,2.236,2.236,0,0,0,.249-1.079A2.211,2.211,0,0,0,1182.691,585.348Z" transform="translate(-1164.747 -581.589)"/>
      <path id="Path_1047" data-name="Path 1047" d="M1186.058,583.872a1.872,1.872,0,0,1,.779.79,2.675,2.675,0,0,1,.283,1.283v3.212h-.9v-3.084a1.747,1.747,0,0,0-.408-1.247,1.456,1.456,0,0,0-1.113-.433,1.492,1.492,0,0,0-1.139.448,1.821,1.821,0,0,0-.424,1.3v3.014h-.9V581.8h.9v2.687a1.8,1.8,0,0,1,.742-.648,2.407,2.407,0,0,1,1.059-.227A2.334,2.334,0,0,1,1186.058,583.872Z" transform="translate(-1161.598 -581.589)"/>
      <path id="Path_1048" data-name="Path 1048" d="M1186.906,588.088a2.464,2.464,0,0,1-.974-.991,3.02,3.02,0,0,1-.354-1.487,2.95,2.95,0,0,1,.363-1.476,2.52,2.52,0,0,1,.989-.985,3.042,3.042,0,0,1,2.806,0,2.507,2.507,0,0,1,.989.98,2.943,2.943,0,0,1,.364,1.481,2.9,2.9,0,0,1-.374,1.487,2.582,2.582,0,0,1-1.009.991,2.891,2.891,0,0,1-1.413.348A2.78,2.78,0,0,1,1186.906,588.088Zm2.3-.677a1.741,1.741,0,0,0,.691-.686,2.189,2.189,0,0,0,.264-1.115,2.22,2.22,0,0,0-.258-1.113,1.707,1.707,0,0,0-.677-.682,1.967,1.967,0,0,0-1.815,0,1.643,1.643,0,0,0-.662.682,2.3,2.3,0,0,0-.247,1.113,2.384,2.384,0,0,0,.242,1.124,1.625,1.625,0,0,0,.653.682,1.82,1.82,0,0,0,.895.224A1.9,1.9,0,0,0,1189.208,587.411Z" transform="translate(-1158.911 -580.778)"/>
      <path id="Path_1049" data-name="Path 1049" d="M1191.611,587.47l1.691-4.614h.964l-2.139,5.45h-1.054l-2.138-5.45h.974Z" transform="translate(-1156.21 -580.737)"/>
      <path id="Path_1050" data-name="Path 1050" d="M1197.48,585.958h-4.356a1.713,1.713,0,0,0,1.77,1.711,1.672,1.672,0,0,0,.98-.272,1.447,1.447,0,0,0,.552-.733h.975a2.35,2.35,0,0,1-.875,1.279,2.643,2.643,0,0,1-1.631.493,2.747,2.747,0,0,1-1.388-.348,2.467,2.467,0,0,1-.96-.991,3.06,3.06,0,0,1-.348-1.487,3.13,3.13,0,0,1,.338-1.481,2.394,2.394,0,0,1,.951-.98,2.824,2.824,0,0,1,1.407-.343,2.757,2.757,0,0,1,1.373.337,2.351,2.351,0,0,1,.919.931,2.731,2.731,0,0,1,.323,1.337A5.279,5.279,0,0,1,1197.48,585.958Zm-1.133-1.626a1.5,1.5,0,0,0-.623-.567,1.93,1.93,0,0,0-.871-.193,1.675,1.675,0,0,0-1.168.437,1.788,1.788,0,0,0-.552,1.213h3.443A1.677,1.677,0,0,0,1196.347,584.333Z" transform="translate(-1153.585 -580.778)"/>
      <path id="Path_1051" data-name="Path 1051" d="M1200.069,583.4a2.316,2.316,0,0,1,.619,1.736v3.212h-.9v-3.084a1.747,1.747,0,0,0-.408-1.247,1.458,1.458,0,0,0-1.113-.433,1.492,1.492,0,0,0-1.139.448,1.829,1.829,0,0,0-.422,1.3v3.014h-.906V582.9h.906v.776a1.8,1.8,0,0,1,.729-.648,2.287,2.287,0,0,1,1.021-.227A2.206,2.206,0,0,1,1200.069,583.4Z" transform="translate(-1150.684 -580.782)"/>
    </g>
  </g>
</svg>
