<svg xmlns="http://www.w3.org/2000/svg" width="176.892" height="42.47" viewBox="0 0 176.892 42.47">
  <g id="Group_1289" data-name="Group 1289" transform="translate(0)">
    <path id="Path_1066" data-name="Path 1066" d="M445.879,269.93l-4.6,10.483a4.954,4.954,0,0,1-4.533,2.732,4.733,4.733,0,0,1-4.91-4.533,4.535,4.535,0,0,1,3-4.15Z" transform="translate(-339.321 -259.054)"/>
    <path id="Path_1067" data-name="Path 1067" d="M321.419,279.1c3.111,0,5.234,4.058,5.367,10.163h-10.98C315.981,284.332,318.238,279.1,321.419,279.1Zm.316-2.213c-9.069,0-15.4,6.008-15.4,14.612a14.685,14.685,0,0,0,14.583,14.381c8.2,0,12.559-4.318,13.8-8.013l.163-.489-2.153-1.04-.312.543c-1.388,2.4-6.118,3.5-9.273,2.87-4.169-.859-6.672-3.713-7.274-8.271h19.947v-.616C335.813,281.457,331.209,276.885,321.735,276.885Z" transform="translate(-260.734 -263.409)"/>
    <path id="Path_1068" data-name="Path 1068" d="M482.586,296.565V275.1l-12.356,5.656V282.6l.353.176c2.484,1.224,2.859,1.88,2.859,3.5v10.288c0,2.955-.143,4.934-2.05,5.486l-.467.136v2.052h14.244v-2.07l-.49-.124C482.92,301.6,482.586,299.775,482.586,296.565Z" transform="translate(-363.359 -262.29)"/>
    <path id="Path_1069" data-name="Path 1069" d="M535.385,284.484a4.05,4.05,0,0,1-3.2,1.725c-2.722,0-3.99-1.365-3.99-4.3V265.29h7.1l.568-2.217h-7.669V254l-9.209,4.214v4.863h-3.466l.426,2.217h3.04v16.793c0,6.633,2.571,9.464,8.6,9.464a11.579,11.579,0,0,0,9.935-5.986l.228-.492-2.021-1.114Z" transform="translate(-391.715 -249.077)"/>
    <path id="Path_1070" data-name="Path 1070" d="M593.755,279.1c3.11,0,5.233,4.058,5.366,10.163H588.14C588.315,284.332,590.572,279.1,593.755,279.1Zm14.394,11.763c0-9.4-4.6-13.976-14.08-13.976-9.069,0-15.4,6.008-15.4,14.612a14.684,14.684,0,0,0,14.583,14.381c8.206,0,12.562-4.318,13.8-8.013l.163-.489-2.152-1.04-.312.543c-1.39,2.4-6.131,3.5-9.274,2.87-4.168-.859-6.671-3.713-7.275-8.271h19.95Z" transform="translate(-431.257 -263.409)"/>
    <path id="Path_1071" data-name="Path 1071" d="M398.371,280.883c.066-.1.265-.391,1.108-.391h.669v-2.217h-16.2v2.217h.669c1.042,0,2.34,0,3.688,2.732.029.054.839,1.53,11.7,23.165l.178.36h1.892l3.867-8.926-7.056-13.881C398.444,283.117,397.914,281.556,398.371,280.883Z" transform="translate(-309.335 -264.28)"/>
    <path id="Path_1072" data-name="Path 1072" d="M211.056,251.262c0,5.933-5.235,10.743-11.693,10.743V253.8c0-5.932,5.235-10.742,11.693-10.742Zm18.286,29.311c-.054,0-5.4-.435-6.772-5.214q-.236-.793-.484-1.526c-2.341-6.9-5.548-9.8-8.372-10.913,6.153-1.487,8.944-4.8,8.944-10.42,0-10.762-10.874-11.663-22.013-11.663H184.362v2.217h.669c2.6,0,3.864,1.482,3.864,4.529v27.589c0,3.429-1.408,5.4-3.864,5.4h-.669v2.217h19.66v-2.217h-.669c-2.461,0-3.989-2.068-3.989-5.4V264.222h2.288a7.965,7.965,0,0,1,7.233,5.53c.56,1.6,1.023,2.992,1.429,4.21,2.857,8.606,3.106,8.774,13.186,8.825h6.461v-2.172Z" transform="translate(-184.362 -240.838)"/>
    <path id="Path_1073" data-name="Path 1073" d="M483.737,240.837a5.091,5.091,0,0,1,.914.083,5.006,5.006,0,0,1,.879.245,4.815,4.815,0,0,1,.81.4,4.628,4.628,0,0,1,.71.535,4.408,4.408,0,0,1,.583.652,4.158,4.158,0,0,1,.433.744,4.022,4.022,0,0,1,.267.807,3.958,3.958,0,0,1,0,1.679,4.025,4.025,0,0,1-.267.808,4.184,4.184,0,0,1-.433.744,4.406,4.406,0,0,1-.583.652,4.607,4.607,0,0,1-.71.535,4.816,4.816,0,0,1-.81.4,4.943,4.943,0,0,1-.879.245,5.072,5.072,0,0,1-1.828,0,4.947,4.947,0,0,1-.879-.245,4.812,4.812,0,0,1-.81-.4,4.61,4.61,0,0,1-.71-.535,4.384,4.384,0,0,1-.582-.652,4.206,4.206,0,0,1-.433-.744,4.023,4.023,0,0,1-.267-.808,3.956,3.956,0,0,1,0-1.679,4.02,4.02,0,0,1,.267-.807,4.18,4.18,0,0,1,.433-.744,4.387,4.387,0,0,1,.582-.652,4.631,4.631,0,0,1,.71-.535,4.811,4.811,0,0,1,.81-.4,5.01,5.01,0,0,1,.879-.245A5.09,5.09,0,0,1,483.737,240.837Z" transform="translate(-368.883 -240.837)"/>
  </g>
</svg>
