<svg id="Group_1294" data-name="Group 1294" xmlns="http://www.w3.org/2000/svg" width="197.746" height="57.25" viewBox="0 0 197.746 57.25">
  <g id="Group_1290" data-name="Group 1290">
    <path id="Path_1074" data-name="Path 1074" d="M216.7,196.13a.42.42,0,0,0-.633-.54L199.4,210.463a.42.42,0,0,0,.05.665l6.1,3.97a.42.42,0,0,1,.12.585l-6.329,9.49a.42.42,0,0,0,.622.553l14.435-12.294a.42.42,0,0,0-.047-.675l-5.553-3.517a.42.42,0,0,1-.129-.582Z" transform="translate(-138.233 -185.694)"/>
    <path id="Path_1075" data-name="Path 1075" d="M83.2,215.1l6.1-3.97a.42.42,0,0,0,.05-.665L72.681,195.59a.42.42,0,0,0-.633.54l8.037,12.53a.42.42,0,0,1-.129.582L74.4,212.757a.42.42,0,0,0-.048.675l14.435,12.294a.42.42,0,0,0,.622-.553l-6.329-9.49A.42.42,0,0,1,83.2,215.1Z" transform="translate(-71.977 -185.694)"/>
    <path id="Path_1076" data-name="Path 1076" d="M149.507,175.07h-2.784v5.58a2.867,2.867,0,0,1-2.867,2.867h-1.33v-5.579a2.867,2.867,0,0,0-2.867-2.868h-2.784v5.58a2.867,2.867,0,0,1-2.867,2.867h-1.33v-5.579a2.867,2.867,0,0,0-2.867-2.868h-2.784v5.58a2.867,2.867,0,0,1-2.868,2.867H122.83v-5.579a2.868,2.868,0,0,0-2.867-2.868h-2.784v15.253H130.6a2.078,2.078,0,0,1,0,4.155H117.179v3.474H130.6a2.078,2.078,0,0,1,0,4.155H117.179v3.475H130.6a2.078,2.078,0,0,1,0,4.155H117.179v3.474H130.6a2.078,2.078,0,0,1,0,4.155H117.179v3.562a6,6,0,0,0,6,6h3.537a8.084,8.084,0,0,1,7.464,4.979.663.663,0,0,0,1.225,0,8.084,8.084,0,0,1,7.464-4.979h3.5a6,6,0,0,0,6-6v-3.562H138.953a2.078,2.078,0,1,1,0-4.155h13.421v-3.474H138.953a2.078,2.078,0,1,1,0-4.155h13.421v-3.475H138.953a2.078,2.078,0,1,1,0-4.155h13.421v-3.474H138.953a2.078,2.078,0,1,1,0-4.155h13.421V177.938A2.868,2.868,0,0,0,149.507,175.07Z" transform="translate(-95.508 -175.07)"/>
  </g>
  <g id="Group_1293" data-name="Group 1293" transform="translate(90.286 8.456)">
    <g id="Group_1291" data-name="Group 1291">
      <path id="Path_1077" data-name="Path 1077" d="M282.469,209.221c.045-.057.082-.117.126-.175h3.254a9.008,9.008,0,0,0,1.731-5.549,9.953,9.953,0,0,0-1.267-5.047,8.759,8.759,0,0,0-3.8-3.474,13.778,13.778,0,0,0-6.2-1.267H263.55v15.336H260.3V224.6h7.472V212.934h1.7l6.685,11.666h8.258l-7.34-12.147A9.491,9.491,0,0,0,282.469,209.221ZM271.021,200h4.632a4.484,4.484,0,0,1,3.255,1.049,3.851,3.851,0,0,1,1.071,2.883,3.8,3.8,0,0,1-1.049,2.906,4.667,4.667,0,0,1-3.277.982h-4.632Z" transform="translate(-260.295 -193.229)"/>
      <path id="Path_1078" data-name="Path 1078" d="M343.124,194.739a16.407,16.407,0,0,0-15.817,0,14.953,14.953,0,0,0-5.636,5.637,16.031,16.031,0,0,0-2.075,8.148h-3.255a16.152,16.152,0,0,0,2.076,8.171,14.912,14.912,0,0,0,5.636,5.658,16.325,16.325,0,0,0,15.773,0,14.92,14.92,0,0,0,5.637-5.658,16.158,16.158,0,0,0,2.075-8.171h3.254a16.163,16.163,0,0,0-2.054-8.148A14.8,14.8,0,0,0,343.124,194.739Zm-3.189,13.785h0a9.246,9.246,0,0,1-2.185,6.466,8.255,8.255,0,0,1-11.644,0,9.3,9.3,0,0,1-2.163-6.466H327.2a9.288,9.288,0,0,1,2.163-6.489,8.308,8.308,0,0,1,11.666.022,9.3,9.3,0,0,1,2.163,6.467Z" transform="translate(-289.471 -192.707)"/>
      <path id="Path_1079" data-name="Path 1079" d="M415.028,194.739a16.407,16.407,0,0,0-15.817,0,14.957,14.957,0,0,0-5.636,5.637,16.031,16.031,0,0,0-2.075,8.148h-3.254a16.152,16.152,0,0,0,2.075,8.171,14.91,14.91,0,0,0,5.637,5.658,16.325,16.325,0,0,0,15.773,0,14.924,14.924,0,0,0,5.637-5.658,16.162,16.162,0,0,0,2.075-8.171H422.7a16.168,16.168,0,0,0-2.054-8.148A14.8,14.8,0,0,0,415.028,194.739Zm-3.189,13.785h0a9.246,9.246,0,0,1-2.185,6.466,8.254,8.254,0,0,1-11.644,0,9.3,9.3,0,0,1-2.163-6.466H399.1a9.29,9.29,0,0,1,2.163-6.489,8.308,8.308,0,0,1,11.666.022,9.3,9.3,0,0,1,2.163,6.467Z" transform="translate(-326.901 -192.707)"/>
      <path id="Path_1080" data-name="Path 1080" d="M465.316,193.71v15.336h-3.255V224.6h7.472V209.046h3.255V193.71Z" transform="translate(-365.327 -193.229)"/>
    </g>
    <g id="Group_1292" data-name="Group 1292" transform="translate(32.805 39.819)">
      <path id="Path_1081" data-name="Path 1081" d="M330.169,283.6h3.1v1.132H328.72V275.76h1.449Z" transform="translate(-328.72 -275.76)"/>
      <path id="Path_1082" data-name="Path 1082" d="M355.281,275.76v8.976h-1.449V275.76Z" transform="translate(-341.792 -275.76)"/>
      <path id="Path_1083" data-name="Path 1083" d="M373.945,275.76l2.58,7.424,2.594-7.424H380.7l-3.241,8.976H375.6l-3.229-8.976Z" transform="translate(-351.442 -275.76)"/>
      <path id="Path_1084" data-name="Path 1084" d="M406.7,276.929v2.721H410v1.119H406.7v2.784h3.687v1.182h-5.137V275.76h5.137v1.169Z" transform="translate(-368.558 -275.76)"/>
    </g>
  </g>
</svg>
