<svg xmlns="http://www.w3.org/2000/svg" width="203.662" height="38.859" viewBox="0 0 203.662 38.859">
  <g id="Group_1295" data-name="Group 1295" transform="translate(0)">
    <path id="Path_1085" data-name="Path 1085" d="M214.768,281.745l5.194-2.6a4.032,4.032,0,0,0,3.7,2.32c1.16,0,1.934-.5,1.934-1.381,0-.774-.664-1.326-2.652-2.1-2.541-.94-6.962-2.432-6.962-6.851,0-3.757,3.2-7.071,8.232-7.071a10.694,10.694,0,0,1,7.458,2.927l-3.536,3.979a4.6,4.6,0,0,0-3.426-1.6c-1.215,0-1.768.553-1.768,1.271,0,.829.774,1.16,2.376,1.823,3.149,1.214,6.8,2.983,6.8,7.4,0,4.144-3.039,7.182-8.012,7.182-3.922,0-8.011-1.878-9.336-5.3" transform="translate(-179.662 -255.966)"/>
    <path id="Path_1086" data-name="Path 1086" d="M270.543,275.557c0-6.629,4.917-11.491,12.321-11.491,6.629,0,11.159,3.868,12.1,9.392H287.67a5.077,5.077,0,0,0-4.806-3.149,5.249,5.249,0,0,0,0,10.5,5.08,5.08,0,0,0,4.806-3.149h7.292c-.939,5.524-5.469,9.391-12.1,9.391-7.4,0-12.321-4.861-12.321-11.491" transform="translate(-217.538 -255.966)"/>
    <path id="Path_1087" data-name="Path 1087" d="M368.94,264.287v6.243a9.6,9.6,0,0,0-2.045-.221c-3.481,0-5.967,2.1-5.967,5.745v10.554h-7.072v-22.1h7.072v3.038a7.329,7.329,0,0,1,6.188-3.48,6.129,6.129,0,0,1,1.823.22" transform="translate(-274.114 -255.967)"/>
    <path id="Path_1088" data-name="Path 1088" d="M421.159,275.558a5.249,5.249,0,1,0-5.249,5.25,5.246,5.246,0,0,0,5.249-5.25m9.612,5.3v5.747a4.713,4.713,0,0,1-1.878.441,7.8,7.8,0,0,1-6.8-3.757,9.262,9.262,0,0,1-7.569,3.757c-6.132,0-10.939-5.083-10.939-11.492s4.807-11.49,10.939-11.49a9.159,9.159,0,0,1,6.3,2.374V264.51h7.017v14.2c0,1.824.994,2.155,1.933,2.155Z" transform="translate(-307.888 -255.968)"/>
    <path id="Path_1089" data-name="Path 1089" d="M511.373,275.557a5.248,5.248,0,1,0-5.248,5.25,5.21,5.21,0,0,0,5.248-5.25m7.016,0c0,6.408-4.806,11.491-10.883,11.491a9.159,9.159,0,0,1-6.3-2.375v10.152h-7.072V264.508l7.072.055v1.878a9.157,9.157,0,0,1,6.3-2.374c6.077,0,10.883,5.082,10.883,11.491" transform="translate(-369.375 -255.966)"/>
    <path id="Path_1090" data-name="Path 1090" d="M118.352,250.047a2.891,2.891,0,0,0-2.009,3.012,3.2,3.2,0,0,0,3.155,2.907,7.9,7.9,0,0,1,.723,15.748,7.775,7.775,0,0,1-.8.041h-7.857V268.82a3.181,3.181,0,0,0-2.077-3.071,3.1,3.1,0,0,0-4.111,2.929v9.008h16.446A13.937,13.937,0,0,0,133.465,263.9,13.4,13.4,0,0,0,122.6,250.55a19.176,19.176,0,0,0-3.181-.7,3.435,3.435,0,0,0-1.068.193m165.923,19.422h7.017v-22.1h-7.017Zm0-23.687H291.2v-6.921h-6.921Zm12.541-6.921v8.508h-3.7v5.469h3.7v16.631h7.016V252.837h5.207v-5.469h-5.207v-8.508Zm-177.395-.034a14.073,14.073,0,0,0-12.938,8.581,14.045,14.045,0,0,0,0,10.925q.246.584.544,1.139a13.844,13.844,0,0,0,9.105,6.668c2.664.642,2.937,1.057,4.467.548a2.848,2.848,0,0,0,1.9-2.978,3.2,3.2,0,0,0-3.154-2.906,7.861,7.861,0,0,1-7.778-7.855,7.874,7.874,0,0,1,5.525-7.58,7.848,7.848,0,0,1,1.53-.314c.263-.026.531-.04.8-.04h7.856v2.958a3.157,3.157,0,0,0,2.03,3.034,3.1,3.1,0,0,0,4.148-2.805l.01-9.374Z" transform="translate(-105.376 -238.827)"/>
    <path id="Path_1091" data-name="Path 1091" d="M591.685,264.066a9.157,9.157,0,0,0-6.3,2.374v-1.878l-7.072-.055v30.318h7.072V284.673a9.159,9.159,0,0,0,6.3,2.375c6.077,0,10.883-5.083,10.883-11.491S597.761,264.066,591.685,264.066Zm-1.381,16.74a5.249,5.249,0,1,1,5.248-5.25A5.212,5.212,0,0,1,590.3,280.806Z" transform="translate(-426.54 -255.966)"/>
  </g>
</svg>
