<svg xmlns="http://www.w3.org/2000/svg" width="189.403" height="42.267" viewBox="0 0 189.403 42.267">
  <g id="Group_1182" data-name="Group 1182" transform="translate(0)">
    <path id="Path_767" data-name="Path 767" d="M233.35,36.661c6.314,0,9.807-3.14,9.807-7.867,0-8.749-13.3-6.561-13.3-9.454,0-1.024.775-1.623,2.54-1.623a10.912,10.912,0,0,1,6.879,2.469l3.316-4.55a14.352,14.352,0,0,0-9.56-3.281c-6.032,0-9.348,3.528-9.348,7.479,0,9.066,13.3,6.492,13.3,9.6,0,1.164-1.27,1.87-3.315,1.87a10.657,10.657,0,0,1-7.55-3.1l-3.21,4.727c2.364,2.222,5.679,3.74,10.442,3.74m-20.108-9.1H207.28l3-8.855,2.963,8.855Zm9.7,8.678-8.854-23.53h-7.656l-8.855,23.53h6.88l1.164-3.387H214.9l1.165,3.387Zm-35.347.424a10.983,10.983,0,0,0,10.264-6.315l-5.22-2.47A5.65,5.65,0,0,1,187.6,31.3a6.5,6.5,0,0,1-6.562-6.808,6.481,6.481,0,0,1,6.562-6.809,5.652,5.652,0,0,1,5.045,3.422l5.22-2.5A10.85,10.85,0,0,0,187.6,12.319c-7.232,0-12.736,4.9-12.736,12.171,0,7.232,5.5,12.171,12.736,12.171m-26.318,0c7.55,0,11.078-4.127,11.078-9.984V12.707h-6.139V26.5c0,2.788-1.694,4.8-4.939,4.8-3.28,0-4.974-2.01-4.974-4.8V12.707H150.13V26.713c0,5.786,3.6,9.948,11.148,9.948m-12.841-.424V30.946h-9.455V12.707h-6.068v23.53Z" transform="translate(-53.754 -11.438)"/>
    <path id="Path_768" data-name="Path 768" d="M84.29,35.8V17.561h6.561V12.27H71.625v5.292h6.6V35.8Zm-15.523,0V12.27h-6.1V25.217L53.14,12.27H46.895V35.8h6.068V22.183L62.911,35.8ZM42.944,18.761H37.512V35.8h5.432V18.761Zm-2.716-1.517a3.122,3.122,0,1,0,0-6.244,3.122,3.122,0,0,0,0,6.244M24.883,36.224c6.315,0,9.807-3.139,9.807-7.867,0-8.749-13.3-6.561-13.3-9.454,0-1.023.776-1.623,2.54-1.623a10.911,10.911,0,0,1,6.879,2.469l3.316-4.55a14.354,14.354,0,0,0-9.56-3.281c-6.032,0-9.349,3.528-9.349,7.479,0,9.066,13.3,6.491,13.3,9.6,0,1.165-1.271,1.87-3.316,1.87a10.651,10.651,0,0,1-7.55-3.1l-3.21,4.727c2.363,2.222,5.679,3.74,10.442,3.74" transform="translate(-14.441 -11)"/>
    <g id="Group_1192" data-name="Group 1192" transform="translate(1.812 41.249)">
      <path id="Path_769" data-name="Path 769" d="M196.4,73.245a.509.509,0,0,1,.51-.511h0a.509.509,0,0,1,.507.511h0a.508.508,0,0,1-.507.507h0A.508.508,0,0,1,196.4,73.245Z" transform="translate(-76.634 -72.734)"/>
      <path id="Path_770" data-name="Path 770" d="M191.809,73.245a.51.51,0,0,1,.511-.511h0a.509.509,0,0,1,.507.511h0a.508.508,0,0,1-.507.507h0A.509.509,0,0,1,191.809,73.245Z" transform="translate(-75.108 -72.734)"/>
      <path id="Path_771" data-name="Path 771" d="M201,73.245a.509.509,0,0,1,.51-.511h0a.509.509,0,0,1,.507.511h0a.508.508,0,0,1-.507.507h0A.508.508,0,0,1,201,73.245Z" transform="translate(-78.158 -72.734)"/>
      <path id="Path_772" data-name="Path 772" d="M187.215,73.245a.509.509,0,0,1,.507-.511h0a.51.51,0,0,1,.511.511h0a.509.509,0,0,1-.511.507h0A.508.508,0,0,1,187.215,73.245Z" transform="translate(-73.584 -72.734)"/>
      <path id="Path_773" data-name="Path 773" d="M182.62,73.245a.506.506,0,0,1,.507-.511h0a.512.512,0,0,1,.51.511h0a.511.511,0,0,1-.51.507h0A.506.506,0,0,1,182.62,73.245Z" transform="translate(-72.059 -72.734)"/>
      <path id="Path_774" data-name="Path 774" d="M178.019,73.245a.51.51,0,0,1,.511-.511h0a.509.509,0,0,1,.507.511h0a.508.508,0,0,1-.507.507h0A.509.509,0,0,1,178.019,73.245Z" transform="translate(-70.533 -72.734)"/>
      <path id="Path_775" data-name="Path 775" d="M173.425,73.245a.509.509,0,0,1,.511-.511h0a.509.509,0,0,1,.507.511h0a.508.508,0,0,1-.507.507h0A.508.508,0,0,1,173.425,73.245Z" transform="translate(-69.008 -72.734)"/>
      <path id="Path_776" data-name="Path 776" d="M168.829,73.245a.509.509,0,0,1,.508-.511h0a.509.509,0,0,1,.51.511h0a.508.508,0,0,1-.51.507h0A.508.508,0,0,1,168.829,73.245Z" transform="translate(-67.483 -72.734)"/>
      <path id="Path_777" data-name="Path 777" d="M164.229,73.245a.512.512,0,0,1,.511-.511h0a.51.51,0,0,1,.511.511h0a.509.509,0,0,1-.511.507h0A.511.511,0,0,1,164.229,73.245Z" transform="translate(-65.957 -72.734)"/>
      <path id="Path_778" data-name="Path 778" d="M159.634,73.245a.509.509,0,0,1,.511-.511h0a.509.509,0,0,1,.507.511h0a.508.508,0,0,1-.507.507h0A.509.509,0,0,1,159.634,73.245Z" transform="translate(-64.432 -72.734)"/>
      <path id="Path_779" data-name="Path 779" d="M155.039,73.245a.51.51,0,0,1,.511-.511h0a.509.509,0,0,1,.507.511h0a.508.508,0,0,1-.507.507h0A.509.509,0,0,1,155.039,73.245Z" transform="translate(-62.907 -72.734)"/>
      <path id="Path_780" data-name="Path 780" d="M150.444,73.245a.509.509,0,0,1,.507-.511h0a.51.51,0,0,1,.511.511h0a.509.509,0,0,1-.511.507h0A.508.508,0,0,1,150.444,73.245Z" transform="translate(-61.382 -72.734)"/>
      <path id="Path_781" data-name="Path 781" d="M145.844,73.245a.512.512,0,0,1,.51-.511h0a.512.512,0,0,1,.511.511h0a.511.511,0,0,1-.511.507h0A.511.511,0,0,1,145.844,73.245Z" transform="translate(-59.856 -72.734)"/>
      <path id="Path_782" data-name="Path 782" d="M141.249,73.245a.509.509,0,0,1,.511-.511h0a.508.508,0,0,1,.506.511h0a.508.508,0,0,1-.506.507h0A.509.509,0,0,1,141.249,73.245Z" transform="translate(-58.331 -72.734)"/>
      <path id="Path_783" data-name="Path 783" d="M136.654,73.245a.51.51,0,0,1,.511-.511h0a.509.509,0,0,1,.507.511h0a.508.508,0,0,1-.507.507h0A.509.509,0,0,1,136.654,73.245Z" transform="translate(-56.807 -72.734)"/>
      <path id="Path_784" data-name="Path 784" d="M132.059,73.245a.509.509,0,0,1,.507-.511h0a.51.51,0,0,1,.511.511h0a.509.509,0,0,1-.511.507h0A.508.508,0,0,1,132.059,73.245Z" transform="translate(-55.282 -72.734)"/>
      <path id="Path_785" data-name="Path 785" d="M127.464,73.245a.509.509,0,0,1,.507-.511h0a.51.51,0,0,1,.511.511h0a.509.509,0,0,1-.511.507h0A.508.508,0,0,1,127.464,73.245Z" transform="translate(-53.757 -72.734)"/>
      <path id="Path_786" data-name="Path 786" d="M122.864,73.245a.509.509,0,0,1,.51-.511h0a.509.509,0,0,1,.507.511h0a.508.508,0,0,1-.507.507h0A.508.508,0,0,1,122.864,73.245Z" transform="translate(-52.231 -72.734)"/>
      <path id="Path_787" data-name="Path 787" d="M118.269,73.245a.509.509,0,0,1,.511-.511h0a.508.508,0,0,1,.506.511h0a.508.508,0,0,1-.506.507h0A.509.509,0,0,1,118.269,73.245Z" transform="translate(-50.706 -72.734)"/>
      <path id="Path_788" data-name="Path 788" d="M113.674,73.245a.509.509,0,0,1,.507-.511h0a.51.51,0,0,1,.511.511h0a.509.509,0,0,1-.511.507h0A.508.508,0,0,1,113.674,73.245Z" transform="translate(-49.181 -72.734)"/>
      <path id="Path_789" data-name="Path 789" d="M109.079,73.245a.509.509,0,0,1,.507-.511h0a.51.51,0,0,1,.511.511h0a.509.509,0,0,1-.511.507h0A.508.508,0,0,1,109.079,73.245Z" transform="translate(-47.656 -72.734)"/>
      <path id="Path_790" data-name="Path 790" d="M104.478,73.245a.51.51,0,0,1,.511-.511h0a.509.509,0,0,1,.507.511h0a.508.508,0,0,1-.507.507h0A.509.509,0,0,1,104.478,73.245Z" transform="translate(-46.13 -72.734)"/>
      <path id="Path_791" data-name="Path 791" d="M99.884,73.245a.509.509,0,0,1,.51-.511h0a.509.509,0,0,1,.507.511h0a.508.508,0,0,1-.507.507h0A.508.508,0,0,1,99.884,73.245Z" transform="translate(-44.605 -72.734)"/>
      <path id="Path_792" data-name="Path 792" d="M95.289,73.245a.508.508,0,0,1,.506-.511h0a.509.509,0,0,1,.511.511h0a.509.509,0,0,1-.511.507h0A.508.508,0,0,1,95.289,73.245Z" transform="translate(-43.081 -72.734)"/>
      <path id="Path_793" data-name="Path 793" d="M90.688,73.245a.512.512,0,0,1,.511-.511h0a.512.512,0,0,1,.511.511h0a.512.512,0,0,1-.511.507h0A.512.512,0,0,1,90.688,73.245Z" transform="translate(-41.554 -72.734)"/>
      <path id="Path_794" data-name="Path 794" d="M86.093,73.245a.51.51,0,0,1,.511-.511h0a.509.509,0,0,1,.507.511h0a.508.508,0,0,1-.507.507h0A.509.509,0,0,1,86.093,73.245Z" transform="translate(-40.029 -72.734)"/>
      <path id="Path_795" data-name="Path 795" d="M81.5,73.245a.51.51,0,0,1,.511-.511h0a.509.509,0,0,1,.507.511h0a.508.508,0,0,1-.507.507h0A.509.509,0,0,1,81.5,73.245Z" transform="translate(-38.504 -72.734)"/>
      <path id="Path_796" data-name="Path 796" d="M76.9,73.245a.509.509,0,0,1,.507-.511h0a.509.509,0,0,1,.51.511h0a.508.508,0,0,1-.51.507h0A.508.508,0,0,1,76.9,73.245Z" transform="translate(-36.98 -72.734)"/>
      <path id="Path_797" data-name="Path 797" d="M72.309,73.245a.508.508,0,0,1,.506-.511h0a.509.509,0,0,1,.511.511h0a.509.509,0,0,1-.511.507h0A.508.508,0,0,1,72.309,73.245Z" transform="translate(-35.455 -72.734)"/>
      <path id="Path_798" data-name="Path 798" d="M67.708,73.245a.509.509,0,0,1,.511-.511h0a.508.508,0,0,1,.506.511h0a.508.508,0,0,1-.506.507h0A.509.509,0,0,1,67.708,73.245Z" transform="translate(-33.928 -72.734)"/>
      <path id="Path_799" data-name="Path 799" d="M63.113,73.245a.509.509,0,0,1,.507-.511h0a.51.51,0,0,1,.511.511h0a.509.509,0,0,1-.511.507h0A.508.508,0,0,1,63.113,73.245Z" transform="translate(-32.404 -72.734)"/>
      <path id="Path_800" data-name="Path 800" d="M58.518,73.245a.509.509,0,0,1,.507-.511h0a.51.51,0,0,1,.511.511h0a.509.509,0,0,1-.511.507h0A.508.508,0,0,1,58.518,73.245Z" transform="translate(-30.879 -72.734)"/>
      <path id="Path_801" data-name="Path 801" d="M53.918,73.245a.512.512,0,0,1,.51-.511h0a.512.512,0,0,1,.511.511h0a.511.511,0,0,1-.511.507h0A.511.511,0,0,1,53.918,73.245Z" transform="translate(-29.353 -72.734)"/>
      <path id="Path_802" data-name="Path 802" d="M49.323,73.245a.509.509,0,0,1,.51-.511h0a.509.509,0,0,1,.507.511h0a.508.508,0,0,1-.507.507h0A.508.508,0,0,1,49.323,73.245Z" transform="translate(-27.828 -72.734)"/>
      <path id="Path_803" data-name="Path 803" d="M44.728,73.245a.509.509,0,0,1,.511-.511h0a.508.508,0,0,1,.506.511h0a.508.508,0,0,1-.506.507h0A.509.509,0,0,1,44.728,73.245Z" transform="translate(-26.303 -72.734)"/>
      <path id="Path_804" data-name="Path 804" d="M40.133,73.245a.509.509,0,0,1,.507-.511h0a.51.51,0,0,1,.511.511h0a.509.509,0,0,1-.511.507h0A.508.508,0,0,1,40.133,73.245Z" transform="translate(-24.778 -72.734)"/>
      <path id="Path_805" data-name="Path 805" d="M35.532,73.245a.512.512,0,0,1,.511-.511h0a.509.509,0,0,1,.507.511h0a.508.508,0,0,1-.507.507h0A.512.512,0,0,1,35.532,73.245Z" transform="translate(-23.252 -72.734)"/>
      <path id="Path_806" data-name="Path 806" d="M30.938,73.245a.509.509,0,0,1,.51-.511h0a.509.509,0,0,1,.507.511h0a.508.508,0,0,1-.507.507h0A.508.508,0,0,1,30.938,73.245Z" transform="translate(-21.727 -72.734)"/>
      <path id="Path_807" data-name="Path 807" d="M26.343,73.245a.509.509,0,0,1,.51-.511h0a.509.509,0,0,1,.507.511h0a.508.508,0,0,1-.507.507h0A.508.508,0,0,1,26.343,73.245Z" transform="translate(-20.202 -72.734)"/>
      <path id="Path_808" data-name="Path 808" d="M21.748,73.245a.509.509,0,0,1,.507-.511h0a.51.51,0,0,1,.511.511h0a.509.509,0,0,1-.511.507h0A.508.508,0,0,1,21.748,73.245Z" transform="translate(-18.678 -72.734)"/>
      <path id="Path_809" data-name="Path 809" d="M17.153,73.245a.509.509,0,0,1,.507-.511h0a.51.51,0,0,1,.511.511h0a.509.509,0,0,1-.511.507h0A.508.508,0,0,1,17.153,73.245Z" transform="translate(-17.153 -72.734)"/>
    </g>
    <g id="Group_1193" data-name="Group 1193" transform="translate(124.655 41.249)">
      <path id="Path_810" data-name="Path 810" d="M269.942,73.245a.51.51,0,0,1,.511-.511h0a.509.509,0,0,1,.507.511h0a.508.508,0,0,1-.507.507h0A.509.509,0,0,1,269.942,73.245Z" transform="translate(-223.878 -72.734)"/>
      <path id="Path_811" data-name="Path 811" d="M265.348,73.245a.509.509,0,0,1,.511-.511h0a.509.509,0,0,1,.507.511h0a.508.508,0,0,1-.507.507h0A.508.508,0,0,1,265.348,73.245Z" transform="translate(-222.354 -72.734)"/>
      <path id="Path_812" data-name="Path 812" d="M260.753,73.245a.509.509,0,0,1,.507-.511h0a.509.509,0,0,1,.51.511h0a.508.508,0,0,1-.51.507h0A.508.508,0,0,1,260.753,73.245Z" transform="translate(-220.829 -72.734)"/>
      <path id="Path_813" data-name="Path 813" d="M256.158,73.245a.508.508,0,0,1,.507-.511h0a.509.509,0,0,1,.511.511h0a.509.509,0,0,1-.511.507h0A.508.508,0,0,1,256.158,73.245Z" transform="translate(-219.304 -72.734)"/>
      <path id="Path_814" data-name="Path 814" d="M251.557,73.245a.509.509,0,0,1,.511-.511h0a.509.509,0,0,1,.507.511h0a.508.508,0,0,1-.507.507h0A.509.509,0,0,1,251.557,73.245Z" transform="translate(-217.777 -72.734)"/>
      <path id="Path_815" data-name="Path 815" d="M246.962,73.245a.509.509,0,0,1,.507-.511h0a.51.51,0,0,1,.511.511h0a.509.509,0,0,1-.511.507h0A.508.508,0,0,1,246.962,73.245Z" transform="translate(-216.253 -72.734)"/>
      <path id="Path_816" data-name="Path 816" d="M242.367,73.245a.509.509,0,0,1,.507-.511h0a.509.509,0,0,1,.511.511h0a.509.509,0,0,1-.511.507h0A.508.508,0,0,1,242.367,73.245Z" transform="translate(-214.728 -72.734)"/>
      <path id="Path_817" data-name="Path 817" d="M237.767,73.245a.512.512,0,0,1,.51-.511h0a.512.512,0,0,1,.511.511h0a.511.511,0,0,1-.511.507h0A.511.511,0,0,1,237.767,73.245Z" transform="translate(-213.202 -72.734)"/>
      <path id="Path_818" data-name="Path 818" d="M233.172,73.245a.509.509,0,0,1,.511-.511h0a.508.508,0,0,1,.506.511h0a.508.508,0,0,1-.506.507h0A.509.509,0,0,1,233.172,73.245Z" transform="translate(-211.677 -72.734)"/>
      <path id="Path_819" data-name="Path 819" d="M228.577,73.245a.51.51,0,0,1,.511-.511h0a.509.509,0,0,1,.507.511h0a.508.508,0,0,1-.507.507h0A.509.509,0,0,1,228.577,73.245Z" transform="translate(-210.152 -72.734)"/>
      <path id="Path_820" data-name="Path 820" d="M223.982,73.245a.509.509,0,0,1,.507-.511h0a.51.51,0,0,1,.511.511h0a.509.509,0,0,1-.511.507h0A.508.508,0,0,1,223.982,73.245Z" transform="translate(-208.627 -72.734)"/>
      <path id="Path_821" data-name="Path 821" d="M219.381,73.245a.512.512,0,0,1,.511-.511h0a.509.509,0,0,1,.507.511h0a.508.508,0,0,1-.507.507h0A.512.512,0,0,1,219.381,73.245Z" transform="translate(-207.101 -72.734)"/>
      <path id="Path_822" data-name="Path 822" d="M214.787,73.245a.509.509,0,0,1,.51-.511h0a.509.509,0,0,1,.507.511h0a.508.508,0,0,1-.507.507h0A.508.508,0,0,1,214.787,73.245Z" transform="translate(-205.576 -72.734)"/>
      <path id="Path_823" data-name="Path 823" d="M210.192,73.245a.509.509,0,0,1,.51-.511h0a.509.509,0,0,1,.507.511h0a.508.508,0,0,1-.507.507h0A.508.508,0,0,1,210.192,73.245Z" transform="translate(-204.051 -72.734)"/>
      <path id="Path_824" data-name="Path 824" d="M205.6,73.245a.509.509,0,0,1,.507-.511h0a.51.51,0,0,1,.511.511h0a.509.509,0,0,1-.511.507h0A.508.508,0,0,1,205.6,73.245Z" transform="translate(-202.527 -72.734)"/>
      <path id="Path_825" data-name="Path 825" d="M201,73.245a.509.509,0,0,1,.507-.511h0a.51.51,0,0,1,.511.511h0a.509.509,0,0,1-.511.507h0A.508.508,0,0,1,201,73.245Z" transform="translate(-201.002 -72.734)"/>
    </g>
    <g id="Group_1194" data-name="Group 1194" transform="translate(1.427 32.242)">
      <path id="Path_826" data-name="Path 826" d="M19.369,66.348l-2.792-6.922h.986L19.9,65.4l2.335-5.978h.986l-2.782,6.922Z" transform="translate(-16.577 -59.311)"/>
      <path id="Path_827" data-name="Path 827" d="M31.151,66.348,30.539,64.8H27.092l-.612,1.546h-.986l2.792-6.922h1.069l2.782,6.922Zm-2.335-6.04-1.463,3.736h2.937Z" transform="translate(-19.536 -59.311)"/>
      <path id="Path_828" data-name="Path 828" d="M40.505,66.348l-2.627-3.114-.695.789v2.325h-.862V59.426h.862V63l3.062-3.571h1.08l-2.886,3.279,3.145,3.643Z" transform="translate(-23.129 -59.311)"/>
      <path id="Path_829" data-name="Path 829" d="M44.571,65.316l.519-.664a2.856,2.856,0,0,0,2.169,1c1.235,0,1.63-.664,1.63-1.2,0-1.785-4.1-.788-4.1-3.259,0-1.141,1.017-1.931,2.387-1.931a3.255,3.255,0,0,1,2.45.976l-.519.633a2.613,2.613,0,0,0-2-.83c-.82,0-1.422.446-1.422,1.1,0,1.557,4.1.665,4.1,3.249,0,1-.685,2.035-2.553,2.035A3.445,3.445,0,0,1,44.571,65.316Z" transform="translate(-25.866 -59.254)"/>
      <path id="Path_830" data-name="Path 830" d="M53.411,62.835a3.463,3.463,0,0,1,3.56-3.581,3.073,3.073,0,0,1,2.626,1.37l-.716.4a2.327,2.327,0,0,0-1.91-1.006,2.817,2.817,0,0,0,0,5.625,2.352,2.352,0,0,0,1.91-1.007l.727.394a3.115,3.115,0,0,1-2.637,1.381A3.463,3.463,0,0,1,53.411,62.835Z" transform="translate(-28.799 -59.254)"/>
      <path id="Path_831" data-name="Path 831" d="M68.775,66.348V63.172H64.727v3.176h-.861V59.426h.861V62.4h4.048V59.426h.862v6.922Z" transform="translate(-32.269 -59.311)"/>
      <path id="Path_832" data-name="Path 832" d="M74.041,62.835a3.444,3.444,0,1,1,3.436,3.581A3.381,3.381,0,0,1,74.041,62.835Zm5.989,0a2.561,2.561,0,1,0-2.553,2.813A2.571,2.571,0,0,0,80.03,62.835Z" transform="translate(-35.645 -59.254)"/>
      <path id="Path_833" data-name="Path 833" d="M85.46,62.835A3.443,3.443,0,1,1,88.9,66.416,3.381,3.381,0,0,1,85.46,62.835Zm5.988,0A2.561,2.561,0,1,0,88.9,65.648,2.571,2.571,0,0,0,91.448,62.835Z" transform="translate(-39.434 -59.254)"/>
      <path id="Path_834" data-name="Path 834" d="M97.126,66.348V59.426h.862v6.155h3.217v.768Z" transform="translate(-43.305 -59.311)"/>
      <path id="Path_835" data-name="Path 835" d="M109.767,66.348l-2.792-6.922h.986L110.3,65.4l2.335-5.978h.986l-2.782,6.922Z" transform="translate(-46.573 -59.311)"/>
      <path id="Path_836" data-name="Path 836" d="M117.073,62.835a3.444,3.444,0,1,1,3.436,3.581A3.381,3.381,0,0,1,117.073,62.835Zm5.989,0a2.561,2.561,0,1,0-2.553,2.813A2.571,2.571,0,0,0,123.062,62.835Z" transform="translate(-49.924 -59.254)"/>
      <path id="Path_837" data-name="Path 837" d="M128.491,62.835a3.444,3.444,0,1,1,3.436,3.581A3.381,3.381,0,0,1,128.491,62.835Zm5.989,0a2.561,2.561,0,1,0-2.553,2.813A2.571,2.571,0,0,0,134.48,62.835Z" transform="translate(-53.713 -59.254)"/>
      <path id="Path_838" data-name="Path 838" d="M144.335,66.348l-1.754-2.75h-1.39v2.75h-.862V59.426h2.782a2.024,2.024,0,0,1,2.18,2.085,1.921,1.921,0,0,1-1.806,2.014l1.869,2.823Zm.063-4.837a1.29,1.29,0,0,0-1.391-1.318h-1.816V62.84h1.816A1.3,1.3,0,0,0,144.4,61.511Z" transform="translate(-57.641 -59.311)"/>
      <path id="Path_839" data-name="Path 839" d="M152.462,62.835a3.464,3.464,0,0,1,3.56-3.581,3.072,3.072,0,0,1,2.626,1.37l-.716.4a2.33,2.33,0,0,0-1.91-1.006,2.817,2.817,0,0,0,0,5.625,2.354,2.354,0,0,0,1.91-1.007l.726.394a3.113,3.113,0,0,1-2.636,1.381A3.463,3.463,0,0,1,152.462,62.835Z" transform="translate(-61.667 -59.254)"/>
      <path id="Path_840" data-name="Path 840" d="M166.923,66.348l-1.754-2.75h-1.391v2.75h-.861V59.426H165.7a2.025,2.025,0,0,1,2.18,2.085,1.921,1.921,0,0,1-1.806,2.014l1.868,2.823Zm.062-4.837a1.29,1.29,0,0,0-1.39-1.318h-1.817V62.84H165.6A1.3,1.3,0,0,0,166.986,61.511Z" transform="translate(-65.136 -59.311)"/>
      <path id="Path_841" data-name="Path 841" d="M171.911,66.348V59.426h4.536v.767h-3.674v2.232h3.6v.768h-3.6v2.387h3.674v.768Z" transform="translate(-68.121 -59.311)"/>
      <path id="Path_842" data-name="Path 842" d="M184.87,66.348l-.612-1.546h-3.446l-.612,1.546h-.986l2.792-6.922h1.068l2.782,6.922Zm-2.335-6.04-1.464,3.736h2.938Z" transform="translate(-70.544 -59.311)"/>
      <path id="Path_843" data-name="Path 843" d="M190.476,66.348V60.193h-2.19v-.767h5.252v.767h-2.2v6.155Z" transform="translate(-73.555 -59.311)"/>
      <path id="Path_844" data-name="Path 844" d="M197.389,66.348V59.426h.862v6.922Z" transform="translate(-76.575 -59.311)"/>
      <path id="Path_845" data-name="Path 845" d="M200.636,66.348V59.426h4.536v.767H201.5v2.232h3.6v.768h-3.6v2.387h3.674v.768Z" transform="translate(-77.653 -59.311)"/>
      <path id="Path_846" data-name="Path 846" d="M209.009,66.348V59.426h4.536v.767H209.87v2.232h3.6v.768h-3.6v3.155Z" transform="translate(-80.431 -59.311)"/>
      <path id="Path_847" data-name="Path 847" d="M222.135,66.348V60.193h-2.19v-.767H225.2v.767H223v6.155Z" transform="translate(-84.06 -59.311)"/>
      <path id="Path_848" data-name="Path 848" d="M232.592,66.348,231.98,64.8h-3.446l-.612,1.546h-.986l2.791-6.922h1.07l2.782,6.922Zm-2.335-6.04-1.463,3.736h2.937Z" transform="translate(-86.38 -59.311)"/>
      <path id="Path_849" data-name="Path 849" d="M237.593,66.348V59.426h.861v6.155h3.218v.768Z" transform="translate(-89.916 -59.311)"/>
      <path id="Path_850" data-name="Path 850" d="M244.956,66.348V59.426h4.536v.767h-3.674v2.232h3.6v.768h-3.6v2.387h3.674v.768Z" transform="translate(-92.359 -59.311)"/>
      <path id="Path_851" data-name="Path 851" d="M258.228,66.348l-4.037-5.522v5.522h-.861V59.426h.882l3.986,5.408V59.426h.861v6.922Z" transform="translate(-95.138 -59.311)"/>
      <path id="Path_852" data-name="Path 852" d="M265.339,66.348V60.193h-2.19v-.767H268.4v.767h-2.2v6.155Z" transform="translate(-98.396 -59.311)"/>
    </g>
  </g>
</svg>
