<svg xmlns="http://www.w3.org/2000/svg" width="224.208" height="35.907" viewBox="0 0 224.208 35.907">
  <g id="Group_1184" data-name="Group 1184" transform="translate(0)">
    <path id="Path_881" data-name="Path 881" d="M550.43,431.784l-2,5.6-2-5.6H545.35l2.472,6.528h1.19l2.489-6.528Z" transform="translate(-489.589 -402.505)"/>
    <path id="Path_882" data-name="Path 882" d="M554.707,432.617l1.162,3.26h-2.321Zm-.591-.878-2.477,6.542h1.054l.609-1.69h2.8l.616,1.69h1.046l-2.463-6.542Z" transform="translate(-488.771 -402.511)"/>
    <g id="Group_1202" data-name="Group 1202" transform="translate(70.411 29.132)">
      <path id="Path_883" data-name="Path 883" d="M562.288,433.515a1.42,1.42,0,0,0-.166-.519,1.4,1.4,0,0,0-1.251-.567,1.577,1.577,0,0,0-1.149.394.76.76,0,0,0-.207.545.651.651,0,0,0,.131.422c.232.306.682.456,1.454.7a10.716,10.716,0,0,1,1.072.383,2.28,2.28,0,0,1,.969.667,1.638,1.638,0,0,1,.318,1,1.7,1.7,0,0,1-.55,1.26,2.84,2.84,0,0,1-1.977.63,3.158,3.158,0,0,1-1.907-.547,1.833,1.833,0,0,1-.5-.6,2.26,2.26,0,0,1-.208-1.042l.971.011a1.386,1.386,0,0,0,.27.88,1.738,1.738,0,0,0,1.4.516,1.716,1.716,0,0,0,1.266-.42.944.944,0,0,0,.243-.652.894.894,0,0,0-.332-.706,4.847,4.847,0,0,0-1.369-.579,9.189,9.189,0,0,1-.956-.33,1.745,1.745,0,0,1-1.276-1.545,1.636,1.636,0,0,1,.233-.829,2.836,2.836,0,0,1,4.243.038,1.914,1.914,0,0,1,.244.888Z" transform="translate(-558.315 -431.654)"/>
    </g>
    <path id="Path_884" data-name="Path 884" d="M564.117,431.784v.763h1.924v5.729h.951v-5.729h1.988v-.763Z" transform="translate(-487.15 -402.505)"/>
    <g id="Group_1203" data-name="Group 1203" transform="translate(83.183 29.131)">
      <path id="Path_885" data-name="Path 885" d="M575.462,435.046v2.469a2.874,2.874,0,0,1-.389.294,3.932,3.932,0,0,1-2.2.62,3.049,3.049,0,0,1-3.253-3.371,4.647,4.647,0,0,1,.155-1.185,2.925,2.925,0,0,1,3-2.219,2.741,2.741,0,0,1,2.363,1.084,2.582,2.582,0,0,1,.3.94h-.918a1.719,1.719,0,0,0-.308-.643,1.545,1.545,0,0,0-1.406-.606,2.034,2.034,0,0,0-1.482.567,3.189,3.189,0,0,0-.688,2.088,3.07,3.07,0,0,0,.517,1.788,2.195,2.195,0,0,0,1.767.777,2.783,2.783,0,0,0,1.7-.567v-1.308h-1.417v-.728Z" transform="translate(-569.618 -431.653)"/>
      <path id="Path_886" data-name="Path 886" d="M578.566,437.351a2.039,2.039,0,0,0,1.121.313,2.175,2.175,0,0,0,1.075-.286,2.7,2.7,0,0,0,1.107-2.332,3.325,3.325,0,0,0-.515-1.815,2.039,2.039,0,0,0-1.667-.8,2.279,2.279,0,0,0-1.093.282,3.027,3.027,0,0,0-.028,4.641m-1.775-3.849a3.027,3.027,0,0,1,2.9-1.85,3.164,3.164,0,0,1,2.275.877,3.627,3.627,0,0,1,.928,2.516,4.158,4.158,0,0,1-.3,1.531,3.012,3.012,0,0,1-2.905,1.852,3.087,3.087,0,0,1-2.307-.914,3.658,3.658,0,0,1-.889-2.469,3.944,3.944,0,0,1,.3-1.544" transform="translate(-568.725 -431.653)"/>
    </g>
    <path id="Path_887" data-name="Path 887" d="M583.923,431.784v6.491h4.345v-.765H584.89V435.3h3.031v-.766H584.89v-1.99h3.288v-.763Z" transform="translate(-484.576 -402.505)"/>
    <g id="Group_1204" data-name="Group 1204" transform="translate(105.653 29.279)">
      <path id="Path_888" data-name="Path 888" d="M591.01,437.511c1.072-.011,2.116,0,2.76-.988a2.565,2.565,0,0,0,.4-1.469,2.3,2.3,0,0,0-1.46-2.345,5.326,5.326,0,0,0-1.911-.163h-.337v4.964Zm-.22-5.727a10.015,10.015,0,0,1,1.925.123,2.943,2.943,0,0,1,1.823,1.111,3.32,3.32,0,0,1,.643,2.024,3.064,3.064,0,0,1-1.242,2.58,5.2,5.2,0,0,1-3.238.654h-1.2v-6.492Z" transform="translate(-589.504 -431.784)"/>
    </g>
    <path id="Path_889" data-name="Path 889" d="M599.186,431.784v6.491h4.345v-.765h-3.38V435.3h3.027v-.766h-3.027v-1.99h3.29v-.763Z" transform="translate(-482.593 -402.505)"/>
    <path id="Path_890" data-name="Path 890" d="M609.293,431.784v5.071l-3.495-5.071h-1.034v6.491h.958v-5.1l3.47,5.1h1.055v-6.491Z" transform="translate(-481.868 -402.505)"/>
    <g id="Group_1205" data-name="Group 1205" transform="translate(133.962 29.131)">
      <path id="Path_891" data-name="Path 891" d="M616.33,437.511a5.187,5.187,0,0,0,1.519-.123.985.985,0,0,0,.609-.532,1.446,1.446,0,0,0,.086-.479.985.985,0,0,0-.6-.94,4.431,4.431,0,0,0-1.611-.171h-.815v2.245Zm-.057-3.012a2.863,2.863,0,0,0,1.511-.233.9.9,0,0,0,.44-.779.947.947,0,0,0-.194-.568c-.286-.357-.865-.372-1.779-.372h-.736V434.5Zm-.191-2.714a4.785,4.785,0,0,1,2.425.358,1.475,1.475,0,0,1,.711,1.306,1.409,1.409,0,0,1-.646,1.2,1.835,1.835,0,0,1-.306.149,1.622,1.622,0,0,1,1.3,1.612,1.661,1.661,0,0,1-1.044,1.606,6.219,6.219,0,0,1-2.462.26h-1.5v-6.492Z" transform="translate(-614.558 -431.636)"/>
      <path id="Path_892" data-name="Path 892" d="M622.433,437.351a2.028,2.028,0,0,0,1.124.313,2.164,2.164,0,0,0,1.07-.286,2.7,2.7,0,0,0,1.11-2.332,3.331,3.331,0,0,0-.514-1.815,2.042,2.042,0,0,0-1.666-.8,2.256,2.256,0,0,0-1.091.282,3.021,3.021,0,0,0-.033,4.641m-1.777-3.849a3.031,3.031,0,0,1,2.9-1.85,3.127,3.127,0,0,1,2.269.877,3.594,3.594,0,0,1,.933,2.516,4.093,4.093,0,0,1-.3,1.531,3.01,3.01,0,0,1-2.9,1.852,3.08,3.08,0,0,1-2.307-.914,3.633,3.633,0,0,1-.891-2.469,3.986,3.986,0,0,1,.3-1.544" transform="translate(-613.804 -431.653)"/>
      <path id="Path_893" data-name="Path 893" d="M628.732,431.784V435.6a4.658,4.658,0,0,0,.069,1.113,1.216,1.216,0,0,0,.915.837,3.167,3.167,0,0,0,.763.085,2.779,2.779,0,0,0,1.121-.233,1.017,1.017,0,0,0,.333-.284c.3-.371.271-.706.285-1.532v-3.8h.967v3.825a2.631,2.631,0,0,1-.478,2,2.941,2.941,0,0,1-2.243.8,2.517,2.517,0,0,1-2.529-1.3,3.521,3.521,0,0,1-.168-1.519v-3.814Z" transform="translate(-612.843 -431.636)"/>
    </g>
    <path id="Path_894" data-name="Path 894" d="M641.739,431.784l-1.488,5.295-1.445-5.295h-.846l-1.434,5.295-1.5-5.295h-1.006l1.9,6.528h1.111l1.35-4.777,1.357,4.777h1.095l1.885-6.528Z" transform="translate(-478.066 -402.505)"/>
    <g id="Group_1206" data-name="Group 1206" transform="translate(0 0.818)">
      <path id="Path_895" data-name="Path 895" d="M504.561,410.834A1.894,1.894,0,0,0,503,409.075a4.333,4.333,0,0,0-1.171-.159c-1.7,0-2.4.8-2.4,1.6a1.112,1.112,0,0,0,.393.854,5.38,5.38,0,0,0,2.061.91c3.4,1.066,5.051,1.572,5.688,3.44a3.162,3.162,0,0,1,.224,1.308c0,1.922-1.367,4.242-5.687,4.242-3.515,0-5.133-1.414-5.747-2.855a5.843,5.843,0,0,1-.362-2.243h2.872a3.569,3.569,0,0,0,.277,1.417c.534,1.121,1.9,1.362,3.014,1.362,1.955,0,2.647-.91,2.647-1.816a1.393,1.393,0,0,0-.5-1.122c-.808-.667-2.424-.96-4.654-1.763-.615-.211-3.151-1.064-3.151-3.625a3.519,3.519,0,0,1,.615-2.028c.667-.989,2.092-2,4.824-2,2.927,0,4.4,1.146,5.02,2.32a4.8,4.8,0,0,1,.472,1.919Z" transform="translate(-496.001 -406.596)"/>
    </g>
    <path id="Path_896" data-name="Path 896" d="M519.32,406.854v2.3h-4.181v11.794h-2.932V409.15h-4.016v-2.3Z" transform="translate(-494.417 -405.744)"/>
    <path id="Path_897" data-name="Path 897" d="M527.32,415.583l-2.042-6.086-2.033,6.086Zm-.394-8.756,5.411,14.12h-3.209l-1.088-3.206h-5.521l-1.061,3.206h-3.235l5.412-14.12Z" transform="translate(-493.113 -405.748)"/>
    <path id="Path_898" data-name="Path 898" d="M537.183,406.854l4.125,10.967,4.1-10.967h4.073v14.09h-2.707V410.457l-4.124,10.487h-2.739l-4.124-10.461v10.461h-2.7v-14.09Z" transform="translate(-491.183 -405.744)"/>
    <g id="Group_1207" data-name="Group 1207" transform="translate(100.883 1.11)">
      <path id="Path_899" data-name="Path 899" d="M590.664,418.62a4.009,4.009,0,0,0,3.626-1.785,5.26,5.26,0,0,0,.727-2.831c0-2.936-1.475-4.19-2.845-4.59a11.3,11.3,0,0,0-3.262-.264h-.669v9.47Zm-1.7-11.766c2.151.026,4.242,0,6.082,1.225a6.714,6.714,0,0,1,2.981,5.873,8.383,8.383,0,0,1-.275,2.106,6.372,6.372,0,0,1-3.8,4.269,15.421,15.421,0,0,1-5.408.617h-3.266v-14.09Z" transform="translate(-585.283 -406.854)"/>
    </g>
    <path id="Path_900" data-name="Path 900" d="M608.435,412.509v2.3h-6.1v3.812h7.082v2.325H599.4v-14.09h9.706v2.295h-6.776v3.36Z" transform="translate(-482.565 -405.744)"/>
    <path id="Path_901" data-name="Path 901" d="M631.075,406.854l-6.329,6.589,6.582,7.5h-3.849l-6.134-7.418,6.278-6.672Zm-9.784,14.09h-2.959v-14.09h2.959Z" transform="translate(-480.105 -405.744)"/>
    <g id="Group_1208" data-name="Group 1208" transform="translate(152.296 0.819)">
      <path id="Path_902" data-name="Path 902" d="M637.978,418.951a3.766,3.766,0,0,0,2.9-1.286,5.615,5.615,0,0,0,1.253-3.732c0-2.431-1.283-5.017-4.184-5.017a3.589,3.589,0,0,0-2.034.559,5.165,5.165,0,0,0-2.12,4.485c0,2.373,1.285,4.991,4.184,4.991m0-12.354c4.462,0,7.168,3.224,7.168,7.363,0,4.08-2.706,7.311-7.2,7.311-4.458,0-7.165-3.23-7.165-7.338.025-4.112,2.707-7.336,7.2-7.336" transform="translate(-630.783 -406.597)"/>
    </g>
    <path id="Path_903" data-name="Path 903" d="M649.573,406.854l6.692,9.579v-9.579h2.9v14.09H656.3l-6.78-9.768v9.768h-2.9v-14.09Z" transform="translate(-476.43 -405.744)"/>
    <rect id="Rectangle_414" data-name="Rectangle 414" width="2.986" height="14.09" transform="translate(187.853 1.11)"/>
    <path id="Path_904" data-name="Path 904" d="M671.761,406.854l6.7,9.579v-9.579h2.9v14.09h-2.875l-6.773-9.768v9.768h-2.9v-14.09Z" transform="translate(-473.546 -405.744)"/>
    <g id="Group_1209" data-name="Group 1209" transform="translate(210.988 0.818)">
      <path id="Path_905" data-name="Path 905" d="M695.945,413.8l-.029,5.391a5.6,5.6,0,0,1-1.089.826,8.739,8.739,0,0,1-4.711,1.257,8.63,8.63,0,0,1-3.128-.482c-3-1.118-4.262-3.894-4.262-6.827A9.111,9.111,0,0,1,683.2,411c1.029-2.91,3.484-4.4,6.636-4.4,3.236,0,4.826,1.466,5.44,2.664a5.722,5.722,0,0,1,.616,2.19h-2.711a3.62,3.62,0,0,0-.747-1.523,2.986,2.986,0,0,0-2.515-1.011,4.166,4.166,0,0,0-2.312.637c-1.479.963-1.871,2.911-1.871,4.511,0,2.722,1.34,4.886,4.462,4.886a5.189,5.189,0,0,0,3.263-1.044v-2.078h-3.093V413.8Z" transform="translate(-682.726 -406.596)"/>
    </g>
    <path id="Path_906" data-name="Path 906" d="M565.831,417.386h0v-3.094H562.6l-3.6,3.445,3.235,3.1Z" transform="translate(-487.816 -404.778)"/>
    <path id="Path_907" data-name="Path 907" d="M571.025,414.292h-3.233v3.094l3.6,3.45,3.234-3.1Z" transform="translate(-486.672 -404.778)"/>
    <path id="Path_908" data-name="Path 908" d="M571.4,405.872l-3.6,3.443v3.1h3.233v0l3.606-3.449Z" transform="translate(-486.673 -405.872)"/>
    <path id="Path_909" data-name="Path 909" d="M562.228,405.872l-3.235,3.094,3.6,3.449v0h3.234v-3.1Z" transform="translate(-487.816 -405.872)"/>
  </g>
</svg>
