<svg xmlns="http://www.w3.org/2000/svg" width="192.19" height="48.45" viewBox="0 0 192.19 48.45">
  <g id="Group_1221" data-name="Group 1221" transform="translate(0 0)">
    <g id="Group_1218" data-name="Group 1218" transform="translate(59.559)">
      <path id="Path_929" data-name="Path 929" d="M378.858,265c-1.045-2.509-3.448-3.177-5.34-3.417-1.071-.132-5.982-.4-7.369,1.443a1.827,1.827,0,0,0-.24,1.76c.536,1.178,2.162,1.469,3.763,1.708l5.9.832c2.27.316,5.712,1.009,7.048,3.9a6.529,6.529,0,0,1-.271,5.283c-1.627,2.723-5.655,3.58-7.818,3.764-3.126.214-9.424,0-12.469-3.845a7.6,7.6,0,0,1-1.229-2.239l3.9-1.255c1.52,2.989,4.779,3.708,6.966,3.846.8.025,5.605,0,6.885-1.739a1.924,1.924,0,0,0,.163-1.973c-.724-1.469-2.779-1.765-4.488-1.948l-5.365-.75c-2.453-.321-5.952-1.091-7.1-4.268a5.462,5.462,0,0,1,.908-5.182c2.8-3.386,10.465-2.907,12.571-2.586,2.882.454,5.875,1.678,7.395,5.391Z" transform="translate(-360.835 -258.074)"/>
      <path id="Path_930" data-name="Path 930" d="M421.274,258.059v3.493h-9.506V280.3h-4.136V261.552h-9.5v-3.493Z" transform="translate(-375.304 -258.059)"/>
      <path id="Path_931" data-name="Path 931" d="M444.129,258.1v11.247c0,2.193-.189,4.835,2.667,6.461,2.137,1.2,7.048,1.229,9.21-.107,2.617-1.545,2.351-4,2.351-5.952V258.1h4.136V270.12c0,2.963-.184,6.406-4.136,8.675-3.335,1.923-10.572,2.086-13.963.107-4.243-2.427-4.4-6.165-4.4-9.419V258.1Z" transform="translate(-391.544 -258.074)"/>
      <path id="Path_932" data-name="Path 932" d="M493.407,258.059c2.937,0,7.818.668,10.144,4.962,1.6,3.126,1.653,9.4-.214,12.5-2.565,4.3-7.262,4.778-10.863,4.778H482.463V258.059Zm-.933,18.637c2.56,0,5.712-.189,7.446-3.152,1.122-1.948,1.04-6.729.026-8.6-1.683-3.07-5.763-3.391-7.793-3.391H486.6V276.7Z" transform="translate(-408.02 -258.059)"/>
      <path id="Path_933" data-name="Path 933" d="M528.46,258.1v22.213h-4.136V258.1Z" transform="translate(-424.259 -258.074)"/>
      <path id="Path_934" data-name="Path 934" d="M559.316,262.287c2.3,2.881,2.566,7.951,1.576,10.806a9.784,9.784,0,0,1-7.395,6.676c-3.417.857-10.225,1.066-14.121-2.509-3.121-2.856-3.631-7.369-3.2-10.169a9.689,9.689,0,0,1,5.982-7.849,15.28,15.28,0,0,1,4.59-1.122C549.443,257.855,556.169,258.309,559.316,262.287Zm-16.977,12.306c2.591,2.4,7.609,2.32,9.96,1.6,2.667-.8,4.161-2.193,4.83-4.778a7.857,7.857,0,0,0-1.9-7.691c-2.453-2.377-7.206-2.484-9.608-1.815a6.489,6.489,0,0,0-5.207,5.207C540.018,268.932,540.151,272.589,542.339,274.593Z" transform="translate(-428.805 -258.059)"/>
    </g>
    <g id="Group_1219" data-name="Group 1219" transform="translate(0 0)">
      <path id="Path_935" data-name="Path 935" d="M306.061,274.209a16.15,16.15,0,0,1-16.15-16.15h16.15Z" transform="translate(-273.761 -258.059)"/>
      <path id="Path_936" data-name="Path 936" d="M306.061,284.445a16.15,16.15,0,1,1-16.15,16.15h16.15Z" transform="translate(-273.761 -268.295)"/>
      <path id="Path_937" data-name="Path 937" d="M263.525,284.445a16.15,16.15,0,0,1,16.15,16.15h-16.15Z" transform="translate(-263.525 -268.295)"/>
      <path id="Path_938" data-name="Path 938" d="M279.675,258.059a16.15,16.15,0,0,1-16.15,16.15v-16.15Z" transform="translate(-263.525 -258.059)"/>
    </g>
    <g id="Group_1220" data-name="Group 1220" transform="translate(59.559 26.223)">
      <path id="Path_939" data-name="Path 939" d="M378.858,307.8c-1.045-2.509-3.448-3.177-5.34-3.417-1.071-.132-5.982-.4-7.369,1.438a1.837,1.837,0,0,0-.24,1.765c.536,1.173,2.162,1.469,3.763,1.708l5.9.826c2.27.321,5.712,1.015,7.048,3.9a6.542,6.542,0,0,1-.271,5.289c-1.627,2.723-5.655,3.575-7.818,3.764-3.126.214-9.424,0-12.469-3.846a7.611,7.611,0,0,1-1.229-2.244l3.9-1.255c1.52,2.994,4.779,3.713,6.966,3.846.8.026,5.605,0,6.885-1.734a1.935,1.935,0,0,0,.163-1.979c-.724-1.463-2.779-1.76-4.488-1.948l-5.365-.744c-2.453-.321-5.952-1.1-7.1-4.274a5.454,5.454,0,0,1,.908-5.176c2.8-3.391,10.465-2.912,12.571-2.591,2.882.454,5.875,1.683,7.395,5.39Z" transform="translate(-360.835 -300.902)"/>
      <path id="Path_940" data-name="Path 940" d="M421.274,300.9v3.5h-9.506v18.728h-4.136V304.4h-9.5v-3.5Z" transform="translate(-375.304 -300.902)"/>
      <path id="Path_941" data-name="Path 941" d="M444.17,313.876v9.252h-4.136V300.9h14.145c2.132,0,6.084.163,7.793,3.2a8.9,8.9,0,0,1,.056,6.676,6.6,6.6,0,0,1-4.993,2.963l6.993,9.385h-5.095l-6.783-9.252Zm8.963-3.391c1.31,0,4.141.163,5.156-1.495a4.3,4.3,0,0,0,.026-3.147c-.908-1.606-3.336-1.443-5.075-1.443h-9.07v6.084Z" transform="translate(-391.56 -300.902)"/>
      <path id="Path_942" data-name="Path 942" d="M486.6,300.9v22.227h-4.136V300.9Z" transform="translate(-408.02 -300.902)"/>
      <path id="Path_943" data-name="Path 943" d="M508.426,300.9v13.715c0,2.433-.056,4.835-2.672,6.834-2.989,2.27-9.129,1.816-12.143,1.071v-3.764c1.866.531,6.966,1.362,9.18-.321,1.576-1.173,1.525-3.07,1.525-4.539v-13Z" transform="translate(-412.344 -300.902)"/>
      <path id="Path_944" data-name="Path 944" d="M535.806,300.9c2.137,0,6.089.163,7.8,3.2a8.867,8.867,0,0,1,.052,6.676c-1.709,3.014-5.737,3.1-7.767,3.1H528.46v9.252h-4.136V300.9Zm-1.04,9.583c1.31,0,4.141.163,5.15-1.495a4.273,4.273,0,0,0,.031-3.147c-.908-1.606-3.34-1.443-5.074-1.443H528.46v6.084Z" transform="translate(-424.259 -300.902)"/>
    </g>
  </g>
</svg>
