<svg xmlns="http://www.w3.org/2000/svg" width="131.64" height="90.155" viewBox="0 0 131.64 90.155">
  <g id="Group_1310" data-name="Group 1310" transform="translate(0)">
    <g id="Group_1296" data-name="Group 1296" transform="translate(17.785 63.791)">
      <path id="Path_1092" data-name="Path 1092" d="M192.794,417.661q-3.1,0-3.1-3.1v-.775H199c4.394,0,7.755,2.068,7.755,5.945,0,3.916-3.877,6.318-9.047,6.318-4.986,0-8.532-2.182-8.532-5.284,0-2.764,3.619-2.583,3.619-2.583ZM203.8,403.444a5.668,5.668,0,0,1,.627,2.585c0,3.583-3.36,6.462-7.5,6.462s-7.5-2.879-7.5-6.462,3.36-6.346,7.5-6.346h9.823v3.761Zm-8.937,14.736a1.73,1.73,0,0,0-1.292,1.809c0,1.551,1.809,2.328,4.136,2.328,2.583,0,4.394-.776,4.394-2.328s-1.551-1.809-2.845-1.809Zm4.912-12.041a2.849,2.849,0,0,0-5.689,0,2.845,2.845,0,1,0,5.689,0Z" transform="translate(-189.175 -399.683)"/>
    </g>
    <g id="Group_1297" data-name="Group 1297" transform="translate(0)">
      <path id="Path_1093" data-name="Path 1093" d="M111.249,105.755v7.791a2.034,2.034,0,0,0,2.29,2.29c2.843,0,3.952-1.034,3.952-1.034a2.482,2.482,0,0,1,.958,2.068c0,1.809-1.773,3.361-5.39,3.361-4.136,0-6.464-2.845-6.464-6.723v-7.754h-1.809v-1.034L109.766,97h1.483v4.617h6.2v4.136Z" transform="translate(-104.787 -97.002)"/>
    </g>
    <g id="Group_1298" data-name="Group 1298" transform="translate(16.731)">
      <path id="Path_1094" data-name="Path 1094" d="M194.771,120.231V106.9l-5.945,1.365v11.961h-4.655V97h4.655v7.354a22.193,22.193,0,0,1,10.6-2.621v18.5Z" transform="translate(-184.171 -97.002)"/>
    </g>
    <g id="Group_1299" data-name="Group 1299" transform="translate(35.7 4.705)">
      <path id="Path_1095" data-name="Path 1095" d="M278.879,130.114a3.98,3.98,0,0,0,4.295,3.6,10.9,10.9,0,0,0,5.394-1.285,2.832,2.832,0,0,1,.772,1.8c0,1.8-1.285,3.6-6.423,3.6-4.624,0-8.735-3.083-8.735-9.249,0-5.1,3.045-9.249,8.112-9.249s8.586,3.853,7.046,10.788Zm6.092-3.339a2.711,2.711,0,0,0-2.678-3.6c-1.873,0-3.011,1.357-3.376,3.6Z" transform="translate(-274.181 -119.326)"/>
    </g>
    <g id="Group_1300" data-name="Group 1300" transform="translate(0.002 32.578)">
      <path id="Path_1096" data-name="Path 1096" d="M112.291,255.719c-1.553,0-2.845,0-2.845,1.292,0,2.068,8.568,1.81,8.568,7.755,0,3.362-3.1,5.43-6.981,5.43-4.172,0-6.24-1.553-6.24-3.621a2.464,2.464,0,0,1,.775-1.809,9.4,9.4,0,0,0,5.17,1.294c1.553,0,2.587-.259,2.587-1.294,0-2.585-8.532-1.809-8.532-7.755,0-3.1,3.619-5.428,7.238-5.428a24.376,24.376,0,0,1,5.17.515v4.4Z" transform="translate(-104.793 -251.583)"/>
    </g>
    <path id="Path_1097" data-name="Path 1097" d="M513.682,234.41a2.366,2.366,0,1,1,2.351-2.383A2.377,2.377,0,0,1,513.682,234.41Z" transform="translate(-425.626 -201.716)"/>
    <rect id="Rectangle_420" data-name="Rectangle 420" width="4.653" height="15.81" transform="translate(85.694 35.381)"/>
    <g id="Group_1301" data-name="Group 1301" transform="translate(95.148 32.836)">
      <path id="Path_1098" data-name="Path 1098" d="M566.857,271.161V257.718l-5.945,1.366v12.077h-4.655V252.806h4.655v2.363a22.669,22.669,0,0,1,10.6-2.363v18.355Z" transform="translate(-556.257 -252.806)"/>
    </g>
    <g id="Group_1302" data-name="Group 1302" transform="translate(114.062 32.836)">
      <path id="Path_1099" data-name="Path 1099" d="M649.618,270.642q-3.1,0-3.1-3.1v-.775h9.306c4.394,0,7.755,2.068,7.755,5.945,0,3.916-3.877,6.318-9.047,6.318-4.986,0-8.532-2.182-8.532-5.284,0-2.764,3.619-2.583,3.619-2.583Zm11.005-14.217a5.668,5.668,0,0,1,.627,2.585c0,3.583-3.36,6.462-7.5,6.462s-7.5-2.879-7.5-6.462,3.36-6.2,7.5-6.2h9.824v3.619Zm-8.937,14.736a1.731,1.731,0,0,0-1.292,1.809c0,1.551,1.809,2.327,4.136,2.327,2.583,0,4.394-.776,4.394-2.327s-1.551-1.809-2.844-1.809ZM656.6,259.12a2.849,2.849,0,0,0-5.689,0,2.845,2.845,0,1,0,5.689,0Z" transform="translate(-645.999 -252.806)"/>
    </g>
    <g id="Group_1303" data-name="Group 1303" transform="translate(0 63.817)">
      <path id="Path_1100" data-name="Path 1100" d="M116.656,418.276l-1.1-4.693-2.473.7-2.549-.665-1.1,4.659h-4.653l4.531-18.471h7.5l4.5,18.469Zm-3.35-14.59h-.479l-1.366,5.981,1.625.481,1.587-.481Z" transform="translate(-104.787 -399.807)"/>
    </g>
    <g id="Group_1304" data-name="Group 1304" transform="translate(37.17 63.791)">
      <path id="Path_1101" data-name="Path 1101" d="M285.851,410.471a3.981,3.981,0,0,0,4.293,3.6,10.9,10.9,0,0,0,5.4-1.285,2.835,2.835,0,0,1,.77,1.8c0,1.8-1.284,3.6-6.422,3.6-4.624,0-8.735-3.083-8.735-9.249,0-5.1,3.047-9.248,8.11-9.248s8.59,3.853,7.046,10.788Zm6.092-3.339a2.712,2.712,0,0,0-2.68-3.6c-1.871,0-3.008,1.357-3.376,3.6Z" transform="translate(-281.153 -399.683)"/>
    </g>
    <g id="Group_1305" data-name="Group 1305" transform="translate(56.44 63.791)">
      <path id="Path_1102" data-name="Path 1102" d="M383.186,418.18V404.622l-5.947,1.366V418.18h-4.651v-18.5h4.651v2.39a22.6,22.6,0,0,1,10.6-2.39v18.5Z" transform="translate(-372.588 -399.683)"/>
    </g>
    <g id="Group_1306" data-name="Group 1306" transform="translate(75.25 63.791)">
      <path id="Path_1103" data-name="Path 1103" d="M470.832,404.05c-2.571,0-4.4,1.8-4.4,4.882s1.651,4.88,4.551,4.88a9.809,9.809,0,0,0,4.991-1.541,3.968,3.968,0,0,1,.512,2.055c0,1.8-2.055,3.854-6.166,3.854-4.88,0-8.477-3.083-8.477-9.249,0-5.909,4.037-9.248,8.993-9.248,3.339,0,5.394,1.8,5.394,4.111a2.832,2.832,0,0,1-.772,1.8Z" transform="translate(-461.839 -399.683)"/>
    </g>
    <g id="Group_1307" data-name="Group 1307" transform="translate(92.305 63.817)">
      <path id="Path_1104" data-name="Path 1104" d="M543.6,426.145l6.238-12.378-7.073-13.96h5.558l3.879,9.049h.258l3.879-9.049h5.555l-13.066,26.338Z" transform="translate(-542.763 -399.807)"/>
    </g>
    <path id="Path_1105" data-name="Path 1105" d="M331.383,305.225a8.133,8.133,0,0,1-12.969,0l0,0-2.9,2.9a12.2,12.2,0,0,0,18.773,0Z" transform="translate(-271.101 -261.339)"/>
    <g id="Group_1308" data-name="Group 1308" transform="translate(15.809 27.962)">
      <path id="Path_1106" data-name="Path 1106" d="M179.8,252.907V229.678h4.655v23.229Z" transform="translate(-179.8 -229.678)"/>
    </g>
    <g id="Group_1309" data-name="Group 1309" transform="translate(65.673 32.836)">
      <path id="Path_1107" data-name="Path 1107" d="M416.4,279.028V252.806h7.572c5.871,0,8.973,3.915,8.973,9.049s-3.286,9.306-9.047,9.306a14.62,14.62,0,0,1-2.843-.3v8.163Zm4.655-21.829v8.791a6.878,6.878,0,0,0,2.843.515c2.585,0,4.4-1.809,4.4-4.651s-1.811-4.655-4.322-4.655Z" transform="translate(-416.398 -252.806)"/>
    </g>
    <path id="Path_1108" data-name="Path 1108" d="M230.032,305.225a8.133,8.133,0,0,1-12.97,0l0,0-2.9,2.9a12.2,12.2,0,0,0,18.773,0Z" transform="translate(-191.11 -261.339)"/>
    <path id="Path_1109" data-name="Path 1109" d="M104.787,97" transform="translate(-104.787 -97.002)"/>
    <path id="Path_1110" data-name="Path 1110" d="M729.409,377.229" transform="translate(-597.769 -318.171)"/>
    <path id="Path_1111" data-name="Path 1111" d="M729.409,229.418" transform="translate(-597.769 -201.511)"/>
    <path id="Path_1112" data-name="Path 1112" d="M104.787,229.418" transform="translate(-104.787 -201.511)"/>
  </g>
</svg>
