<svg xmlns="http://www.w3.org/2000/svg" width="122.622" height="130.427" viewBox="0 0 122.622 130.427">
  <g id="Group_1315" data-name="Group 1315" transform="translate(0)">
    <g id="Group_1312" data-name="Group 1312" transform="translate(19.891)">
      <path id="Path_1121" data-name="Path 1121" d="M346.086,147.439a2.764,2.764,0,1,0-2.764-2.764A2.767,2.767,0,0,0,346.086,147.439Z" transform="translate(-330.319 -133.701)"/>
      <path id="Path_1122" data-name="Path 1122" d="M340.4,151.158l9.838-9.835a1.119,1.119,0,0,0,0-1.583l-14.56-14.555a15.744,15.744,0,0,0-14.661-5.526c-7.746,1.226-13.25,8.253-13.25,16.1V161.1a14.812,14.812,0,0,0,.079,1.562A28.681,28.681,0,0,0,336.47,189.8h34.573l5.794,5.795a1.122,1.122,0,0,0,.791.328h4.838a1.119,1.119,0,0,0,.791-1.911ZM339.3,136.8l2.935,2.936a1.119,1.119,0,0,1,0,1.583l-2.935,2.934Zm0,24.295v-3.04l11.236,11.236a1.119,1.119,0,0,1-.791,1.91H335.61A15.731,15.731,0,0,0,339.3,161.1Zm-25.871-25.431a10.456,10.456,0,0,1,7.076-10.081,10.045,10.045,0,0,1,9.386,1.807l1.5,1.5a10.075,10.075,0,0,1,1.412,2.345,1.126,1.126,0,0,1-.876,1.552,28.63,28.63,0,0,0-16.568,8.911,1.108,1.108,0,0,1-1.934-.743Zm.054,26.481-.023-.4c-.015-.217-.031-.434-.031-.654a23.123,23.123,0,0,1,11.793-20.067,5.617,5.617,0,0,1,8.419,4.845v14.766c0,5.532-4.247,10.382-9.776,10.556A10.076,10.076,0,0,1,313.483,162.149Zm37.662,16.689a23.22,23.22,0,0,1-14.675,5.3,22.884,22.884,0,0,1-17.34-7.911,15.617,15.617,0,0,0,4.405.636H350.41A1.122,1.122,0,0,1,351.145,178.838Zm11.537,5.3h-6.031a1.116,1.116,0,0,1-.738-1.951,29.07,29.07,0,0,0,2.795-2.963,1.116,1.116,0,0,1,1.66-.1l3.1,3.1A1.119,1.119,0,0,1,362.682,184.14Z" transform="translate(-307.769 -119.461)"/>
    </g>
    <g id="Group_1313" data-name="Group 1313" transform="translate(0 83.396)">
      <path id="Path_1123" data-name="Path 1123" d="M281.183,347.5H274.79c-1.176,0-1.334.392-1.765,1.412-.274.666-3.019,8.98-5.332,15.922-2.315-6.942-5.1-15.256-5.372-15.922-.393-1.02-.59-1.412-1.727-1.412H254.2c-.665,0-1.02.51-.706,1.373.353.941,9.334,24.431,9.648,25.1s.55.98,1.255.98h6.589c.705,0,.941-.314,1.215-.98.314-.667,9.333-24.236,9.686-25.1C282.2,348,281.809,347.5,281.183,347.5Z" transform="translate(-253.379 -347.495)"/>
      <path id="Rectangle_421" data-name="Rectangle 421" d="M2.68,0H5.4A2.683,2.683,0,0,1,8.079,2.683V24.771A2.681,2.681,0,0,1,5.4,27.451H2.683A2.683,2.683,0,0,1,0,24.768V2.68A2.68,2.68,0,0,1,2.68,0Z" transform="translate(40.002 0)"/>
      <path id="Path_1124" data-name="Path 1124" d="M441.353,347.5h-6.118a.971.971,0,0,0-.979.98v12.981s-7.647-11.451-8.47-12.549-1.255-1.412-2.2-1.412h-4.509a1,1,0,0,0-.981.98v25.491a.972.972,0,0,0,.981.98h6.157a1,1,0,0,0,.979-.98V360.75L435,373.966a2.035,2.035,0,0,0,2,.98h4.353a.972.972,0,0,0,.981-.98V348.475A.971.971,0,0,0,441.353,347.5Z" transform="translate(-357.857 -347.495)"/>
      <path id="Path_1125" data-name="Path 1125" d="M543.417,373.574c-.391-.706-6.313-9.647-7.921-12.039,1.725-3.137,6.275-12.236,6.548-12.784.432-.785.2-1.255-.941-1.255h-7.019a1.53,1.53,0,0,0-1.49.98c-.158.313-2.747,5.412-4.785,9.372h-2.08v-9.372a1,1,0,0,0-.979-.98h-6.157a1,1,0,0,0-.981.98v25.491a1,1,0,0,0,.981.98h6.157a1,1,0,0,0,.979-.98v-9.373h2.2c2.313,3.53,5.529,8.354,5.92,8.942.628.9,1.178,1.412,2,1.412h6.863A.835.835,0,0,0,543.417,373.574Z" transform="translate(-420.978 -347.495)"/>
    </g>
    <g id="Group_1314" data-name="Group 1314" transform="translate(22.628 120.571)">
      <path id="Path_1126" data-name="Path 1126" d="M327.6,449.591c-.409,0-.463.135-.613.489-.082.218-1.457,5.065-1.457,5.065s-1.674-4.983-1.7-5.065c-.148-.354-.2-.489-.613-.489h-1.089c-.394,0-.463.135-.6.489-.041.082-1.7,5.065-1.7,5.065s-1.374-4.846-1.471-5.065c-.136-.354-.2-.489-.6-.489h-2.22c-.23,0-.353.176-.245.476.122.326,2.818,8.481,2.928,8.713s.192.34.435.34h2.151c.245,0,.327-.109.437-.34.041-.11,1.429-4.125,1.429-4.125s1.389,4.016,1.443,4.125c.1.232.177.34.422.34H326.7c.245,0,.327-.109.424-.34s2.816-8.387,2.939-8.713c.11-.3-.026-.476-.243-.476Z" transform="translate(-315.253 -449.427)"/>
      <path id="Path_1127" data-name="Path 1127" d="M372.725,449.591a.336.336,0,0,0-.34.34v3.254h-2.928v-3.254a.345.345,0,0,0-.34-.34h-2.123a.338.338,0,0,0-.342.34v8.85a.338.338,0,0,0,.342.34h2.123a.337.337,0,0,0,.34-.34v-3.254h2.928v3.254a.336.336,0,0,0,.34.34h2.123a.336.336,0,0,0,.34-.34v-8.85a.344.344,0,0,0-.34-.34Z" transform="translate(-347.854 -449.427)"/>
      <path id="Path_1128" data-name="Path 1128" d="M401.871,449.591a.338.338,0,0,0-.342.34v8.85a.338.338,0,0,0,.342.34h2.123a.337.337,0,0,0,.34-.34v-8.85a.337.337,0,0,0-.34-.34Z" transform="translate(-369.976 -449.427)"/>
      <path id="Path_1129" data-name="Path 1129" d="M425.271,453.54c-1.484-1.062-1.975-1.429-1.8-1.892.069-.178.368-.286.626-.286a4.87,4.87,0,0,1,1.689.367c.258.1.355-.041.4-.2s.271-1.417.3-1.58a.328.328,0,0,0-.273-.395,7.821,7.821,0,0,0-2.382-.408c-1.088,0-3.132.164-3.378,2.191a3.682,3.682,0,0,0,1.975,3.513c1.1.761,1.484.953,1.484,1.348s-.518.571-1.157.545a5.694,5.694,0,0,1-1.635-.558.237.237,0,0,0-.312.122c-.028.1-.368,1.348-.408,1.538s-.013.313.109.4a4.829,4.829,0,0,0,2.7.762c2.286,0,3.321-.953,3.607-2.07C427.108,455.76,426.753,454.588,425.271,453.54Z" transform="translate(-381.929 -449.143)"/>
      <path id="Path_1130" data-name="Path 1130" d="M455.64,454.465c.6-1.089,2.179-4.247,2.274-4.438.148-.274.067-.436-.327-.436H455.15a.529.529,0,0,0-.516.34c-.056.109-.953,1.879-1.661,3.254h-.723v-3.254a.346.346,0,0,0-.34-.34h-2.137a.346.346,0,0,0-.342.34v8.85a.346.346,0,0,0,.342.34h2.137a.346.346,0,0,0,.34-.34v-3.254h.764c.8,1.225,1.919,2.9,2.055,3.1.219.313.409.491.695.491h2.382a.29.29,0,0,0,.245-.477C458.254,458.4,456.2,455.3,455.64,454.465Z" transform="translate(-400.36 -449.427)"/>
      <path id="Path_1131" data-name="Path 1131" d="M490.439,449.591c-.408,0-.462.135-.613.489-.095.2-1.428,3.254-1.428,3.254s-1.349-3.035-1.444-3.254c-.136-.354-.2-.489-.6-.489h-2.22c-.23,0-.409.135-.259.436s3.117,5.962,3.117,5.962v2.792a.335.335,0,0,0,.327.34h2.138a.337.337,0,0,0,.34-.34v-2.792s2.954-5.649,3.1-5.936-.028-.462-.26-.462Z" transform="translate(-422.173 -449.427)"/>
    </g>
    <path id="Path_1132" data-name="Path 1132" d="M428.743,200.077a8.558,8.558,0,1,0-8.559-8.558A8.558,8.558,0,0,0,428.743,200.077Zm3.825-11.721a3.164,3.164,0,1,1-3.275,3.162A3.245,3.245,0,0,1,432.568,188.356Zm-7.654,0a3.054,3.054,0,0,1,3.077,2.3c.026.113,0,.227-.131.227h-1.382a.18.18,0,0,1-.181-.113,1.365,1.365,0,0,0-1.382-.874,1.621,1.621,0,0,0,0,3.233,1.359,1.359,0,0,0,1.391-.9.183.183,0,0,1,.19-.122h1.365c.122,0,.165.122.139.236a3.056,3.056,0,0,1-3.085,2.333,3.16,3.16,0,1,1,0-6.317Z" transform="translate(-359.181 -159.737)"/>
    <path id="Path_1133" data-name="Path 1133" d="M451.348,205.2a1.612,1.612,0,1,0-1.555-1.616A1.582,1.582,0,0,0,451.348,205.2Z" transform="translate(-377.961 -171.801)"/>
  </g>
</svg>
