<svg xmlns="http://www.w3.org/2000/svg" width="223.099" height="58.761" viewBox="0 0 223.099 58.761">
  <g id="Group_1319" data-name="Group 1319" transform="translate(0)">
    <g id="Group_1317" data-name="Group 1317" transform="translate(0)">
      <path id="Path_1134" data-name="Path 1134" d="M1449.693,341.972q0-1.409-1.037-1.408a1.728,1.728,0,0,0-.445.058,1.229,1.229,0,0,0-.356.147v2.65a2.722,2.722,0,0,0,.273.034c.111.01.231.015.362.015a1.046,1.046,0,0,0,.9-.411,1.783,1.783,0,0,0,.3-1.085m1.486.039a3.246,3.246,0,0,1-.181,1.114,2.35,2.35,0,0,1-.523.851,2.3,2.3,0,0,1-.84.543,3.164,3.164,0,0,1-1.135.19c-.176,0-.36-.008-.552-.024s-.381-.037-.568-.063-.364-.058-.533-.094-.32-.073-.45-.113V337.23l1.458-.236v2.563a2.689,2.689,0,0,1,.507-.167,2.661,2.661,0,0,1,.568-.058,2.319,2.319,0,0,1,.968.19,1.9,1.9,0,0,1,.7.543,2.446,2.446,0,0,1,.431.846,3.876,3.876,0,0,1,.146,1.1" transform="translate(-1259.595 -287.631)"/>
      <path id="Path_1135" data-name="Path 1135" d="M1462.422,342.143q-.44,1.487-.921,2.787t-1.049,2.523a5.558,5.558,0,0,1-.412.748,2.328,2.328,0,0,1-.45.509,1.582,1.582,0,0,1-.553.293,2.494,2.494,0,0,1-.72.093,3.025,3.025,0,0,1-.633-.063,2.876,2.876,0,0,1-.474-.142l.254-1.164a2.425,2.425,0,0,0,.4.107,2.281,2.281,0,0,0,.372.029.815.815,0,0,0,.6-.21,1.691,1.691,0,0,0,.358-.582q-.5-.978-1-2.2a27.084,27.084,0,0,1-.94-2.734h1.545q.1.382.231.827c.088.3.182.6.28.9s.2.6.3.885.2.548.291.783q.127-.351.265-.783t.271-.885c.088-.3.173-.6.255-.9s.155-.572.22-.827Z" transform="translate(-1265.274 -290.335)"/>
      <path id="Path_1136" data-name="Path 1136" d="M1490.727,344.342q0,1.2.971,1.2a1.413,1.413,0,0,0,.413-.057,1.6,1.6,0,0,0,.327-.135v-2.288q-.105-.019-.25-.034a3.307,3.307,0,0,0-.337-.015.986.986,0,0,0-.846.375,1.552,1.552,0,0,0-.278.952m3.144,2.057a2.438,2.438,0,0,1-.63,1.841,2.735,2.735,0,0,1-1.947.6,5.359,5.359,0,0,1-.922-.082,5.75,5.75,0,0,1-.855-.217l.249-1.2a3.974,3.974,0,0,0,1.548.288,1.167,1.167,0,0,0,.87-.269.968.968,0,0,0,.255-.692v-.183a2.289,2.289,0,0,1-.476.159,2.543,2.543,0,0,1-.533.053,2.047,2.047,0,0,1-1.606-.62,2.5,2.5,0,0,1-.558-1.735,2.842,2.842,0,0,1,.173-1.014,2.168,2.168,0,0,1,.5-.784,2.257,2.257,0,0,1,.812-.5,3.114,3.114,0,0,1,1.086-.178c.173,0,.351.009.534.024s.364.037.544.062.351.056.514.092.309.072.438.111Z" transform="translate(-1282.109 -290.187)"/>
      <path id="Path_1137" data-name="Path 1137" d="M1504.63,342.251v3.577c-.09.013-.193.024-.308.034s-.225.014-.327.014a.725.725,0,0,1-.683-.308,2.047,2.047,0,0,1-.183-1v-1.8l-1.433.489v1.488a3.987,3.987,0,0,0,.106.952,1.891,1.891,0,0,0,.356.746,1.626,1.626,0,0,0,.677.485,2.882,2.882,0,0,0,1.073.173,7.753,7.753,0,0,0,1.211-.091,7.926,7.926,0,0,0,.943-.2v-5.047Z" transform="translate(-1288.637 -290.135)"/>
      <path id="Path_1138" data-name="Path 1138" d="M1479.278,343.13c.09-.013.193-.024.308-.033s.224-.015.326-.015a.746.746,0,0,1,.683.288,1.932,1.932,0,0,1,.183.98v1.821l1.433-.489v-1.5a3.872,3.872,0,0,0-.106-.943,1.856,1.856,0,0,0-.355-.731,1.614,1.614,0,0,0-.678-.476,2.957,2.957,0,0,0-1.072-.168,7.822,7.822,0,0,0-1.212.091,8.01,8.01,0,0,0-.943.2v5.025l1.433-.49Z" transform="translate(-1276.111 -290.187)"/>
      <path id="Path_1139" data-name="Path 1139" d="M1234.335,296q-.545,2.07-1.158,4.113t-1.294,4.114h-3.16q-.491-1.144-1.065-2.724t-1.188-3.446q-.615-1.865-1.257-3.95t-1.243-4.21h4.277q.219.981.479,2.139t.548,2.384q.288,1.226.6,2.465t.644,2.384q.353-1.2.7-2.451t.653-2.466q.313-1.212.6-2.344t.5-2.111h2.942q.218.981.49,2.111t.572,2.344q.3,1.212.626,2.466t.681,2.451q.33-1.144.659-2.384t.617-2.465q.287-1.226.548-2.384t.479-2.139h4.223q-.6,2.125-1.243,4.21t-1.256,3.95q-.615,1.866-1.2,3.446t-1.079,2.724h-3.16q-.681-2.07-1.335-4.114t-1.2-4.113" transform="translate(-1142.783 -262.897)"/>
      <path id="Path_1140" data-name="Path 1140" d="M1280.214,296.612a5.1,5.1,0,0,0-.749-2.956,2.451,2.451,0,0,0-2.138-1.077,2.484,2.484,0,0,0-2.152,1.077,5.03,5.03,0,0,0-.763,2.956,5.161,5.161,0,0,0,.763,2.983,2.465,2.465,0,0,0,2.152,1.1,2.432,2.432,0,0,0,2.138-1.1,5.238,5.238,0,0,0,.749-2.983m4.141,0a9.3,9.3,0,0,1-.491,3.092,6.723,6.723,0,0,1-1.416,2.4,6.383,6.383,0,0,1-2.22,1.539,7.4,7.4,0,0,1-2.9.546,7.327,7.327,0,0,1-2.875-.546,6.371,6.371,0,0,1-2.22-1.539,7.033,7.033,0,0,1-1.443-2.4,8.867,8.867,0,0,1-.517-3.092,8.556,8.556,0,0,1,.531-3.079,6.99,6.99,0,0,1,1.471-2.37,6.613,6.613,0,0,1,2.234-1.525,7.2,7.2,0,0,1,2.82-.545,7.273,7.273,0,0,1,2.847.545,6.48,6.48,0,0,1,2.22,1.525,6.951,6.951,0,0,1,1.444,2.37,8.779,8.779,0,0,1,.518,3.079" transform="translate(-1167.099 -262.475)"/>
      <path id="Path_1141" data-name="Path 1141" d="M1315.166,293.161q-.545-.136-1.28-.286a7.968,7.968,0,0,0-1.58-.15,7.461,7.461,0,0,0-.913.068,5.632,5.632,0,0,0-.8.15V303.9h-4.059V290.328a24.356,24.356,0,0,1,2.574-.721,14.806,14.806,0,0,1,3.31-.341c.218,0,.48.014.79.041s.617.064.926.109.617.1.927.163a4.377,4.377,0,0,1,.79.232Z" transform="translate(-1186.141 -262.566)"/>
      <path id="Path_1142" data-name="Path 1142" d="M1334.8,287.511q.6-.65,1.238-1.354t1.239-1.395q.6-.691,1.129-1.313t.912-1.084h4.827q-1.445,1.659-2.819,3.167t-3.01,3.112A18.88,18.88,0,0,1,1340,290.4q.873,1.025,1.689,2.116t1.5,2.183q.68,1.09,1.145,1.991h-4.667q-.436-.71-.992-1.571t-1.183-1.719q-.626-.86-1.319-1.652a11.067,11.067,0,0,0-1.373-1.338v6.281h-4.059V276.209l4.059-.654Z" transform="translate(-1198.856 -255.365)"/>
      <path id="Path_1143" data-name="Path 1143" d="M1369.876,283.9a1.7,1.7,0,0,0-.409-1.118,1.68,1.68,0,0,0-1.362-.491,1.717,1.717,0,0,0-1.349.531,1.984,1.984,0,0,0-.477,1.376,2.6,2.6,0,0,0,.409,1.376,6.2,6.2,0,0,0,1.053,1.274,6.011,6.011,0,0,0,1.5-1.174,2.511,2.511,0,0,0,.63-1.774m-5.285,9.4a2.381,2.381,0,0,0,.163.842,2.227,2.227,0,0,0,.532.8,2.788,2.788,0,0,0,.943.6,3.742,3.742,0,0,0,1.393.231,6.026,6.026,0,0,0,2.008-.3,4.408,4.408,0,0,0,1.434-.8l-4.388-4.358a5.046,5.046,0,0,0-.745.462,3.672,3.672,0,0,0-.662.638,3.239,3.239,0,0,0-.487.83,2.765,2.765,0,0,0-.189,1.06m-3.787.407a5.7,5.7,0,0,1,.3-1.892,5.943,5.943,0,0,1,.8-1.552,6.229,6.229,0,0,1,1.168-1.225,10.307,10.307,0,0,1,1.4-.939,12.727,12.727,0,0,1-1.161-1.712,3.989,3.989,0,0,1-.517-2,4.7,4.7,0,0,1,1.443-3.691,5.745,5.745,0,0,1,3.978-1.294,6.655,6.655,0,0,1,2.234.34,4.631,4.631,0,0,1,1.593.927,3.86,3.86,0,0,1,.967,1.362,4.276,4.276,0,0,1,.327,1.675,4.907,4.907,0,0,1-.941,2.957,8.036,8.036,0,0,1-2.385,2.165l3.067,3.037a9.947,9.947,0,0,0,.468-1.37,8.181,8.181,0,0,0,.281-1.45l3.378.435a10.113,10.113,0,0,1-.191,1.132q-.137.613-.341,1.24t-.464,1.254a9.6,9.6,0,0,1-.56,1.146,25.992,25.992,0,0,1,1.7,2.136,18.319,18.319,0,0,1,1.432,2.327h-4.153q-.228-.358-.608-.89a7.406,7.406,0,0,0-.761-.913,10.144,10.144,0,0,1-2.536,1.462,8.54,8.54,0,0,1-3.243.587,9.238,9.238,0,0,1-3.19-.476,5.884,5.884,0,0,1-2.057-1.225,4.3,4.3,0,0,1-1.1-1.688,5.651,5.651,0,0,1-.327-1.864" transform="translate(-1214.645 -257.384)"/>
      <path id="Path_1144" data-name="Path 1144" d="M1402.973,281.659l4.059-.654v4.222h4.876v3.378h-4.876v5.04a4.008,4.008,0,0,0,.449,2.043,1.929,1.929,0,0,0,1.812.763,7.767,7.767,0,0,0,1.349-.122,7.07,7.07,0,0,0,1.266-.34l.573,3.16a11.543,11.543,0,0,1-1.635.518,9.549,9.549,0,0,1-2.207.218,7.264,7.264,0,0,1-2.751-.45,4.312,4.312,0,0,1-1.744-1.254,4.662,4.662,0,0,1-.913-1.948,11.506,11.506,0,0,1-.258-2.534Z" transform="translate(-1236.79 -258.227)"/>
      <path id="Path_1145" data-name="Path 1145" d="M1436.1,296.612a5.106,5.106,0,0,0-.75-2.956,2.45,2.45,0,0,0-2.139-1.077,2.484,2.484,0,0,0-2.152,1.077,5.029,5.029,0,0,0-.763,2.956,5.16,5.16,0,0,0,.763,2.983,2.465,2.465,0,0,0,2.152,1.1,2.432,2.432,0,0,0,2.139-1.1,5.239,5.239,0,0,0,.75-2.983m4.141,0a9.319,9.319,0,0,1-.491,3.092,6.721,6.721,0,0,1-1.417,2.4,6.372,6.372,0,0,1-2.219,1.539,7.406,7.406,0,0,1-2.9.546,7.321,7.321,0,0,1-2.874-.546,6.37,6.37,0,0,1-2.221-1.539,7.049,7.049,0,0,1-1.443-2.4,8.875,8.875,0,0,1-.518-3.092,8.548,8.548,0,0,1,.532-3.079,6.982,6.982,0,0,1,1.471-2.37,6.614,6.614,0,0,1,2.234-1.525,7.636,7.636,0,0,1,5.667,0,6.486,6.486,0,0,1,2.22,1.525,6.939,6.939,0,0,1,1.444,2.37,8.754,8.754,0,0,1,.518,3.079" transform="translate(-1248.963 -262.475)"/>
      <path id="Path_1146" data-name="Path 1146" d="M1470.92,296.612a5.1,5.1,0,0,0-.75-2.956,2.449,2.449,0,0,0-2.138-1.077,2.486,2.486,0,0,0-2.152,1.077,5.029,5.029,0,0,0-.763,2.956,5.16,5.16,0,0,0,.763,2.983,2.466,2.466,0,0,0,2.152,1.1,2.431,2.431,0,0,0,2.138-1.1,5.235,5.235,0,0,0,.75-2.983m4.141,0a9.316,9.316,0,0,1-.491,3.092,6.719,6.719,0,0,1-1.416,2.4,6.371,6.371,0,0,1-2.22,1.539,7.4,7.4,0,0,1-2.9.546,7.322,7.322,0,0,1-2.874-.546,6.375,6.375,0,0,1-2.221-1.539,7.047,7.047,0,0,1-1.443-2.4,8.872,8.872,0,0,1-.518-3.092,8.546,8.546,0,0,1,.531-3.079,7,7,0,0,1,1.471-2.37,6.621,6.621,0,0,1,2.234-1.525,7.636,7.636,0,0,1,5.667,0,6.479,6.479,0,0,1,2.22,1.525,6.934,6.934,0,0,1,1.444,2.37,8.768,8.768,0,0,1,.518,3.079" transform="translate(-1267.252 -262.475)"/>
      <path id="Path_1147" data-name="Path 1147" d="M1502.958,296.967a10.171,10.171,0,0,1-2.875-.382,4.252,4.252,0,0,1-1.743-.994,3.3,3.3,0,0,1-.873-1.553,8.384,8.384,0,0,1-.231-2.057V276.209l4.059-.654v15.609a5.358,5.358,0,0,0,.082.981,1.683,1.683,0,0,0,.314.736,1.64,1.64,0,0,0,.667.49,3.651,3.651,0,0,0,1.172.246Z" transform="translate(-1286.295 -255.365)"/>
      <path id="Path_1148" data-name="Path 1148" d="M1223.589,344.576a3.029,3.029,0,0,1,.181-1.052,2.465,2.465,0,0,1,1.354-1.442,2.743,2.743,0,0,1,1.115-.215,3.6,3.6,0,0,1,.753.073,3.657,3.657,0,0,1,.665.21l-.3,1.164a3.878,3.878,0,0,0-.45-.138,2.415,2.415,0,0,0-.548-.058,1.156,1.156,0,0,0-.964.4,1.652,1.652,0,0,0-.318,1.056,1.713,1.713,0,0,0,.3,1.076,1.248,1.248,0,0,0,1.042.382,3.553,3.553,0,0,0,.567-.049,2.394,2.394,0,0,0,.557-.156l.205,1.193a3.409,3.409,0,0,1-.635.185,4.144,4.144,0,0,1-.84.079,3.15,3.15,0,0,1-1.213-.211,2.282,2.282,0,0,1-.836-.571,2.223,2.223,0,0,1-.479-.856,3.631,3.631,0,0,1-.152-1.071" transform="translate(-1142.583 -290.19)"/>
      <path id="Path_1149" data-name="Path 1149" d="M1241.183,344.057a1.5,1.5,0,0,0-.064-.362.9.9,0,0,0-.166-.312.888.888,0,0,0-.284-.226.935.935,0,0,0-.425-.087.975.975,0,0,0-.421.083.875.875,0,0,0-.293.22,1,1,0,0,0-.181.319,2.064,2.064,0,0,0-.093.366Zm-3.423.557a3.158,3.158,0,0,1,.21-1.2,2.565,2.565,0,0,1,.553-.856,2.3,2.3,0,0,1,.787-.518,2.468,2.468,0,0,1,.915-.176,2.275,2.275,0,0,1,1.731.669,2.762,2.762,0,0,1,.635,1.971c0,.085,0,.178-.009.278s-.013.191-.02.269h-3.306a.963.963,0,0,0,.421.714,1.684,1.684,0,0,0,1,.264,4.213,4.213,0,0,0,.788-.073,2.926,2.926,0,0,0,.631-.181l.2,1.183a1.931,1.931,0,0,1-.312.117,4,4,0,0,1-.436.1c-.159.029-.331.054-.513.073a5.052,5.052,0,0,1-.548.03,3.23,3.23,0,0,1-1.207-.206,2.354,2.354,0,0,1-.852-.562,2.238,2.238,0,0,1-.5-.847,3.363,3.363,0,0,1-.161-1.056" transform="translate(-1150.026 -290.19)"/>
      <path id="Path_1150" data-name="Path 1150" d="M1254.69,342.2a8.219,8.219,0,0,1,.959-.2,7.772,7.772,0,0,1,1.232-.094,2.993,2.993,0,0,1,1.09.172,1.645,1.645,0,0,1,.69.483,1.889,1.889,0,0,1,.361.744,3.978,3.978,0,0,1,.108.958v2.9h-1.457V344.44a1.962,1.962,0,0,0-.186-1,.757.757,0,0,0-.694-.293q-.157,0-.333.014c-.117.01-.222.021-.313.034v3.971h-1.457Z" transform="translate(-1158.917 -290.211)"/>
      <path id="Path_1151" data-name="Path 1151" d="M1271.1,339.2l1.457-.235v1.516h1.751v1.213h-1.751V343.5a1.442,1.442,0,0,0,.162.734.692.692,0,0,0,.651.274,2.816,2.816,0,0,0,.484-.044,2.425,2.425,0,0,0,.455-.123l.205,1.135a4.158,4.158,0,0,1-.586.187,3.475,3.475,0,0,1-.792.078,2.61,2.61,0,0,1-.988-.161,1.546,1.546,0,0,1-.626-.45,1.668,1.668,0,0,1-.328-.7,4.118,4.118,0,0,1-.093-.909Z" transform="translate(-1167.537 -288.665)"/>
      <path id="Path_1152" data-name="Path 1152" d="M1287.236,344.057a1.523,1.523,0,0,0-.065-.362.9.9,0,0,0-.166-.312.888.888,0,0,0-.284-.226.933.933,0,0,0-.425-.087.977.977,0,0,0-.421.083.87.87,0,0,0-.293.22.994.994,0,0,0-.181.319,2.055,2.055,0,0,0-.093.366Zm-3.424.557a3.148,3.148,0,0,1,.21-1.2,2.559,2.559,0,0,1,.553-.856,2.289,2.289,0,0,1,.787-.518,2.465,2.465,0,0,1,.914-.176,2.273,2.273,0,0,1,1.731.669,2.762,2.762,0,0,1,.635,1.971c0,.085,0,.178-.01.278s-.013.191-.019.269h-3.306a.964.964,0,0,0,.421.714,1.685,1.685,0,0,0,1,.264,4.216,4.216,0,0,0,.787-.073,2.918,2.918,0,0,0,.63-.181l.2,1.183a1.933,1.933,0,0,1-.313.117,3.976,3.976,0,0,1-.436.1c-.16.029-.331.054-.513.073a5.044,5.044,0,0,1-.548.03,3.232,3.232,0,0,1-1.207-.206,2.35,2.35,0,0,1-.851-.562,2.234,2.234,0,0,1-.5-.847,3.374,3.374,0,0,1-.161-1.056" transform="translate(-1174.211 -290.19)"/>
      <path id="Path_1153" data-name="Path 1153" d="M1303.842,343.327q-.2-.048-.46-.1a2.892,2.892,0,0,0-.567-.053,2.583,2.583,0,0,0-.328.024,1.9,1.9,0,0,0-.288.054v3.932h-1.458V342.31a8.964,8.964,0,0,1,.925-.259,5.344,5.344,0,0,1,1.188-.122c.078,0,.173,0,.283.015s.222.023.332.038.222.036.333.059a1.569,1.569,0,0,1,.284.083Z" transform="translate(-1183.102 -290.223)"/>
      <path id="Path_1154" data-name="Path 1154" d="M1313.581,350.365a.816.816,0,0,1-.279.67.98.98,0,0,1-1.261,0,.946.946,0,0,1,0-1.34.978.978,0,0,1,1.261,0,.817.817,0,0,1,.279.67" transform="translate(-1188.889 -294.18)"/>
      <path id="Path_1155" data-name="Path 1155" d="M1324.329,344.057a1.492,1.492,0,0,0-.064-.362.9.9,0,0,0-.166-.312.888.888,0,0,0-.284-.226.935.935,0,0,0-.425-.087.979.979,0,0,0-.421.083.875.875,0,0,0-.293.22.991.991,0,0,0-.181.319,2,2,0,0,0-.093.366Zm-3.423.557a3.16,3.16,0,0,1,.21-1.2,2.569,2.569,0,0,1,.553-.856,2.3,2.3,0,0,1,.787-.518,2.47,2.47,0,0,1,.915-.176,2.275,2.275,0,0,1,1.731.669,2.761,2.761,0,0,1,.635,1.971c0,.085,0,.178-.01.278s-.013.191-.019.269H1322.4a.964.964,0,0,0,.42.714,1.686,1.686,0,0,0,1,.264,4.22,4.22,0,0,0,.788-.073,2.911,2.911,0,0,0,.631-.181l.2,1.183a1.9,1.9,0,0,1-.312.117,4,4,0,0,1-.436.1c-.16.029-.331.054-.513.073a5.052,5.052,0,0,1-.548.03,3.23,3.23,0,0,1-1.207-.206,2.352,2.352,0,0,1-.851-.562,2.226,2.226,0,0,1-.5-.847,3.346,3.346,0,0,1-.161-1.056" transform="translate(-1193.691 -290.19)"/>
      <path id="Path_1156" data-name="Path 1156" d="M1342.173,347.123a8.179,8.179,0,0,1-.958.2,7.907,7.907,0,0,1-1.233.093,2.934,2.934,0,0,1-1.09-.176,1.655,1.655,0,0,1-.689-.494,1.913,1.913,0,0,1-.362-.758,4.045,4.045,0,0,1-.108-.968v-2.866h1.457v2.689a2.081,2.081,0,0,0,.186,1.017.738.738,0,0,0,.694.313q.157,0,.332-.014c.118-.01.222-.021.313-.034v-3.971h1.457Z" transform="translate(-1202.529 -290.341)"/>
      <rect id="Rectangle_422" data-name="Rectangle 422" width="8.82" height="8.82" transform="translate(0 33) rotate(-45)"/>
      <rect id="Rectangle_423" data-name="Rectangle 423" width="8.82" height="8.82" transform="translate(26.763 6.237) rotate(-45)"/>
      <rect id="Rectangle_424" data-name="Rectangle 424" width="8.82" height="8.82" transform="translate(8.921 41.921) rotate(-45)"/>
      <rect id="Rectangle_425" data-name="Rectangle 425" width="8.82" height="8.82" transform="translate(17.842 33) rotate(-45)"/>
      <rect id="Rectangle_426" data-name="Rectangle 426" width="8.82" height="8.82" transform="translate(26.763 24.079) rotate(-45)"/>
      <rect id="Rectangle_427" data-name="Rectangle 427" width="8.82" height="8.82" transform="translate(35.684 15.158) rotate(-45)"/>
      <rect id="Rectangle_428" data-name="Rectangle 428" width="8.82" height="8.82" transform="matrix(0.707, -0.707, 0.707, 0.707, 17.842, 50.842)"/>
      <rect id="Rectangle_429" data-name="Rectangle 429" width="8.82" height="8.82" transform="translate(26.763 41.921) rotate(-45)"/>
      <rect id="Rectangle_430" data-name="Rectangle 430" width="8.82" height="8.82" transform="translate(44.605 24.079) rotate(-45)"/>
      <rect id="Rectangle_431" data-name="Rectangle 431" width="8.82" height="8.82" transform="matrix(0.707, -0.707, 0.707, 0.707, 35.684, 50.842)"/>
      <rect id="Rectangle_432" data-name="Rectangle 432" width="8.82" height="8.82" transform="translate(44.605 41.921) rotate(-45)"/>
      <rect id="Rectangle_433" data-name="Rectangle 433" width="8.82" height="8.82" transform="translate(53.526 33) rotate(-45)"/>
      <g id="Group_1316" data-name="Group 1316" transform="translate(145.942 55.893)">
        <rect id="Rectangle_434" data-name="Rectangle 434" width="34.742" height="1.21"/>
      </g>
    </g>
    <g id="Group_1318" data-name="Group 1318" transform="translate(217.363 14.328)">
      <path id="Path_1157" data-name="Path 1157" d="M1516.5,266.192a3.193,3.193,0,0,1-.235,1.261,2.818,2.818,0,0,1-.63.935,2.717,2.717,0,0,1-.915.585,3.032,3.032,0,0,1-2.175,0,2.727,2.727,0,0,1-.915-.585,2.833,2.833,0,0,1-.63-.935,3.493,3.493,0,0,1,0-2.517,2.817,2.817,0,0,1,.63-.94,2.719,2.719,0,0,1,.915-.585,3.032,3.032,0,0,1,2.175,0,2.71,2.71,0,0,1,.915.585,2.8,2.8,0,0,1,.63.94A3.2,3.2,0,0,1,1516.5,266.192Zm-.84,0a2.589,2.589,0,0,0-.149-.9,2.032,2.032,0,0,0-.416-.692,1.819,1.819,0,0,0-.642-.445,2.224,2.224,0,0,0-1.64,0,1.817,1.817,0,0,0-.643.445,2.032,2.032,0,0,0-.416.692,2.8,2.8,0,0,0,0,1.8,2.023,2.023,0,0,0,.416.692,1.816,1.816,0,0,0,.643.445,2.224,2.224,0,0,0,1.64,0,1.818,1.818,0,0,0,.642-.445,2.023,2.023,0,0,0,.416-.692A2.589,2.589,0,0,0,1515.656,266.192Zm-1.524,1.4q-.14-.313-.239-.548a2.676,2.676,0,0,0-.223-.424h-.329v.972h-.8v-2.818a4.723,4.723,0,0,1,.523-.095,3.615,3.615,0,0,1,.424-.029q1.328,0,1.327,1a.794.794,0,0,1-.444.75q.09.14.16.268c.047.085.094.173.14.264s.094.189.14.3l.161.367Zm-.791-1.615h.148a.864.864,0,0,0,.4-.07.274.274,0,0,0,.132-.268.244.244,0,0,0-.115-.231.7.7,0,0,0-.338-.065c-.039,0-.078,0-.119,0a.891.891,0,0,0-.1.012Z" transform="translate(-1510.761 -263.209)"/>
    </g>
  </g>
</svg>
